G04 #@! TF.GenerationSoftware,KiCad,Pcbnew,5.99.0-unknown-4f191ce2c7~125~ubuntu18.04.1*
G04 #@! TF.CreationDate,2021-04-25T15:12:40-05:00*
G04 #@! TF.ProjectId,southpawpcb,736f7574-6870-4617-9770-63622e6b6963,rev?*
G04 #@! TF.SameCoordinates,Original*
G04 #@! TF.FileFunction,Copper,L1,Top*
G04 #@! TF.FilePolarity,Positive*
%FSLAX46Y46*%
G04 Gerber Fmt 4.6, Leading zero omitted, Abs format (unit mm)*
G04 Created by KiCad (PCBNEW 5.99.0-unknown-4f191ce2c7~125~ubuntu18.04.1) date 2021-04-25 15:12:40*
%MOMM*%
%LPD*%
G01*
G04 APERTURE LIST*
G04 #@! TA.AperFunction,ComponentPad*
%ADD10R,1.600000X1.600000*%
G04 #@! TD*
G04 #@! TA.AperFunction,SMDPad,CuDef*
%ADD11R,2.500000X0.500000*%
G04 #@! TD*
G04 #@! TA.AperFunction,SMDPad,CuDef*
%ADD12R,1.200000X1.200000*%
G04 #@! TD*
G04 #@! TA.AperFunction,ComponentPad*
%ADD13C,1.600000*%
G04 #@! TD*
G04 #@! TA.AperFunction,SMDPad,CuDef*
%ADD14R,0.500000X2.500000*%
G04 #@! TD*
G04 #@! TA.AperFunction,ViaPad*
%ADD15C,0.800000*%
G04 #@! TD*
G04 #@! TA.AperFunction,Conductor*
%ADD16C,0.250000*%
G04 #@! TD*
G04 APERTURE END LIST*
D10*
G04 #@! TO.P,D27,1*
G04 #@! TO.N,Net-(D19-Pad1)*
X181881000Y1675000D03*
D11*
X183081000Y1675000D03*
D12*
X184206000Y1675000D03*
D13*
G04 #@! TO.P,D27,2*
G04 #@! TO.N,Net-(D27-Pad2)*
X189681000Y1675000D03*
D11*
X188481000Y1675000D03*
D12*
X187356000Y1675000D03*
G04 #@! TD*
D11*
G04 #@! TO.P,D1,1*
G04 #@! TO.N,Net-(D1-Pad1)*
X21156200Y20725000D03*
D10*
X19956200Y20725000D03*
D12*
X22281200Y20725000D03*
G04 #@! TO.P,D1,2*
G04 #@! TO.N,Net-(D1-Pad2)*
X25431200Y20725000D03*
D11*
X26556200Y20725000D03*
D13*
X27756200Y20725000D03*
G04 #@! TD*
D11*
G04 #@! TO.P,D41,1*
G04 #@! TO.N,Net-(D37-Pad1)*
X130693000Y-17375000D03*
D10*
X129493000Y-17375000D03*
D12*
X131818000Y-17375000D03*
D11*
G04 #@! TO.P,D41,2*
G04 #@! TO.N,Net-(D41-Pad2)*
X136093000Y-17375000D03*
D13*
X137293000Y-17375000D03*
D12*
X134968000Y-17375000D03*
G04 #@! TD*
G04 #@! TO.P,D59,1*
G04 #@! TO.N,Net-(D55-Pad1)*
X160394000Y-36425000D03*
D11*
X159269000Y-36425000D03*
D10*
X158069000Y-36425000D03*
D12*
G04 #@! TO.P,D59,2*
G04 #@! TO.N,Net-(D59-Pad2)*
X163544000Y-36425000D03*
D13*
X165869000Y-36425000D03*
D11*
X164669000Y-36425000D03*
G04 #@! TD*
D12*
G04 #@! TO.P,D24,1*
G04 #@! TO.N,Net-(D19-Pad1)*
X127056000Y1675000D03*
D10*
X124731000Y1675000D03*
D11*
X125931000Y1675000D03*
G04 #@! TO.P,D24,2*
G04 #@! TO.N,Net-(D24-Pad2)*
X131331000Y1675000D03*
D13*
X132531000Y1675000D03*
D12*
X130206000Y1675000D03*
G04 #@! TD*
G04 #@! TO.P,D35,1*
G04 #@! TO.N,Net-(D28-Pad1)*
X334225000Y1675000D03*
D10*
X331900000Y1675000D03*
D11*
X333100000Y1675000D03*
D13*
G04 #@! TO.P,D35,2*
G04 #@! TO.N,Net-(D35-Pad2)*
X339700000Y1675000D03*
D12*
X337375000Y1675000D03*
D11*
X338500000Y1675000D03*
G04 #@! TD*
D10*
G04 #@! TO.P,D30,1*
G04 #@! TO.N,Net-(D28-Pad1)*
X239031000Y1675000D03*
D11*
X240231000Y1675000D03*
D12*
X241356000Y1675000D03*
D13*
G04 #@! TO.P,D30,2*
G04 #@! TO.N,Net-(D30-Pad2)*
X246831000Y1675000D03*
D12*
X244506000Y1675000D03*
D11*
X245631000Y1675000D03*
G04 #@! TD*
G04 #@! TO.P,D33,1*
G04 #@! TO.N,Net-(D28-Pad1)*
X297381000Y1675000D03*
D10*
X296181000Y1675000D03*
D12*
X298506000Y1675000D03*
D13*
G04 #@! TO.P,D33,2*
G04 #@! TO.N,Net-(D33-Pad2)*
X303981000Y1675000D03*
D12*
X301656000Y1675000D03*
D11*
X302781000Y1675000D03*
G04 #@! TD*
G04 #@! TO.P,D73,1*
G04 #@! TO.N,Net-(D73-Pad1)*
X147362000Y-55475000D03*
D12*
X148487000Y-55475000D03*
D10*
X146162000Y-55475000D03*
D12*
G04 #@! TO.P,D73,2*
G04 #@! TO.N,Net-(D73-Pad2)*
X151637000Y-55475000D03*
D11*
X152762000Y-55475000D03*
D13*
X153962000Y-55475000D03*
G04 #@! TD*
D10*
G04 #@! TO.P,D43,1*
G04 #@! TO.N,Net-(D37-Pad1)*
X167593000Y-17375000D03*
D11*
X168793000Y-17375000D03*
D12*
X169918000Y-17375000D03*
D11*
G04 #@! TO.P,D43,2*
G04 #@! TO.N,Net-(D43-Pad2)*
X174193000Y-17375000D03*
D13*
X175393000Y-17375000D03*
D12*
X173068000Y-17375000D03*
G04 #@! TD*
D10*
G04 #@! TO.P,D5,1*
G04 #@! TO.N,Net-(D1-Pad1)*
X109581000Y7300000D03*
D14*
X109581000Y8500000D03*
D12*
X109581000Y9625000D03*
D13*
G04 #@! TO.P,D5,2*
G04 #@! TO.N,Net-(D5-Pad2)*
X109581000Y15100000D03*
D12*
X109581000Y12775000D03*
D14*
X109581000Y13900000D03*
G04 #@! TD*
D12*
G04 #@! TO.P,D55,1*
G04 #@! TO.N,Net-(D55-Pad1)*
X60381200Y-36425000D03*
D10*
X58056200Y-36425000D03*
D11*
X59256200Y-36425000D03*
D13*
G04 #@! TO.P,D55,2*
G04 #@! TO.N,Net-(D55-Pad2)*
X65856200Y-36425000D03*
D11*
X64656200Y-36425000D03*
D12*
X63531200Y-36425000D03*
G04 #@! TD*
D10*
G04 #@! TO.P,D29,1*
G04 #@! TO.N,Net-(D28-Pad1)*
X219981000Y1675000D03*
D12*
X222306000Y1675000D03*
D11*
X221181000Y1675000D03*
D13*
G04 #@! TO.P,D29,2*
G04 #@! TO.N,Net-(D29-Pad2)*
X227781000Y1675000D03*
D11*
X226581000Y1675000D03*
D12*
X225456000Y1675000D03*
G04 #@! TD*
D10*
G04 #@! TO.P,D63,1*
G04 #@! TO.N,Net-(D55-Pad1)*
X234269000Y-36425000D03*
D12*
X236594000Y-36425000D03*
D11*
X235469000Y-36425000D03*
G04 #@! TO.P,D63,2*
G04 #@! TO.N,Net-(D63-Pad2)*
X240869000Y-36425000D03*
D13*
X242069000Y-36425000D03*
D12*
X239744000Y-36425000D03*
G04 #@! TD*
D10*
G04 #@! TO.P,D11,1*
G04 #@! TO.N,Net-(D10-Pad1)*
X210456000Y20725000D03*
D11*
X211656000Y20725000D03*
D12*
X212781000Y20725000D03*
D13*
G04 #@! TO.P,D11,2*
G04 #@! TO.N,Net-(D11-Pad2)*
X218256000Y20725000D03*
D12*
X215931000Y20725000D03*
D11*
X217056000Y20725000D03*
G04 #@! TD*
D10*
G04 #@! TO.P,D51,1*
G04 #@! TO.N,Net-(D46-Pad1)*
X319993000Y-17375000D03*
D11*
X321193000Y-17375000D03*
D12*
X322318000Y-17375000D03*
D13*
G04 #@! TO.P,D51,2*
G04 #@! TO.N,Net-(D51-Pad2)*
X327793000Y-17375000D03*
D12*
X325468000Y-17375000D03*
D11*
X326593000Y-17375000D03*
G04 #@! TD*
G04 #@! TO.P,D46,1*
G04 #@! TO.N,Net-(D46-Pad1)*
X225943000Y-17375000D03*
D10*
X224743000Y-17375000D03*
D12*
X227068000Y-17375000D03*
G04 #@! TO.P,D46,2*
G04 #@! TO.N,Net-(D46-Pad2)*
X230218000Y-17375000D03*
D11*
X231343000Y-17375000D03*
D13*
X232543000Y-17375000D03*
G04 #@! TD*
D10*
G04 #@! TO.P,D44,1*
G04 #@! TO.N,Net-(D37-Pad1)*
X186643000Y-17375000D03*
D12*
X188968000Y-17375000D03*
D11*
X187843000Y-17375000D03*
G04 #@! TO.P,D44,2*
G04 #@! TO.N,Net-(D44-Pad2)*
X193243000Y-17375000D03*
D13*
X194443000Y-17375000D03*
D12*
X192118000Y-17375000D03*
G04 #@! TD*
G04 #@! TO.P,D6,1*
G04 #@! TO.N,Net-(D1-Pad1)*
X117531000Y20725000D03*
D11*
X116406000Y20725000D03*
D10*
X115206000Y20725000D03*
D11*
G04 #@! TO.P,D6,2*
G04 #@! TO.N,Net-(D6-Pad2)*
X121806000Y20725000D03*
D12*
X120681000Y20725000D03*
D13*
X123006000Y20725000D03*
G04 #@! TD*
D11*
G04 #@! TO.P,D66,1*
G04 #@! TO.N,Net-(D64-Pad1)*
X292619000Y-36425000D03*
D10*
X291419000Y-36425000D03*
D12*
X293744000Y-36425000D03*
D11*
G04 #@! TO.P,D66,2*
G04 #@! TO.N,Net-(D66-Pad2)*
X298019000Y-36425000D03*
D13*
X299219000Y-36425000D03*
D12*
X296894000Y-36425000D03*
G04 #@! TD*
D10*
G04 #@! TO.P,D13,1*
G04 #@! TO.N,Net-(D10-Pad1)*
X248556000Y20725000D03*
D12*
X250881000Y20725000D03*
D11*
X249756000Y20725000D03*
D12*
G04 #@! TO.P,D13,2*
G04 #@! TO.N,Net-(D13-Pad2)*
X254031000Y20725000D03*
D13*
X256356000Y20725000D03*
D11*
X255156000Y20725000D03*
G04 #@! TD*
G04 #@! TO.P,D28,1*
G04 #@! TO.N,Net-(D28-Pad1)*
X202131000Y1675000D03*
D10*
X200931000Y1675000D03*
D12*
X203256000Y1675000D03*
D11*
G04 #@! TO.P,D28,2*
G04 #@! TO.N,Net-(D28-Pad2)*
X207531000Y1675000D03*
D13*
X208731000Y1675000D03*
D12*
X206406000Y1675000D03*
G04 #@! TD*
G04 #@! TO.P,D8,1*
G04 #@! TO.N,Net-(D1-Pad1)*
X155631000Y20725000D03*
D10*
X153306000Y20725000D03*
D11*
X154506000Y20725000D03*
G04 #@! TO.P,D8,2*
G04 #@! TO.N,Net-(D8-Pad2)*
X159906000Y20725000D03*
D12*
X158781000Y20725000D03*
D13*
X161106000Y20725000D03*
G04 #@! TD*
D12*
G04 #@! TO.P,D75,1*
G04 #@! TO.N,Net-(D73-Pad1)*
X291362000Y-55475000D03*
D11*
X290237000Y-55475000D03*
D10*
X289037000Y-55475000D03*
D13*
G04 #@! TO.P,D75,2*
G04 #@! TO.N,Net-(D75-Pad2)*
X296837000Y-55475000D03*
D11*
X295637000Y-55475000D03*
D12*
X294512000Y-55475000D03*
G04 #@! TD*
D10*
G04 #@! TO.P,D70,1*
G04 #@! TO.N,Net-(D64-Pad1)*
X58056200Y-55475000D03*
D12*
X60381200Y-55475000D03*
D11*
X59256200Y-55475000D03*
D12*
G04 #@! TO.P,D70,2*
G04 #@! TO.N,Net-(D70-Pad2)*
X63531200Y-55475000D03*
D13*
X65856200Y-55475000D03*
D11*
X64656200Y-55475000D03*
G04 #@! TD*
D10*
G04 #@! TO.P,D49,1*
G04 #@! TO.N,Net-(D46-Pad1)*
X281893000Y-17375000D03*
D12*
X284218000Y-17375000D03*
D11*
X283093000Y-17375000D03*
G04 #@! TO.P,D49,2*
G04 #@! TO.N,Net-(D49-Pad2)*
X288493000Y-17375000D03*
D13*
X289693000Y-17375000D03*
D12*
X287368000Y-17375000D03*
G04 #@! TD*
G04 #@! TO.P,D76,1*
G04 #@! TO.N,Net-(D73-Pad1)*
X315175000Y-55475000D03*
D11*
X314050000Y-55475000D03*
D10*
X312850000Y-55475000D03*
D11*
G04 #@! TO.P,D76,2*
G04 #@! TO.N,Net-(D76-Pad2)*
X319450000Y-55475000D03*
D12*
X318325000Y-55475000D03*
D13*
X320650000Y-55475000D03*
G04 #@! TD*
D11*
G04 #@! TO.P,D74,1*
G04 #@! TO.N,Net-(D73-Pad1)*
X218800000Y-55475000D03*
D12*
X219925000Y-55475000D03*
D10*
X217600000Y-55475000D03*
D11*
G04 #@! TO.P,D74,2*
G04 #@! TO.N,Net-(D74-Pad2)*
X224200000Y-55475000D03*
D13*
X225400000Y-55475000D03*
D12*
X223075000Y-55475000D03*
G04 #@! TD*
D11*
G04 #@! TO.P,D64,1*
G04 #@! TO.N,Net-(D64-Pad1)*
X254519000Y-36425000D03*
D10*
X253319000Y-36425000D03*
D12*
X255644000Y-36425000D03*
D11*
G04 #@! TO.P,D64,2*
G04 #@! TO.N,Net-(D64-Pad2)*
X259919000Y-36425000D03*
D13*
X261119000Y-36425000D03*
D12*
X258794000Y-36425000D03*
G04 #@! TD*
D11*
G04 #@! TO.P,D9,1*
G04 #@! TO.N,Net-(D1-Pad1)*
X173556000Y20725000D03*
D10*
X172356000Y20725000D03*
D12*
X174681000Y20725000D03*
D11*
G04 #@! TO.P,D9,2*
G04 #@! TO.N,Net-(D9-Pad2)*
X178956000Y20725000D03*
D13*
X180156000Y20725000D03*
D12*
X177831000Y20725000D03*
G04 #@! TD*
D10*
G04 #@! TO.P,D31,1*
G04 #@! TO.N,Net-(D28-Pad1)*
X258081000Y1675000D03*
D11*
X259281000Y1675000D03*
D12*
X260406000Y1675000D03*
D11*
G04 #@! TO.P,D31,2*
G04 #@! TO.N,Net-(D31-Pad2)*
X264681000Y1675000D03*
D12*
X263556000Y1675000D03*
D13*
X265881000Y1675000D03*
G04 #@! TD*
D12*
G04 #@! TO.P,D32,1*
G04 #@! TO.N,Net-(D28-Pad1)*
X279456000Y1675000D03*
D11*
X278331000Y1675000D03*
D10*
X277131000Y1675000D03*
D12*
G04 #@! TO.P,D32,2*
G04 #@! TO.N,Net-(D32-Pad2)*
X282606000Y1675000D03*
D11*
X283731000Y1675000D03*
D13*
X284931000Y1675000D03*
G04 #@! TD*
D12*
G04 #@! TO.P,D17,1*
G04 #@! TO.N,Net-(D10-Pad1)*
X327081000Y20725000D03*
D10*
X324756000Y20725000D03*
D11*
X325956000Y20725000D03*
D12*
G04 #@! TO.P,D17,2*
G04 #@! TO.N,Net-(D17-Pad2)*
X330231000Y20725000D03*
D13*
X332556000Y20725000D03*
D11*
X331356000Y20725000D03*
G04 #@! TD*
D12*
G04 #@! TO.P,D23,1*
G04 #@! TO.N,Net-(D19-Pad1)*
X103244000Y1675000D03*
D11*
X102119000Y1675000D03*
D10*
X100919000Y1675000D03*
D13*
G04 #@! TO.P,D23,2*
G04 #@! TO.N,Net-(D23-Pad2)*
X108719000Y1675000D03*
D12*
X106394000Y1675000D03*
D11*
X107519000Y1675000D03*
G04 #@! TD*
D10*
G04 #@! TO.P,D56,1*
G04 #@! TO.N,Net-(D55-Pad1)*
X71481200Y-59375000D03*
D14*
X71481200Y-58175000D03*
D12*
X71481200Y-57050000D03*
D13*
G04 #@! TO.P,D56,2*
G04 #@! TO.N,Net-(D56-Pad2)*
X71481200Y-51575000D03*
D12*
X71481200Y-53900000D03*
D14*
X71481200Y-52775000D03*
G04 #@! TD*
D11*
G04 #@! TO.P,D40,1*
G04 #@! TO.N,Net-(D37-Pad1)*
X104500000Y-17375000D03*
D10*
X103300000Y-17375000D03*
D12*
X105625000Y-17375000D03*
G04 #@! TO.P,D40,2*
G04 #@! TO.N,Net-(D40-Pad2)*
X108775000Y-17375000D03*
D13*
X111100000Y-17375000D03*
D11*
X109900000Y-17375000D03*
G04 #@! TD*
D10*
G04 #@! TO.P,D69,1*
G04 #@! TO.N,Net-(D64-Pad1)*
X29481200Y-55475000D03*
D12*
X31806200Y-55475000D03*
D11*
X30681200Y-55475000D03*
D13*
G04 #@! TO.P,D69,2*
G04 #@! TO.N,Net-(D69-Pad2)*
X37281200Y-55475000D03*
D11*
X36081200Y-55475000D03*
D12*
X34956200Y-55475000D03*
G04 #@! TD*
G04 #@! TO.P,D20,1*
G04 #@! TO.N,Net-(D19-Pad1)*
X41331200Y1675000D03*
D11*
X40206200Y1675000D03*
D10*
X39006200Y1675000D03*
D12*
G04 #@! TO.P,D20,2*
G04 #@! TO.N,Net-(D20-Pad2)*
X44481200Y1675000D03*
D13*
X46806200Y1675000D03*
D11*
X45606200Y1675000D03*
G04 #@! TD*
D12*
G04 #@! TO.P,D34,1*
G04 #@! TO.N,Net-(D28-Pad1)*
X317556000Y1675000D03*
D10*
X315231000Y1675000D03*
D11*
X316431000Y1675000D03*
D13*
G04 #@! TO.P,D34,2*
G04 #@! TO.N,Net-(D34-Pad2)*
X323031000Y1675000D03*
D11*
X321831000Y1675000D03*
D12*
X320706000Y1675000D03*
G04 #@! TD*
G04 #@! TO.P,D58,1*
G04 #@! TO.N,Net-(D55-Pad1)*
X141344000Y-36425000D03*
D11*
X140219000Y-36425000D03*
D10*
X139019000Y-36425000D03*
D11*
G04 #@! TO.P,D58,2*
G04 #@! TO.N,Net-(D58-Pad2)*
X145619000Y-36425000D03*
D12*
X144494000Y-36425000D03*
D13*
X146819000Y-36425000D03*
G04 #@! TD*
D12*
G04 #@! TO.P,D12,1*
G04 #@! TO.N,Net-(D10-Pad1)*
X231831000Y20725000D03*
D10*
X229506000Y20725000D03*
D11*
X230706000Y20725000D03*
D13*
G04 #@! TO.P,D12,2*
G04 #@! TO.N,Net-(D12-Pad2)*
X237306000Y20725000D03*
D12*
X234981000Y20725000D03*
D11*
X236106000Y20725000D03*
G04 #@! TD*
G04 #@! TO.P,D38,1*
G04 #@! TO.N,Net-(D37-Pad1)*
X40206200Y-17375000D03*
D12*
X41331200Y-17375000D03*
D10*
X39006200Y-17375000D03*
D12*
G04 #@! TO.P,D38,2*
G04 #@! TO.N,Net-(D38-Pad2)*
X44481200Y-17375000D03*
D11*
X45606200Y-17375000D03*
D13*
X46806200Y-17375000D03*
G04 #@! TD*
D12*
G04 #@! TO.P,D18,1*
G04 #@! TO.N,Net-(D10-Pad1)*
X355656000Y20725000D03*
D10*
X353331000Y20725000D03*
D11*
X354531000Y20725000D03*
D13*
G04 #@! TO.P,D18,2*
G04 #@! TO.N,Net-(D18-Pad2)*
X361131000Y20725000D03*
D11*
X359931000Y20725000D03*
D12*
X358806000Y20725000D03*
G04 #@! TD*
D10*
G04 #@! TO.P,D68,1*
G04 #@! TO.N,Net-(D64-Pad1)*
X348569000Y-36425000D03*
D12*
X350894000Y-36425000D03*
D11*
X349769000Y-36425000D03*
D13*
G04 #@! TO.P,D68,2*
G04 #@! TO.N,Net-(D68-Pad2)*
X356369000Y-36425000D03*
D12*
X354044000Y-36425000D03*
D11*
X355169000Y-36425000D03*
G04 #@! TD*
D12*
G04 #@! TO.P,D14,1*
G04 #@! TO.N,Net-(D10-Pad1)*
X269931000Y20725000D03*
D11*
X268806000Y20725000D03*
D10*
X267606000Y20725000D03*
D12*
G04 #@! TO.P,D14,2*
G04 #@! TO.N,Net-(D14-Pad2)*
X273081000Y20725000D03*
D13*
X275406000Y20725000D03*
D11*
X274206000Y20725000D03*
G04 #@! TD*
D10*
G04 #@! TO.P,D65,1*
G04 #@! TO.N,Net-(D64-Pad1)*
X272369000Y-36425000D03*
D11*
X273569000Y-36425000D03*
D12*
X274694000Y-36425000D03*
D13*
G04 #@! TO.P,D65,2*
G04 #@! TO.N,Net-(D65-Pad2)*
X280169000Y-36425000D03*
D12*
X277844000Y-36425000D03*
D11*
X278969000Y-36425000D03*
G04 #@! TD*
D12*
G04 #@! TO.P,D37,1*
G04 #@! TO.N,Net-(D37-Pad1)*
X22281200Y-17375000D03*
D10*
X19956200Y-17375000D03*
D11*
X21156200Y-17375000D03*
D13*
G04 #@! TO.P,D37,2*
G04 #@! TO.N,Net-(D37-Pad2)*
X27756200Y-17375000D03*
D12*
X25431200Y-17375000D03*
D11*
X26556200Y-17375000D03*
G04 #@! TD*
D12*
G04 #@! TO.P,D52,1*
G04 #@! TO.N,Net-(D46-Pad1)*
X353275000Y-17375000D03*
D10*
X350950000Y-17375000D03*
D11*
X352150000Y-17375000D03*
D13*
G04 #@! TO.P,D52,2*
G04 #@! TO.N,Net-(D52-Pad2)*
X358750000Y-17375000D03*
D11*
X357550000Y-17375000D03*
D12*
X356425000Y-17375000D03*
G04 #@! TD*
G04 #@! TO.P,D61,1*
G04 #@! TO.N,Net-(D55-Pad1)*
X198494000Y-36425000D03*
D10*
X196169000Y-36425000D03*
D11*
X197369000Y-36425000D03*
D12*
G04 #@! TO.P,D61,2*
G04 #@! TO.N,Net-(D61-Pad2)*
X201644000Y-36425000D03*
D13*
X203969000Y-36425000D03*
D11*
X202769000Y-36425000D03*
G04 #@! TD*
G04 #@! TO.P,D62,1*
G04 #@! TO.N,Net-(D55-Pad1)*
X216419000Y-36425000D03*
D12*
X217544000Y-36425000D03*
D10*
X215219000Y-36425000D03*
D11*
G04 #@! TO.P,D62,2*
G04 #@! TO.N,Net-(D62-Pad2)*
X221819000Y-36425000D03*
D12*
X220694000Y-36425000D03*
D13*
X223019000Y-36425000D03*
G04 #@! TD*
D11*
G04 #@! TO.P,D36,1*
G04 #@! TO.N,Net-(D28-Pad1)*
X356912000Y1675000D03*
D10*
X355712000Y1675000D03*
D12*
X358037000Y1675000D03*
D11*
G04 #@! TO.P,D36,2*
G04 #@! TO.N,Net-(D36-Pad2)*
X362312000Y1675000D03*
D12*
X361187000Y1675000D03*
D13*
X363512000Y1675000D03*
G04 #@! TD*
D12*
G04 #@! TO.P,D67,1*
G04 #@! TO.N,Net-(D64-Pad1)*
X312794000Y-36425000D03*
D10*
X310469000Y-36425000D03*
D11*
X311669000Y-36425000D03*
G04 #@! TO.P,D67,2*
G04 #@! TO.N,Net-(D67-Pad2)*
X317069000Y-36425000D03*
D12*
X315944000Y-36425000D03*
D13*
X318269000Y-36425000D03*
G04 #@! TD*
D14*
G04 #@! TO.P,D15,1*
G04 #@! TO.N,Net-(D10-Pad1)*
X300081000Y8500000D03*
D10*
X300081000Y7300000D03*
D12*
X300081000Y9625000D03*
G04 #@! TO.P,D15,2*
G04 #@! TO.N,Net-(D15-Pad2)*
X300081000Y12775000D03*
D14*
X300081000Y13900000D03*
D13*
X300081000Y15100000D03*
G04 #@! TD*
D10*
G04 #@! TO.P,D47,1*
G04 #@! TO.N,Net-(D46-Pad1)*
X243793000Y-17375000D03*
D12*
X246118000Y-17375000D03*
D11*
X244993000Y-17375000D03*
D12*
G04 #@! TO.P,D47,2*
G04 #@! TO.N,Net-(D47-Pad2)*
X249268000Y-17375000D03*
D11*
X250393000Y-17375000D03*
D13*
X251593000Y-17375000D03*
G04 #@! TD*
D10*
G04 #@! TO.P,D57,1*
G04 #@! TO.N,Net-(D55-Pad1)*
X108062000Y-36425000D03*
D12*
X110387000Y-36425000D03*
D11*
X109262000Y-36425000D03*
D13*
G04 #@! TO.P,D57,2*
G04 #@! TO.N,Net-(D57-Pad2)*
X115862000Y-36425000D03*
D11*
X114662000Y-36425000D03*
D12*
X113537000Y-36425000D03*
G04 #@! TD*
D11*
G04 #@! TO.P,D19,1*
G04 #@! TO.N,Net-(D19-Pad1)*
X21156200Y1675000D03*
D10*
X19956200Y1675000D03*
D12*
X22281200Y1675000D03*
G04 #@! TO.P,D19,2*
G04 #@! TO.N,Net-(D19-Pad2)*
X25431200Y1675000D03*
D13*
X27756200Y1675000D03*
D11*
X26556200Y1675000D03*
G04 #@! TD*
D10*
G04 #@! TO.P,D54,1*
G04 #@! TO.N,Net-(D46-Pad1)*
X39006200Y-36425000D03*
D12*
X41331200Y-36425000D03*
D11*
X40206200Y-36425000D03*
D13*
G04 #@! TO.P,D54,2*
G04 #@! TO.N,Net-(D54-Pad2)*
X46806200Y-36425000D03*
D11*
X45606200Y-36425000D03*
D12*
X44481200Y-36425000D03*
G04 #@! TD*
D14*
G04 #@! TO.P,D10,1*
G04 #@! TO.N,Net-(D10-Pad1)*
X204831000Y8500000D03*
D10*
X204831000Y7300000D03*
D12*
X204831000Y9625000D03*
G04 #@! TO.P,D10,2*
G04 #@! TO.N,Net-(D10-Pad2)*
X204831000Y12775000D03*
D14*
X204831000Y13900000D03*
D13*
X204831000Y15100000D03*
G04 #@! TD*
D10*
G04 #@! TO.P,D22,1*
G04 #@! TO.N,Net-(D19-Pad1)*
X71481200Y-21275000D03*
D14*
X71481200Y-20075000D03*
D12*
X71481200Y-18950000D03*
D14*
G04 #@! TO.P,D22,2*
G04 #@! TO.N,Net-(D22-Pad2)*
X71481200Y-14675000D03*
D13*
X71481200Y-13475000D03*
D12*
X71481200Y-15800000D03*
G04 #@! TD*
D11*
G04 #@! TO.P,D16,1*
G04 #@! TO.N,Net-(D10-Pad1)*
X306906000Y20725000D03*
D12*
X308031000Y20725000D03*
D10*
X305706000Y20725000D03*
D12*
G04 #@! TO.P,D16,2*
G04 #@! TO.N,Net-(D16-Pad2)*
X311181000Y20725000D03*
D13*
X313506000Y20725000D03*
D11*
X312306000Y20725000D03*
G04 #@! TD*
D12*
G04 #@! TO.P,D45,1*
G04 #@! TO.N,Net-(D37-Pad1)*
X208018000Y-17375000D03*
D10*
X205693000Y-17375000D03*
D11*
X206893000Y-17375000D03*
D12*
G04 #@! TO.P,D45,2*
G04 #@! TO.N,Net-(D45-Pad2)*
X211168000Y-17375000D03*
D13*
X213493000Y-17375000D03*
D11*
X212293000Y-17375000D03*
G04 #@! TD*
D10*
G04 #@! TO.P,D77,1*
G04 #@! TO.N,Net-(D73-Pad1)*
X351606000Y-55475000D03*
D12*
X349281000Y-55475000D03*
D11*
X350406000Y-55475000D03*
D13*
G04 #@! TO.P,D77,2*
G04 #@! TO.N,Net-(D77-Pad2)*
X343806000Y-55475000D03*
D12*
X346131000Y-55475000D03*
D11*
X345006000Y-55475000D03*
G04 #@! TD*
D14*
G04 #@! TO.P,D78,1*
G04 #@! TO.N,Net-(D73-Pad1)*
X373900000Y-67700000D03*
D10*
X373900000Y-68900000D03*
D12*
X373900000Y-66575000D03*
G04 #@! TO.P,D78,2*
G04 #@! TO.N,Net-(D78-Pad2)*
X373900000Y-63425000D03*
D13*
X373900000Y-61100000D03*
D14*
X373900000Y-62300000D03*
G04 #@! TD*
D10*
G04 #@! TO.P,D71,1*
G04 #@! TO.N,Net-(D64-Pad1)*
X113481000Y-55475000D03*
D11*
X112281000Y-55475000D03*
D12*
X111156000Y-55475000D03*
G04 #@! TO.P,D71,2*
G04 #@! TO.N,Net-(D71-Pad2)*
X108006000Y-55475000D03*
D13*
X105681000Y-55475000D03*
D11*
X106881000Y-55475000D03*
G04 #@! TD*
D12*
G04 #@! TO.P,D25,1*
G04 #@! TO.N,Net-(D19-Pad1)*
X146106000Y1675000D03*
D11*
X144981000Y1675000D03*
D10*
X143781000Y1675000D03*
D12*
G04 #@! TO.P,D25,2*
G04 #@! TO.N,Net-(D25-Pad2)*
X149256000Y1675000D03*
D13*
X151581000Y1675000D03*
D11*
X150381000Y1675000D03*
G04 #@! TD*
D10*
G04 #@! TO.P,D3,1*
G04 #@! TO.N,Net-(D1-Pad1)*
X58056200Y20725000D03*
D11*
X59256200Y20725000D03*
D12*
X60381200Y20725000D03*
D13*
G04 #@! TO.P,D3,2*
G04 #@! TO.N,Net-(D3-Pad2)*
X65856200Y20725000D03*
D12*
X63531200Y20725000D03*
D11*
X64656200Y20725000D03*
G04 #@! TD*
G04 #@! TO.P,D4,1*
G04 #@! TO.N,Net-(D1-Pad1)*
X78306200Y20725000D03*
D12*
X79431200Y20725000D03*
D10*
X77106200Y20725000D03*
D13*
G04 #@! TO.P,D4,2*
G04 #@! TO.N,Net-(D4-Pad2)*
X84906200Y20725000D03*
D12*
X82581200Y20725000D03*
D11*
X83706200Y20725000D03*
G04 #@! TD*
D10*
G04 #@! TO.P,D42,1*
G04 #@! TO.N,Net-(D37-Pad1)*
X148543000Y-17375000D03*
D12*
X150868000Y-17375000D03*
D11*
X149743000Y-17375000D03*
G04 #@! TO.P,D42,2*
G04 #@! TO.N,Net-(D42-Pad2)*
X155143000Y-17375000D03*
D13*
X156343000Y-17375000D03*
D12*
X154018000Y-17375000D03*
G04 #@! TD*
D11*
G04 #@! TO.P,D60,1*
G04 #@! TO.N,Net-(D55-Pad1)*
X178319000Y-36425000D03*
D10*
X177119000Y-36425000D03*
D12*
X179444000Y-36425000D03*
D11*
G04 #@! TO.P,D60,2*
G04 #@! TO.N,Net-(D60-Pad2)*
X183719000Y-36425000D03*
D12*
X182594000Y-36425000D03*
D13*
X184919000Y-36425000D03*
G04 #@! TD*
D11*
G04 #@! TO.P,D26,1*
G04 #@! TO.N,Net-(D19-Pad1)*
X164031000Y1675000D03*
D12*
X165156000Y1675000D03*
D10*
X162831000Y1675000D03*
D11*
G04 #@! TO.P,D26,2*
G04 #@! TO.N,Net-(D26-Pad2)*
X169431000Y1675000D03*
D12*
X168306000Y1675000D03*
D13*
X170631000Y1675000D03*
G04 #@! TD*
D10*
G04 #@! TO.P,D53,1*
G04 #@! TO.N,Net-(D46-Pad1)*
X19956200Y-36425000D03*
D11*
X21156200Y-36425000D03*
D12*
X22281200Y-36425000D03*
G04 #@! TO.P,D53,2*
G04 #@! TO.N,Net-(D53-Pad2)*
X25431200Y-36425000D03*
D13*
X27756200Y-36425000D03*
D11*
X26556200Y-36425000D03*
G04 #@! TD*
G04 #@! TO.P,D21,1*
G04 #@! TO.N,Net-(D19-Pad1)*
X59256200Y1675000D03*
D10*
X58056200Y1675000D03*
D12*
X60381200Y1675000D03*
D13*
G04 #@! TO.P,D21,2*
G04 #@! TO.N,Net-(D21-Pad2)*
X65856200Y1675000D03*
D12*
X63531200Y1675000D03*
D11*
X64656200Y1675000D03*
G04 #@! TD*
G04 #@! TO.P,D50,1*
G04 #@! TO.N,Net-(D46-Pad1)*
X302143000Y-17375000D03*
D12*
X303268000Y-17375000D03*
D10*
X300943000Y-17375000D03*
D12*
G04 #@! TO.P,D50,2*
G04 #@! TO.N,Net-(D50-Pad2)*
X306418000Y-17375000D03*
D13*
X308743000Y-17375000D03*
D11*
X307543000Y-17375000D03*
G04 #@! TD*
G04 #@! TO.P,D2,1*
G04 #@! TO.N,Net-(D1-Pad1)*
X40206200Y20725000D03*
D10*
X39006200Y20725000D03*
D12*
X41331200Y20725000D03*
G04 #@! TO.P,D2,2*
G04 #@! TO.N,Net-(D2-Pad2)*
X44481200Y20725000D03*
D11*
X45606200Y20725000D03*
D13*
X46806200Y20725000D03*
G04 #@! TD*
D11*
G04 #@! TO.P,D39,1*
G04 #@! TO.N,Net-(D37-Pad1)*
X59256200Y-17375000D03*
D12*
X60381200Y-17375000D03*
D10*
X58056200Y-17375000D03*
D12*
G04 #@! TO.P,D39,2*
G04 #@! TO.N,Net-(D39-Pad2)*
X63531200Y-17375000D03*
D13*
X65856200Y-17375000D03*
D11*
X64656200Y-17375000D03*
G04 #@! TD*
D10*
G04 #@! TO.P,D72,1*
G04 #@! TO.N,Net-(D64-Pad1)*
X137293000Y-55475000D03*
D11*
X136093000Y-55475000D03*
D12*
X134968000Y-55475000D03*
G04 #@! TO.P,D72,2*
G04 #@! TO.N,Net-(D72-Pad2)*
X131818000Y-55475000D03*
D13*
X129493000Y-55475000D03*
D11*
X130693000Y-55475000D03*
G04 #@! TD*
D12*
G04 #@! TO.P,D48,1*
G04 #@! TO.N,Net-(D46-Pad1)*
X265168000Y-17375000D03*
D10*
X262843000Y-17375000D03*
D11*
X264043000Y-17375000D03*
D13*
G04 #@! TO.P,D48,2*
G04 #@! TO.N,Net-(D48-Pad2)*
X270643000Y-17375000D03*
D11*
X269443000Y-17375000D03*
D12*
X268318000Y-17375000D03*
G04 #@! TD*
D10*
G04 #@! TO.P,D7,1*
G04 #@! TO.N,Net-(D1-Pad1)*
X134256000Y20725000D03*
D11*
X135456000Y20725000D03*
D12*
X136581000Y20725000D03*
D11*
G04 #@! TO.P,D7,2*
G04 #@! TO.N,Net-(D7-Pad2)*
X140856000Y20725000D03*
D13*
X142056000Y20725000D03*
D12*
X139731000Y20725000D03*
G04 #@! TD*
D10*
G04 #@! TO.P,U1,1*
G04 #@! TO.N,Net-(D1-Pad1)*
X50800000Y23457600D03*
D13*
G04 #@! TO.P,U1,2*
G04 #@! TO.N,Net-(D10-Pad1)*
X50800000Y20917600D03*
G04 #@! TO.P,U1,3*
G04 #@! TO.N,N/C*
X50800000Y18377600D03*
G04 #@! TO.P,U1,4*
X50800000Y15837600D03*
G04 #@! TO.P,U1,5*
G04 #@! TO.N,Net-(D19-Pad1)*
X50800000Y13297600D03*
G04 #@! TO.P,U1,6*
G04 #@! TO.N,Net-(D28-Pad1)*
X50800000Y10757600D03*
G04 #@! TO.P,U1,7*
G04 #@! TO.N,Net-(D37-Pad1)*
X50800000Y8217600D03*
G04 #@! TO.P,U1,8*
G04 #@! TO.N,Net-(D46-Pad1)*
X50800000Y5677600D03*
G04 #@! TO.P,U1,9*
G04 #@! TO.N,Net-(D55-Pad1)*
X50800000Y3137600D03*
G04 #@! TO.P,U1,10*
G04 #@! TO.N,Net-(D64-Pad1)*
X50800000Y597600D03*
G04 #@! TO.P,U1,11*
G04 #@! TO.N,Net-(D73-Pad1)*
X50800000Y-1942400D03*
G04 #@! TO.P,U1,12*
G04 #@! TO.N,Net-(K1-Pad1)*
X50800000Y-4482400D03*
G04 #@! TO.P,U1,13*
G04 #@! TO.N,Net-(K18-Pad1)*
X35560000Y-4482400D03*
G04 #@! TO.P,U1,14*
G04 #@! TO.N,Net-(K17-Pad1)*
X35560000Y-1942400D03*
G04 #@! TO.P,U1,15*
G04 #@! TO.N,Net-(K16-Pad1)*
X35560000Y597600D03*
G04 #@! TO.P,U1,16*
G04 #@! TO.N,Net-(K15-Pad1)*
X35560000Y3137600D03*
G04 #@! TO.P,U1,17*
G04 #@! TO.N,Net-(K14-Pad1)*
X35560000Y5677600D03*
G04 #@! TO.P,U1,18*
G04 #@! TO.N,Net-(K13-Pad1)*
X35560000Y8217600D03*
G04 #@! TO.P,U1,19*
G04 #@! TO.N,Net-(K12-Pad1)*
X35560000Y10757600D03*
G04 #@! TO.P,U1,20*
G04 #@! TO.N,Net-(K11-Pad1)*
X35560000Y13297600D03*
G04 #@! TO.P,U1,21*
G04 #@! TO.N,N/C*
X35560000Y15837600D03*
G04 #@! TO.P,U1,22*
G04 #@! TO.N,Net-(SW1-Pad2)*
X35560000Y18377600D03*
G04 #@! TO.P,U1,23*
G04 #@! TO.N,Net-(SW1-Pad1)*
X35560000Y20917600D03*
G04 #@! TO.P,U1,24*
G04 #@! TO.N,N/C*
X35560000Y23457600D03*
G04 #@! TD*
D15*
G04 #@! TO.N,Net-(K15-Pad1)*
X170180000Y-44450000D03*
X123825000Y-50165000D03*
G04 #@! TO.N,Net-(K16-Pad1)*
X32385000Y4445000D03*
X89535000Y16510000D03*
X95885000Y19685000D03*
X102870000Y19685000D03*
G04 #@! TO.N,Net-(D46-Pad1)*
X59055000Y13335000D03*
X71120000Y-6985000D03*
X51435000Y-8255000D03*
G04 #@! TO.N,Net-(D37-Pad1)*
X136525000Y-11430000D03*
G04 #@! TO.N,Net-(D64-Pad1)*
X55126040Y-35678960D03*
G04 #@! TO.N,Net-(D46-Pad1)*
X359410000Y-31750000D03*
X53340000Y13335000D03*
X48895000Y12065000D03*
G04 #@! TO.N,Net-(D37-Pad1)*
X55880000Y3175000D03*
G04 #@! TO.N,Net-(K13-Pad1)*
X83125111Y575111D03*
X43180000Y3810000D03*
G04 #@! TO.N,Net-(D28-Pad1)*
X53302600Y10757600D03*
G04 #@! TO.N,Net-(K14-Pad1)*
X41910000Y-15240000D03*
X84455000Y-6985000D03*
G04 #@! TO.N,Net-(D73-Pad1)*
X95250000Y-20955000D03*
X93345000Y-3175000D03*
X98742500Y-30162500D03*
G04 #@! TO.N,Net-(K1-Pad1)*
X48895000Y-33655000D03*
G04 #@! TO.N,Net-(K16-Pad1)*
X54610000Y-59055000D03*
G04 #@! TO.N,Net-(K1-Pad1)*
X17145000Y-29845000D03*
G04 #@! TO.N,Net-(SW1-Pad1)*
X72390000Y18415000D03*
G04 #@! TO.N,Net-(K12-Pad1)*
X232410000Y-6350000D03*
X118110000Y-30480000D03*
G04 #@! TO.N,Net-(K13-Pad1)*
X307284000Y-48316000D03*
X226695000Y-48895000D03*
G04 #@! TO.N,Net-(K14-Pad1)*
X297815000Y-27305000D03*
X143799500Y-30825500D03*
G04 #@! TO.N,Net-(K16-Pad1)*
X155229000Y-13681000D03*
X317142992Y-12422008D03*
G04 #@! TO.N,Net-(K17-Pad1)*
X331470000Y-10795000D03*
X200949500Y-30825500D03*
G04 #@! TO.N,Net-(K15-Pad1)*
X321111491Y-30678509D03*
X165072000Y-33048000D03*
G04 #@! TO.N,Net-(K1-Pad1)*
X250190000Y-52705000D03*
X227330000Y-52705000D03*
G04 #@! TO.N,Net-(D55-Pad1)*
X123825000Y-44450000D03*
G04 #@! TO.N,Net-(K18-Pad1)*
X45720000Y-67310000D03*
X48349511Y-71665489D03*
G04 #@! TO.N,Net-(K11-Pad1)*
X75923100Y-65128100D03*
X80010000Y-72390000D03*
G04 #@! TO.N,Net-(K18-Pad1)*
X231140000Y-50165000D03*
X357505000Y-50165000D03*
G04 #@! TO.N,Net-(K17-Pad1)*
X95885000Y-52705000D03*
X160020000Y-7620000D03*
G04 #@! TO.N,Net-(K12-Pad1)*
X39370000Y13970000D03*
G04 #@! TD*
D16*
G04 #@! TO.N,Net-(K15-Pad1)*
X123825000Y-50165000D02*
X141839989Y-50165000D01*
X163018972Y-41784989D02*
X165683983Y-44450000D01*
X150220000Y-41784989D02*
X163018972Y-41784989D01*
X165683983Y-44450000D02*
X170180000Y-44450000D01*
X141839989Y-50165000D02*
X150220000Y-41784989D01*
G04 #@! TO.N,Net-(K16-Pad1)*
X34925000Y6985000D02*
X32385000Y4445000D01*
X38100000Y6985000D02*
X34925000Y6985000D01*
X38100000Y9529789D02*
X38100000Y6985000D01*
X89535000Y16510000D02*
X89082889Y16962111D01*
X89082889Y16962111D02*
X49982111Y16962111D01*
X41889122Y13318911D02*
X38100000Y9529789D01*
X49982111Y16962111D02*
X46338911Y13318911D01*
X46338911Y13318911D02*
X41889122Y13318911D01*
X102870000Y19685000D02*
X95885000Y19685000D01*
G04 #@! TO.N,Net-(D46-Pad1)*
X59055000Y13335000D02*
X94245983Y13335000D01*
X52030011Y-8850011D02*
X57820200Y-8850011D01*
X51435000Y-8255000D02*
X52030011Y-8850011D01*
X69866089Y-5731089D02*
X71120000Y-6985000D01*
X60939122Y-5731089D02*
X69866089Y-5731089D01*
X57820200Y-8850011D02*
X60939122Y-5731089D01*
X19956200Y-36425000D02*
X21080711Y-35300489D01*
X21080711Y-35300489D02*
X37881689Y-35300489D01*
X37881689Y-35300489D02*
X39006200Y-36425000D01*
G04 #@! TO.N,Net-(D37-Pad1)*
X131818000Y-16137000D02*
X136525000Y-11430000D01*
X131818000Y-17375000D02*
X131818000Y-16137000D01*
X186643000Y-17375000D02*
X187767511Y-16250489D01*
X187767511Y-16250489D02*
X204568489Y-16250489D01*
X204568489Y-16250489D02*
X205693000Y-17375000D01*
X167593000Y-17375000D02*
X168717511Y-16250489D01*
X168717511Y-16250489D02*
X185518489Y-16250489D01*
X185518489Y-16250489D02*
X186643000Y-17375000D01*
X150868000Y-17375000D02*
X151992511Y-16250489D01*
X166468489Y-16250489D02*
X167593000Y-17375000D01*
X151992511Y-16250489D02*
X166468489Y-16250489D01*
X103300000Y-17375000D02*
X104424511Y-16250489D01*
X104424511Y-16250489D02*
X128368489Y-16250489D01*
X128368489Y-16250489D02*
X129493000Y-17375000D01*
G04 #@! TO.N,Net-(D64-Pad1)*
X55126040Y-35678960D02*
X55126040Y-52544840D01*
X55126040Y-52544840D02*
X58056200Y-55475000D01*
G04 #@! TO.N,Net-(D46-Pad1)*
X53340000Y13335000D02*
X59055000Y13335000D01*
X368437011Y-1585734D02*
X368437011Y-25898706D01*
X97026006Y12114989D02*
X98246017Y13335000D01*
X98246017Y13335000D02*
X107236880Y13335000D01*
X107236880Y13335000D02*
X108721391Y11850489D01*
X362585717Y-31750000D02*
X359410000Y-31750000D01*
X95465994Y12114989D02*
X97026006Y12114989D01*
X116777667Y5513431D02*
X361337846Y5513431D01*
X368437011Y-25898706D02*
X362585717Y-31750000D01*
X94245983Y13335000D02*
X95465994Y12114989D01*
X110440609Y11850489D02*
X116777667Y5513431D01*
X108721391Y11850489D02*
X110440609Y11850489D01*
X361337846Y5513431D02*
X368437011Y-1585734D01*
X46355000Y9525000D02*
X48895000Y12065000D01*
X48563583Y5677600D02*
X46355000Y7886183D01*
X50800000Y5677600D02*
X48563583Y5677600D01*
X46355000Y7886183D02*
X46355000Y9525000D01*
G04 #@! TO.N,Net-(D37-Pad1)*
X55880000Y3175000D02*
X55879282Y3175000D01*
X55879282Y3175000D02*
X51474991Y7579291D01*
X51474991Y7579291D02*
X51438309Y7579291D01*
X51438309Y7579291D02*
X50800000Y8217600D01*
G04 #@! TO.N,Net-(D19-Pad1)*
X53161200Y7620000D02*
X52070000Y7620000D01*
X51924511Y7765489D02*
X51924511Y12173089D01*
X58056200Y2725000D02*
X53161200Y7620000D01*
X58056200Y1675000D02*
X58056200Y2725000D01*
X52070000Y7620000D02*
X51924511Y7765489D01*
X51924511Y12173089D02*
X50800000Y13297600D01*
G04 #@! TO.N,Net-(K13-Pad1)*
X80645000Y635000D02*
X83065222Y635000D01*
X83065222Y635000D02*
X83125111Y575111D01*
X43632111Y4262111D02*
X53284969Y4262111D01*
X43180000Y3810000D02*
X43632111Y4262111D01*
X80560489Y550489D02*
X80645000Y635000D01*
X56996591Y550489D02*
X80560489Y550489D01*
X53284969Y4262111D02*
X56996591Y550489D01*
G04 #@! TO.N,Net-(D10-Pad1)*
X204831000Y9625000D02*
X201137089Y13318911D01*
X201137089Y13318911D02*
X194322106Y13318911D01*
X194322106Y13318911D02*
X189573783Y18067234D01*
X189573783Y18067234D02*
X73114511Y18067234D01*
X73114511Y18067234D02*
X72737766Y17690489D01*
X72737766Y17690489D02*
X54027111Y17690489D01*
X54027111Y17690489D02*
X50800000Y20917600D01*
G04 #@! TO.N,Net-(D28-Pad1)*
X53302600Y10757600D02*
X54979111Y9081089D01*
X54979111Y9081089D02*
X63782272Y9081089D01*
X63782272Y9081089D02*
X64986194Y10285011D01*
X64986194Y10285011D02*
X66471172Y10285011D01*
X66471172Y10285011D02*
X73507152Y3249031D01*
X73507152Y3249031D02*
X199356969Y3249031D01*
X199356969Y3249031D02*
X200931000Y1675000D01*
G04 #@! TO.N,Net-(K14-Pad1)*
X43815000Y-15240000D02*
X41910000Y-15240000D01*
X45085000Y-13970000D02*
X43815000Y-15240000D01*
X76306923Y-6985000D02*
X69321923Y-13970000D01*
X69321923Y-13970000D02*
X45085000Y-13970000D01*
X84455000Y-6985000D02*
X76306923Y-6985000D01*
G04 #@! TO.N,Net-(D73-Pad1)*
X61263583Y-1942400D02*
X63716194Y-4395011D01*
X73842663Y-3175000D02*
X93345000Y-3175000D01*
X50800000Y-1942400D02*
X61263583Y-1942400D01*
X72622652Y-4395011D02*
X73842663Y-3175000D01*
X63716194Y-4395011D02*
X72622652Y-4395011D01*
X95250000Y-26670000D02*
X95250000Y-20955000D01*
X98742500Y-30162500D02*
X95250000Y-26670000D01*
G04 #@! TO.N,Net-(K1-Pad1)*
X48895000Y-33655000D02*
X28116030Y-33655000D01*
X28116030Y-33655000D02*
X24306030Y-29845000D01*
G04 #@! TO.N,Net-(K16-Pad1)*
X36559737Y-69215000D02*
X46719737Y-59055000D01*
X46719737Y-59055000D02*
X54610000Y-59055000D01*
X30202663Y-69215000D02*
X36559737Y-69215000D01*
X21671211Y-24048789D02*
X21671211Y-25485006D01*
X28295966Y-18499511D02*
X27220489Y-18499511D01*
X36684511Y-10110966D02*
X28295966Y-18499511D01*
X35560000Y597600D02*
X36684511Y-526911D01*
X27220489Y-18499511D02*
X21671211Y-24048789D01*
X16420489Y-29497234D02*
X16420489Y-55432826D01*
X19256206Y-27900011D02*
X18017712Y-27900011D01*
X16420489Y-55432826D02*
X30202663Y-69215000D01*
X18017712Y-27900011D02*
X16420489Y-29497234D01*
X36684511Y-526911D02*
X36684511Y-10110966D01*
X21671211Y-25485006D02*
X19256206Y-27900011D01*
G04 #@! TO.N,Net-(K1-Pad1)*
X49668630Y-4482400D02*
X24306030Y-29845000D01*
X50800000Y-4482400D02*
X49668630Y-4482400D01*
X24306030Y-29845000D02*
X17145000Y-29845000D01*
G04 #@! TO.N,Net-(D19-Pad1)*
X21080711Y2799511D02*
X34233812Y2799511D01*
X19956200Y1675000D02*
X21080711Y2799511D01*
X34233812Y2799511D02*
X35128323Y1905000D01*
X35128323Y1905000D02*
X38776200Y1905000D01*
X50800000Y13297600D02*
X48139789Y13297600D01*
X48139789Y13297600D02*
X39006200Y4164011D01*
X39006200Y4164011D02*
X39006200Y1675000D01*
G04 #@! TO.N,Net-(SW1-Pad1)*
X36684511Y22042111D02*
X68762889Y22042111D01*
X35560000Y20917600D02*
X36684511Y22042111D01*
X68762889Y22042111D02*
X72390000Y18415000D01*
G04 #@! TO.N,Net-(K12-Pad1)*
X120497120Y-30480000D02*
X134043489Y-16933631D01*
X224930972Y-3684989D02*
X227595983Y-6350000D01*
X134043489Y-16933631D02*
X134043489Y-16515391D01*
X218530983Y-4445000D02*
X219290994Y-3684989D01*
X219290994Y-3684989D02*
X224930972Y-3684989D01*
X200240994Y-3684989D02*
X205880972Y-3684989D01*
X183662089Y-6935011D02*
X186067106Y-4529994D01*
X141708869Y-8850011D02*
X143545000Y-8850011D01*
X205880972Y-3684989D02*
X206640983Y-4445000D01*
X143545000Y-8850011D02*
X148000000Y-4395011D01*
X199395989Y-4529994D02*
X200240994Y-3684989D01*
X227595983Y-6350000D02*
X232410000Y-6350000D01*
X163701006Y-3684989D02*
X165731017Y-5715000D01*
X165731017Y-5715000D02*
X179970983Y-5715000D01*
X162140994Y-3684989D02*
X163701006Y-3684989D01*
X181190994Y-6935011D02*
X183662089Y-6935011D01*
X179970983Y-5715000D02*
X181190994Y-6935011D01*
X118110000Y-30480000D02*
X120497120Y-30480000D01*
X134043489Y-16515391D02*
X141708869Y-8850011D01*
X148000000Y-4395011D02*
X161430972Y-4395011D01*
X186067106Y-4529994D02*
X199395989Y-4529994D01*
X206640983Y-4445000D02*
X218530983Y-4445000D01*
X161430972Y-4395011D02*
X162140994Y-3684989D01*
G04 #@! TO.N,Net-(K13-Pad1)*
X226695000Y-48895000D02*
X304165000Y-48895000D01*
X307284000Y-48316000D02*
X304744000Y-48316000D01*
X304744000Y-48316000D02*
X304165000Y-48895000D01*
G04 #@! TO.N,Net-(K14-Pad1)*
X295019011Y-30100989D02*
X297815000Y-27305000D01*
X144524011Y-30100989D02*
X143799500Y-30825500D01*
X295019011Y-30100989D02*
X144524011Y-30100989D01*
G04 #@! TO.N,Net-(K16-Pad1)*
X161001000Y-13681000D02*
X161290000Y-13970000D01*
X155229000Y-13681000D02*
X161001000Y-13681000D01*
X170361872Y-12422008D02*
X168813880Y-13970000D01*
X168813880Y-13970000D02*
X161290000Y-13970000D01*
X317142992Y-12422008D02*
X170361872Y-12422008D01*
G04 #@! TO.N,Net-(K17-Pad1)*
X318174106Y-29018911D02*
X364681089Y-29018911D01*
X316367517Y-30825500D02*
X318174106Y-29018911D01*
X353834277Y-10795000D02*
X331470000Y-10795000D01*
X200949500Y-30825500D02*
X316367517Y-30825500D01*
X364681089Y-21641812D02*
X353834277Y-10795000D01*
X364681089Y-29018911D02*
X364681089Y-21641812D01*
G04 #@! TO.N,Net-(K15-Pad1)*
X165072000Y-33048000D02*
X165533431Y-32586569D01*
X165533431Y-32586569D02*
X319203431Y-32586569D01*
X319203431Y-32586569D02*
X321111491Y-30678509D01*
G04 #@! TO.N,Net-(K1-Pad1)*
X227330000Y-52705000D02*
X250190000Y-52705000D01*
G04 #@! TO.N,Net-(D10-Pad1)*
X204831000Y7300000D02*
X204831000Y10430017D01*
X204831000Y10430017D02*
X210456000Y16055017D01*
X210456000Y16055017D02*
X210456000Y20725000D01*
X230630511Y21849511D02*
X248025489Y21849511D01*
X229506000Y20725000D02*
X230630511Y21849511D01*
X248025489Y21849511D02*
X248556000Y21319000D01*
X211580511Y21849511D02*
X228340489Y21849511D01*
X210456000Y20725000D02*
X211580511Y21849511D01*
X228340489Y21849511D02*
X229465000Y20725000D01*
G04 #@! TO.N,Net-(D64-Pad1)*
X137293000Y-55475000D02*
X144699089Y-48068911D01*
X197950089Y-44932922D02*
X199051922Y-43831089D01*
X144699089Y-48068911D02*
X196406089Y-48068911D01*
X216584989Y-45035011D02*
X219124989Y-42495011D01*
X219124989Y-42495011D02*
X232868972Y-42495011D01*
X214528994Y-45035011D02*
X216584989Y-45035011D01*
X237814472Y-37549511D02*
X252645489Y-37549511D01*
X196406089Y-48068911D02*
X197950089Y-46524911D01*
X252645489Y-37549511D02*
X253319000Y-36876000D01*
X197950089Y-46524911D02*
X197950089Y-44932922D01*
X232868972Y-42495011D02*
X237814472Y-37549511D01*
X213325072Y-43831089D02*
X214528994Y-45035011D01*
X199051922Y-43831089D02*
X213325072Y-43831089D01*
G04 #@! TO.N,Net-(D55-Pad1)*
X64075111Y-51968911D02*
X64075111Y-42853928D01*
X71481200Y-59375000D02*
X64075111Y-51968911D01*
X64075111Y-42853928D02*
X59055000Y-37833817D01*
X59055000Y-37833817D02*
X59055000Y-37423800D01*
X59055000Y-37423800D02*
X58056200Y-36425000D01*
G04 #@! TO.N,Net-(K18-Pad1)*
X48349511Y-69939511D02*
X45720000Y-67310000D01*
X48349511Y-71665489D02*
X48349511Y-69939511D01*
G04 #@! TO.N,Net-(K11-Pad1)*
X75923100Y-65128100D02*
X80010000Y-69215000D01*
X80010000Y-69215000D02*
X80010000Y-72390000D01*
G04 #@! TO.N,Net-(K18-Pad1)*
X357505000Y-50165000D02*
X231140000Y-50165000D01*
G04 #@! TO.N,Net-(D55-Pad1)*
X131850000Y-36425000D02*
X139019000Y-36425000D01*
X131850000Y-36425000D02*
X123825000Y-44450000D01*
X158069000Y-36425000D02*
X156944489Y-35300489D01*
X140143511Y-35300489D02*
X139019000Y-36425000D01*
X156944489Y-35300489D02*
X140143511Y-35300489D01*
X177119000Y-36425000D02*
X175994489Y-35300489D01*
X175994489Y-35300489D02*
X159193511Y-35300489D01*
X159193511Y-35300489D02*
X158069000Y-36425000D01*
X196169000Y-36425000D02*
X195044489Y-35300489D01*
X178243511Y-35300489D02*
X177119000Y-36425000D01*
X195044489Y-35300489D02*
X178243511Y-35300489D01*
X215219000Y-36425000D02*
X214094489Y-35300489D01*
X214094489Y-35300489D02*
X197293511Y-35300489D01*
X197293511Y-35300489D02*
X196169000Y-36425000D01*
X215219000Y-36425000D02*
X216343511Y-35300489D01*
X216343511Y-35300489D02*
X233144489Y-35300489D01*
X233144489Y-35300489D02*
X234269000Y-36425000D01*
G04 #@! TO.N,Net-(D46-Pad1)*
X243793000Y-17375000D02*
X242668489Y-18499511D01*
X242668489Y-18499511D02*
X225867511Y-18499511D01*
X225867511Y-18499511D02*
X224743000Y-17375000D01*
X262843000Y-17375000D02*
X261718489Y-18499511D01*
X261718489Y-18499511D02*
X244917511Y-18499511D01*
X244917511Y-18499511D02*
X243793000Y-17375000D01*
X281893000Y-17375000D02*
X280768489Y-18499511D01*
X280768489Y-18499511D02*
X263609511Y-18499511D01*
X263609511Y-18499511D02*
X262843000Y-17733000D01*
G04 #@! TO.N,Net-(D64-Pad1)*
X271244489Y-35300489D02*
X253624511Y-35300489D01*
X272369000Y-36425000D02*
X271244489Y-35300489D01*
X253624511Y-35300489D02*
X253319000Y-35606000D01*
X253319000Y-35606000D02*
X253319000Y-36425000D01*
X291419000Y-36425000D02*
X290294489Y-35300489D01*
X290294489Y-35300489D02*
X273493511Y-35300489D01*
X273493511Y-35300489D02*
X272369000Y-36425000D01*
X310469000Y-36425000D02*
X309344489Y-35300489D01*
X309344489Y-35300489D02*
X292543511Y-35300489D01*
X292543511Y-35300489D02*
X291419000Y-36425000D01*
X348569000Y-36425000D02*
X345180089Y-33036089D01*
X345180089Y-33036089D02*
X313857911Y-33036089D01*
X313857911Y-33036089D02*
X310469000Y-36425000D01*
G04 #@! TO.N,Net-(D46-Pad1)*
X300943000Y-17375000D02*
X299818489Y-18499511D01*
X299818489Y-18499511D02*
X283017511Y-18499511D01*
X283017511Y-18499511D02*
X281893000Y-17375000D01*
X319993000Y-17375000D02*
X318868489Y-18499511D01*
X318868489Y-18499511D02*
X302067511Y-18499511D01*
X302067511Y-18499511D02*
X300943000Y-17375000D01*
X349825489Y-16250489D02*
X320934511Y-16250489D01*
X350950000Y-17375000D02*
X349825489Y-16250489D01*
X320934511Y-16250489D02*
X319993000Y-17192000D01*
G04 #@! TO.N,Net-(D28-Pad1)*
X331900000Y1675000D02*
X335288911Y5063911D01*
X335288911Y5063911D02*
X352323089Y5063911D01*
X352323089Y5063911D02*
X355712000Y1675000D01*
X315231000Y1675000D02*
X316355511Y2799511D01*
X316355511Y2799511D02*
X330775489Y2799511D01*
X330775489Y2799511D02*
X331900000Y1675000D01*
X296181000Y1675000D02*
X297305511Y2799511D01*
X297305511Y2799511D02*
X314106489Y2799511D01*
X314106489Y2799511D02*
X315231000Y1675000D01*
X278255511Y2799511D02*
X295015489Y2799511D01*
X277131000Y1675000D02*
X278255511Y2799511D01*
X295015489Y2799511D02*
X296140000Y1675000D01*
X258081000Y1675000D02*
X259205511Y2799511D01*
X259205511Y2799511D02*
X276006489Y2799511D01*
X276006489Y2799511D02*
X277131000Y1675000D01*
X239031000Y1675000D02*
X240155511Y2799511D01*
X240155511Y2799511D02*
X256956489Y2799511D01*
X256956489Y2799511D02*
X258081000Y1675000D01*
X219981000Y1675000D02*
X221105511Y2799511D01*
X221105511Y2799511D02*
X237906489Y2799511D01*
X237906489Y2799511D02*
X239031000Y1675000D01*
X200931000Y1675000D02*
X202055511Y2799511D01*
X202055511Y2799511D02*
X218856489Y2799511D01*
X218856489Y2799511D02*
X219981000Y1675000D01*
G04 #@! TO.N,Net-(D19-Pad1)*
X162831000Y1675000D02*
X163955511Y2799511D01*
X163955511Y2799511D02*
X180756489Y2799511D01*
X180756489Y2799511D02*
X181881000Y1675000D01*
X143781000Y1675000D02*
X144905511Y2799511D01*
X144905511Y2799511D02*
X161706489Y2799511D01*
X161706489Y2799511D02*
X162831000Y1675000D01*
X124731000Y1675000D02*
X125855511Y2799511D01*
X125855511Y2799511D02*
X142656489Y2799511D01*
X142656489Y2799511D02*
X143781000Y1675000D01*
X100919000Y1675000D02*
X102043511Y2799511D01*
X102043511Y2799511D02*
X123606489Y2799511D01*
X123606489Y2799511D02*
X124731000Y1675000D01*
X71481200Y-21275000D02*
X73970211Y-21275000D01*
X73970211Y-21275000D02*
X87689300Y-7555911D01*
X87689300Y-7555911D02*
X91688089Y-7555911D01*
X91688089Y-7555911D02*
X100919000Y1675000D01*
G04 #@! TO.N,Net-(D37-Pad1)*
X58056200Y-17375000D02*
X56931689Y-16250489D01*
X56931689Y-16250489D02*
X40130711Y-16250489D01*
X40130711Y-16250489D02*
X39006200Y-17375000D01*
X84606183Y-17375000D02*
X78536172Y-23445011D01*
X103300000Y-17375000D02*
X84606183Y-17375000D01*
X78536172Y-23445011D02*
X63076211Y-23445011D01*
X63076211Y-23445011D02*
X58056200Y-18425000D01*
X58056200Y-18425000D02*
X58056200Y-17375000D01*
G04 #@! TO.N,Net-(D64-Pad1)*
X113481000Y-55475000D02*
X112356489Y-54350489D01*
X103129511Y-54350489D02*
X97925011Y-59554989D01*
X63716194Y-61545011D02*
X58056200Y-55885017D01*
X112356489Y-54350489D02*
X103129511Y-54350489D01*
X97925011Y-59554989D02*
X80226222Y-59554989D01*
X80091211Y-59690000D02*
X80091211Y-60065006D01*
X80226222Y-59554989D02*
X80091211Y-59690000D01*
X80091211Y-60065006D02*
X78611206Y-61545011D01*
X78611206Y-61545011D02*
X63716194Y-61545011D01*
X113481000Y-55475000D02*
X116869911Y-52086089D01*
X116869911Y-52086089D02*
X133904089Y-52086089D01*
X133904089Y-52086089D02*
X137293000Y-55475000D01*
X58056200Y-55475000D02*
X38945477Y-55475000D01*
X37820966Y-56599511D02*
X30605711Y-56599511D01*
X38945477Y-55475000D02*
X37820966Y-56599511D01*
X30605711Y-56599511D02*
X29481200Y-55475000D01*
G04 #@! TO.N,Net-(D55-Pad1)*
X100123463Y-36425000D02*
X83192374Y-53356089D01*
X108062000Y-36425000D02*
X100123463Y-36425000D01*
X83192374Y-53356089D02*
X78550111Y-53356089D01*
X78550111Y-53356089D02*
X72531200Y-59375000D01*
X72531200Y-59375000D02*
X71481200Y-59375000D01*
G04 #@! TO.N,Net-(K17-Pad1)*
X154578978Y-8850011D02*
X126113000Y-37315989D01*
X126113000Y-37315989D02*
X123108474Y-37315989D01*
X160020000Y-7620000D02*
X158789989Y-8850011D01*
X121781089Y-38643374D02*
X109946626Y-38643374D01*
X109946626Y-38643374D02*
X95885000Y-52705000D01*
X123108474Y-37315989D02*
X121781089Y-38643374D01*
X158789989Y-8850011D02*
X154578978Y-8850011D01*
G04 #@! TO.N,Net-(D73-Pad1)*
X146162000Y-55475000D02*
X146162000Y-56525000D01*
X146162000Y-56525000D02*
X151182011Y-61545011D01*
X151182011Y-61545011D02*
X211529989Y-61545011D01*
X211529989Y-61545011D02*
X217600000Y-55475000D01*
X279085000Y-68900000D02*
X373900000Y-68900000D01*
X351606000Y-55475000D02*
X351606000Y-68129000D01*
X351606000Y-68129000D02*
X350835000Y-68900000D01*
X312850000Y-55475000D02*
X312850000Y-58625000D01*
X312850000Y-58625000D02*
X302575000Y-68900000D01*
X279085000Y-68900000D02*
X231960017Y-68900000D01*
X289037000Y-55475000D02*
X289037000Y-58948000D01*
X289037000Y-58948000D02*
X279085000Y-68900000D01*
X231960017Y-68900000D02*
X224605028Y-61545011D01*
X224605028Y-61545011D02*
X222620011Y-61545011D01*
X222620011Y-61545011D02*
X217600000Y-56525000D01*
X217600000Y-56525000D02*
X217600000Y-55475000D01*
G04 #@! TO.N,Net-(K12-Pad1)*
X39370000Y13970000D02*
X38772400Y13970000D01*
X38772400Y13970000D02*
X35560000Y10757600D01*
G04 #@! TD*
M02*
