%TF.GenerationSoftware,KiCad,Pcbnew,5.99.0-unknown-4f191ce2c7~125~ubuntu18.04.1*%
%TF.CreationDate,2021-04-25T16:47:38-05:00*%
%TF.ProjectId,southpawpcb,736f7574-6870-4617-9770-63622e6b6963,rev?*%
%TF.SameCoordinates,Original*%
%TF.FileFunction,Copper,L1,Top*%
%TF.FilePolarity,Positive*%
%FSLAX45Y45*%
G04 Gerber Fmt 4.5, Leading zero omitted, Abs format (unit mm)*
G04 Created by KiCad (PCBNEW 5.99.0-unknown-4f191ce2c7~125~ubuntu18.04.1) date 2021-04-25 16:47:38*
%MOMM*%
%LPD*%
G01*
G04 APERTURE LIST*
%TA.AperFunction,ComponentPad*%
%ADD10R,1.600000X1.600000*%
%TD*%
%TA.AperFunction,SMDPad,CuDef*%
%ADD11R,2.500000X0.500000*%
%TD*%
%TA.AperFunction,SMDPad,CuDef*%
%ADD12R,1.200000X1.200000*%
%TD*%
%TA.AperFunction,ComponentPad*%
%ADD13C,1.600000*%
%TD*%
%TA.AperFunction,SMDPad,CuDef*%
%ADD14R,0.500000X2.500000*%
%TD*%
%TA.AperFunction,ViaPad*%
%ADD15C,0.800000*%
%TD*%
%TA.AperFunction,Conductor*%
%ADD16C,0.250000*%
%TD*%
G04 APERTURE END LIST*
D10*
%TO.P,D27,1,K*%
%TO.N,Net-(D19-Pad1)*%
X17661850Y-3567875D03*
D11*
X17781850Y-3567875D03*
D12*
X17894350Y-3567875D03*
D13*
%TO.P,D27,2,A*%
%TO.N,Net-(D27-Pad2)*%
X18441850Y-3567875D03*
D11*
X18321850Y-3567875D03*
D12*
X18209350Y-3567875D03*
%TD*%
D11*
%TO.P,D1,1,K*%
%TO.N,Net-(D1-Pad1)*%
X1589370Y-1662875D03*
D10*
X1469370Y-1662875D03*
D12*
X1701870Y-1662875D03*
%TO.P,D1,2,A*%
%TO.N,Net-(D1-Pad2)*%
X2016870Y-1662875D03*
D11*
X2129370Y-1662875D03*
D13*
X2249370Y-1662875D03*
%TD*%
D11*
%TO.P,D41,1,K*%
%TO.N,Net-(D37-Pad1)*%
X12543050Y-5472875D03*
D10*
X12423050Y-5472875D03*
D12*
X12655550Y-5472875D03*
D11*
%TO.P,D41,2,A*%
%TO.N,Net-(D41-Pad2)*%
X13083050Y-5472875D03*
D13*
X13203050Y-5472875D03*
D12*
X12970550Y-5472875D03*
%TD*%
%TO.P,D59,1,K*%
%TO.N,Net-(D55-Pad1)*%
X15513150Y-7377875D03*
D11*
X15400650Y-7377875D03*
D10*
X15280650Y-7377875D03*
D12*
%TO.P,D59,2,A*%
%TO.N,Net-(D59-Pad2)*%
X15828150Y-7377875D03*
D13*
X16060650Y-7377875D03*
D11*
X15940650Y-7377875D03*
%TD*%
D12*
%TO.P,D24,1,K*%
%TO.N,Net-(D19-Pad1)*%
X12179350Y-3567875D03*
D10*
X11946850Y-3567875D03*
D11*
X12066850Y-3567875D03*
%TO.P,D24,2,A*%
%TO.N,Net-(D24-Pad2)*%
X12606850Y-3567875D03*
D13*
X12726850Y-3567875D03*
D12*
X12494350Y-3567875D03*
%TD*%
%TO.P,D35,1,K*%
%TO.N,Net-(D28-Pad1)*%
X32896250Y-3567875D03*
D10*
X32663750Y-3567875D03*
D11*
X32783750Y-3567875D03*
D13*
%TO.P,D35,2,A*%
%TO.N,Net-(D35-Pad2)*%
X33443750Y-3567875D03*
D12*
X33211250Y-3567875D03*
D11*
X33323750Y-3567875D03*
%TD*%
D10*
%TO.P,D30,1,K*%
%TO.N,Net-(D28-Pad1)*%
X23376850Y-3567875D03*
D11*
X23496850Y-3567875D03*
D12*
X23609350Y-3567875D03*
D13*
%TO.P,D30,2,A*%
%TO.N,Net-(D30-Pad2)*%
X24156850Y-3567875D03*
D12*
X23924350Y-3567875D03*
D11*
X24036850Y-3567875D03*
%TD*%
%TO.P,D33,1,K*%
%TO.N,Net-(D28-Pad1)*%
X29211850Y-3567875D03*
D10*
X29091850Y-3567875D03*
D12*
X29324350Y-3567875D03*
D13*
%TO.P,D33,2,A*%
%TO.N,Net-(D33-Pad2)*%
X29871850Y-3567875D03*
D12*
X29639350Y-3567875D03*
D11*
X29751850Y-3567875D03*
%TD*%
%TO.P,D73,1,K*%
%TO.N,Net-(D73-Pad1)*%
X14209950Y-9282875D03*
D12*
X14322450Y-9282875D03*
D10*
X14089950Y-9282875D03*
D12*
%TO.P,D73,2,A*%
%TO.N,Net-(D73-Pad2)*%
X14637450Y-9282875D03*
D11*
X14749950Y-9282875D03*
D13*
X14869950Y-9282875D03*
%TD*%
D10*
%TO.P,D43,1,K*%
%TO.N,Net-(D37-Pad1)*%
X16233050Y-5472875D03*
D11*
X16353050Y-5472875D03*
D12*
X16465550Y-5472875D03*
D11*
%TO.P,D43,2,A*%
%TO.N,Net-(D43-Pad2)*%
X16893050Y-5472875D03*
D13*
X17013050Y-5472875D03*
D12*
X16780550Y-5472875D03*
%TD*%
D10*
%TO.P,D5,1,K*%
%TO.N,Net-(D1-Pad1)*%
X10431850Y-3005375D03*
D14*
X10431850Y-2885375D03*
D12*
X10431850Y-2772875D03*
D13*
%TO.P,D5,2,A*%
%TO.N,Net-(D5-Pad2)*%
X10431850Y-2225375D03*
D12*
X10431850Y-2457875D03*
D14*
X10431850Y-2345375D03*
%TD*%
D12*
%TO.P,D55,1,K*%
%TO.N,Net-(D55-Pad1)*%
X5511870Y-7377875D03*
D10*
X5279370Y-7377875D03*
D11*
X5399370Y-7377875D03*
D13*
%TO.P,D55,2,A*%
%TO.N,Net-(D55-Pad2)*%
X6059370Y-7377875D03*
D11*
X5939370Y-7377875D03*
D12*
X5826870Y-7377875D03*
%TD*%
D10*
%TO.P,D29,1,K*%
%TO.N,Net-(D28-Pad1)*%
X21471850Y-3567875D03*
D12*
X21704350Y-3567875D03*
D11*
X21591850Y-3567875D03*
D13*
%TO.P,D29,2,A*%
%TO.N,Net-(D29-Pad2)*%
X22251850Y-3567875D03*
D11*
X22131850Y-3567875D03*
D12*
X22019350Y-3567875D03*
%TD*%
D10*
%TO.P,D63,1,K*%
%TO.N,Net-(D55-Pad1)*%
X22900650Y-7377875D03*
D12*
X23133150Y-7377875D03*
D11*
X23020650Y-7377875D03*
%TO.P,D63,2,A*%
%TO.N,Net-(D63-Pad2)*%
X23560650Y-7377875D03*
D13*
X23680650Y-7377875D03*
D12*
X23448150Y-7377875D03*
%TD*%
D10*
%TO.P,D11,1,K*%
%TO.N,Net-(D10-Pad1)*%
X20519350Y-1662875D03*
D11*
X20639350Y-1662875D03*
D12*
X20751850Y-1662875D03*
D13*
%TO.P,D11,2,A*%
%TO.N,Net-(D11-Pad2)*%
X21299350Y-1662875D03*
D12*
X21066850Y-1662875D03*
D11*
X21179350Y-1662875D03*
%TD*%
D10*
%TO.P,D51,1,K*%
%TO.N,Net-(D46-Pad1)*%
X31473050Y-5472875D03*
D11*
X31593050Y-5472875D03*
D12*
X31705550Y-5472875D03*
D13*
%TO.P,D51,2,A*%
%TO.N,Net-(D51-Pad2)*%
X32253050Y-5472875D03*
D12*
X32020550Y-5472875D03*
D11*
X32133050Y-5472875D03*
%TD*%
%TO.P,D46,1,K*%
%TO.N,Net-(D46-Pad1)*%
X22068050Y-5472875D03*
D10*
X21948050Y-5472875D03*
D12*
X22180550Y-5472875D03*
%TO.P,D46,2,A*%
%TO.N,Net-(D46-Pad2)*%
X22495550Y-5472875D03*
D11*
X22608050Y-5472875D03*
D13*
X22728050Y-5472875D03*
%TD*%
D10*
%TO.P,D44,1,K*%
%TO.N,Net-(D37-Pad1)*%
X18138050Y-5472875D03*
D12*
X18370550Y-5472875D03*
D11*
X18258050Y-5472875D03*
%TO.P,D44,2,A*%
%TO.N,Net-(D44-Pad2)*%
X18798050Y-5472875D03*
D13*
X18918050Y-5472875D03*
D12*
X18685550Y-5472875D03*
%TD*%
%TO.P,D6,1,K*%
%TO.N,Net-(D1-Pad1)*%
X11226850Y-1662875D03*
D11*
X11114350Y-1662875D03*
D10*
X10994350Y-1662875D03*
D11*
%TO.P,D6,2,A*%
%TO.N,Net-(D6-Pad2)*%
X11654350Y-1662875D03*
D12*
X11541850Y-1662875D03*
D13*
X11774350Y-1662875D03*
%TD*%
D11*
%TO.P,D66,1,K*%
%TO.N,Net-(D64-Pad1)*%
X28735650Y-7377875D03*
D10*
X28615650Y-7377875D03*
D12*
X28848150Y-7377875D03*
D11*
%TO.P,D66,2,A*%
%TO.N,Net-(D66-Pad2)*%
X29275650Y-7377875D03*
D13*
X29395650Y-7377875D03*
D12*
X29163150Y-7377875D03*
%TD*%
D10*
%TO.P,D13,1,K*%
%TO.N,Net-(D10-Pad1)*%
X24329350Y-1662875D03*
D12*
X24561850Y-1662875D03*
D11*
X24449350Y-1662875D03*
D12*
%TO.P,D13,2,A*%
%TO.N,Net-(D13-Pad2)*%
X24876850Y-1662875D03*
D13*
X25109350Y-1662875D03*
D11*
X24989350Y-1662875D03*
%TD*%
%TO.P,D28,1,K*%
%TO.N,Net-(D28-Pad1)*%
X19686850Y-3567875D03*
D10*
X19566850Y-3567875D03*
D12*
X19799350Y-3567875D03*
D11*
%TO.P,D28,2,A*%
%TO.N,Net-(D28-Pad2)*%
X20226850Y-3567875D03*
D13*
X20346850Y-3567875D03*
D12*
X20114350Y-3567875D03*
%TD*%
%TO.P,D8,1,K*%
%TO.N,Net-(D1-Pad1)*%
X15036850Y-1662875D03*
D10*
X14804350Y-1662875D03*
D11*
X14924350Y-1662875D03*
%TO.P,D8,2,A*%
%TO.N,Net-(D8-Pad2)*%
X15464350Y-1662875D03*
D12*
X15351850Y-1662875D03*
D13*
X15584350Y-1662875D03*
%TD*%
D12*
%TO.P,D75,1,K*%
%TO.N,Net-(D73-Pad1)*%
X28609950Y-9282875D03*
D11*
X28497450Y-9282875D03*
D10*
X28377450Y-9282875D03*
D13*
%TO.P,D75,2,A*%
%TO.N,Net-(D75-Pad2)*%
X29157450Y-9282875D03*
D11*
X29037450Y-9282875D03*
D12*
X28924950Y-9282875D03*
%TD*%
D10*
%TO.P,D70,1,K*%
%TO.N,Net-(D64-Pad1)*%
X5279370Y-9282875D03*
D12*
X5511870Y-9282875D03*
D11*
X5399370Y-9282875D03*
D12*
%TO.P,D70,2,A*%
%TO.N,Net-(D70-Pad2)*%
X5826870Y-9282875D03*
D13*
X6059370Y-9282875D03*
D11*
X5939370Y-9282875D03*
%TD*%
D10*
%TO.P,D49,1,K*%
%TO.N,Net-(D46-Pad1)*%
X27663050Y-5472875D03*
D12*
X27895550Y-5472875D03*
D11*
X27783050Y-5472875D03*
%TO.P,D49,2,A*%
%TO.N,Net-(D49-Pad2)*%
X28323050Y-5472875D03*
D13*
X28443050Y-5472875D03*
D12*
X28210550Y-5472875D03*
%TD*%
%TO.P,D76,1,K*%
%TO.N,Net-(D73-Pad1)*%
X30991250Y-9282875D03*
D11*
X30878750Y-9282875D03*
D10*
X30758750Y-9282875D03*
D11*
%TO.P,D76,2,A*%
%TO.N,Net-(D76-Pad2)*%
X31418750Y-9282875D03*
D12*
X31306250Y-9282875D03*
D13*
X31538750Y-9282875D03*
%TD*%
D11*
%TO.P,D74,1,K*%
%TO.N,Net-(D73-Pad1)*%
X21353750Y-9282875D03*
D12*
X21466250Y-9282875D03*
D10*
X21233750Y-9282875D03*
D11*
%TO.P,D74,2,A*%
%TO.N,Net-(D74-Pad2)*%
X21893750Y-9282875D03*
D13*
X22013750Y-9282875D03*
D12*
X21781250Y-9282875D03*
%TD*%
D11*
%TO.P,D64,1,K*%
%TO.N,Net-(D64-Pad1)*%
X24925650Y-7377875D03*
D10*
X24805650Y-7377875D03*
D12*
X25038150Y-7377875D03*
D11*
%TO.P,D64,2,A*%
%TO.N,Net-(D64-Pad2)*%
X25465650Y-7377875D03*
D13*
X25585650Y-7377875D03*
D12*
X25353150Y-7377875D03*
%TD*%
D11*
%TO.P,D9,1,K*%
%TO.N,Net-(D1-Pad1)*%
X16829350Y-1662875D03*
D10*
X16709350Y-1662875D03*
D12*
X16941850Y-1662875D03*
D11*
%TO.P,D9,2,A*%
%TO.N,Net-(D9-Pad2)*%
X17369350Y-1662875D03*
D13*
X17489350Y-1662875D03*
D12*
X17256850Y-1662875D03*
%TD*%
D10*
%TO.P,D31,1,K*%
%TO.N,Net-(D28-Pad1)*%
X25281850Y-3567875D03*
D11*
X25401850Y-3567875D03*
D12*
X25514350Y-3567875D03*
D11*
%TO.P,D31,2,A*%
%TO.N,Net-(D31-Pad2)*%
X25941850Y-3567875D03*
D12*
X25829350Y-3567875D03*
D13*
X26061850Y-3567875D03*
%TD*%
D12*
%TO.P,D32,1,K*%
%TO.N,Net-(D28-Pad1)*%
X27419350Y-3567875D03*
D11*
X27306850Y-3567875D03*
D10*
X27186850Y-3567875D03*
D12*
%TO.P,D32,2,A*%
%TO.N,Net-(D32-Pad2)*%
X27734350Y-3567875D03*
D11*
X27846850Y-3567875D03*
D13*
X27966850Y-3567875D03*
%TD*%
D12*
%TO.P,D17,1,K*%
%TO.N,Net-(D10-Pad1)*%
X32181850Y-1662875D03*
D10*
X31949350Y-1662875D03*
D11*
X32069350Y-1662875D03*
D12*
%TO.P,D17,2,A*%
%TO.N,Net-(D17-Pad2)*%
X32496850Y-1662875D03*
D13*
X32729350Y-1662875D03*
D11*
X32609350Y-1662875D03*
%TD*%
D12*
%TO.P,D23,1,K*%
%TO.N,Net-(D19-Pad1)*%
X9798150Y-3567875D03*
D11*
X9685650Y-3567875D03*
D10*
X9565650Y-3567875D03*
D13*
%TO.P,D23,2,A*%
%TO.N,Net-(D23-Pad2)*%
X10345650Y-3567875D03*
D12*
X10113150Y-3567875D03*
D11*
X10225650Y-3567875D03*
%TD*%
D10*
%TO.P,D56,1,K*%
%TO.N,Net-(D55-Pad1)*%
X6621870Y-9672875D03*
D14*
X6621870Y-9552875D03*
D12*
X6621870Y-9440375D03*
D13*
%TO.P,D56,2,A*%
%TO.N,Net-(D56-Pad2)*%
X6621870Y-8892875D03*
D12*
X6621870Y-9125375D03*
D14*
X6621870Y-9012875D03*
%TD*%
D11*
%TO.P,D40,1,K*%
%TO.N,Net-(D37-Pad1)*%
X9923750Y-5472875D03*
D10*
X9803750Y-5472875D03*
D12*
X10036250Y-5472875D03*
%TO.P,D40,2,A*%
%TO.N,Net-(D40-Pad2)*%
X10351250Y-5472875D03*
D13*
X10583750Y-5472875D03*
D11*
X10463750Y-5472875D03*
%TD*%
D10*
%TO.P,D69,1,K*%
%TO.N,Net-(D64-Pad1)*%
X2421870Y-9282875D03*
D12*
X2654370Y-9282875D03*
D11*
X2541870Y-9282875D03*
D13*
%TO.P,D69,2,A*%
%TO.N,Net-(D69-Pad2)*%
X3201870Y-9282875D03*
D11*
X3081870Y-9282875D03*
D12*
X2969370Y-9282875D03*
%TD*%
%TO.P,D20,1,K*%
%TO.N,Net-(D19-Pad1)*%
X3606870Y-3567875D03*
D11*
X3494370Y-3567875D03*
D10*
X3374370Y-3567875D03*
D12*
%TO.P,D20,2,A*%
%TO.N,Net-(D20-Pad2)*%
X3921870Y-3567875D03*
D13*
X4154370Y-3567875D03*
D11*
X4034370Y-3567875D03*
%TD*%
D12*
%TO.P,D34,1,K*%
%TO.N,Net-(D28-Pad1)*%
X31229350Y-3567875D03*
D10*
X30996850Y-3567875D03*
D11*
X31116850Y-3567875D03*
D13*
%TO.P,D34,2,A*%
%TO.N,Net-(D34-Pad2)*%
X31776850Y-3567875D03*
D11*
X31656850Y-3567875D03*
D12*
X31544350Y-3567875D03*
%TD*%
%TO.P,D58,1,K*%
%TO.N,Net-(D55-Pad1)*%
X13608150Y-7377875D03*
D11*
X13495650Y-7377875D03*
D10*
X13375650Y-7377875D03*
D11*
%TO.P,D58,2,A*%
%TO.N,Net-(D58-Pad2)*%
X14035650Y-7377875D03*
D12*
X13923150Y-7377875D03*
D13*
X14155650Y-7377875D03*
%TD*%
D12*
%TO.P,D12,1,K*%
%TO.N,Net-(D10-Pad1)*%
X22656850Y-1662875D03*
D10*
X22424350Y-1662875D03*
D11*
X22544350Y-1662875D03*
D13*
%TO.P,D12,2,A*%
%TO.N,Net-(D12-Pad2)*%
X23204350Y-1662875D03*
D12*
X22971850Y-1662875D03*
D11*
X23084350Y-1662875D03*
%TD*%
%TO.P,D38,1,K*%
%TO.N,Net-(D37-Pad1)*%
X3494370Y-5472875D03*
D12*
X3606870Y-5472875D03*
D10*
X3374370Y-5472875D03*
D12*
%TO.P,D38,2,A*%
%TO.N,Net-(D38-Pad2)*%
X3921870Y-5472875D03*
D11*
X4034370Y-5472875D03*
D13*
X4154370Y-5472875D03*
%TD*%
D12*
%TO.P,D18,1,K*%
%TO.N,Net-(D10-Pad1)*%
X35039350Y-1662875D03*
D10*
X34806850Y-1662875D03*
D11*
X34926850Y-1662875D03*
D13*
%TO.P,D18,2,A*%
%TO.N,Net-(D18-Pad2)*%
X35586850Y-1662875D03*
D11*
X35466850Y-1662875D03*
D12*
X35354350Y-1662875D03*
%TD*%
D10*
%TO.P,D68,1,K*%
%TO.N,Net-(D64-Pad1)*%
X34330650Y-7377875D03*
D12*
X34563150Y-7377875D03*
D11*
X34450650Y-7377875D03*
D13*
%TO.P,D68,2,A*%
%TO.N,Net-(D68-Pad2)*%
X35110650Y-7377875D03*
D12*
X34878150Y-7377875D03*
D11*
X34990650Y-7377875D03*
%TD*%
D12*
%TO.P,D14,1,K*%
%TO.N,Net-(D10-Pad1)*%
X26466850Y-1662875D03*
D11*
X26354350Y-1662875D03*
D10*
X26234350Y-1662875D03*
D12*
%TO.P,D14,2,A*%
%TO.N,Net-(D14-Pad2)*%
X26781850Y-1662875D03*
D13*
X27014350Y-1662875D03*
D11*
X26894350Y-1662875D03*
%TD*%
D10*
%TO.P,D65,1,K*%
%TO.N,Net-(D64-Pad1)*%
X26710650Y-7377875D03*
D11*
X26830650Y-7377875D03*
D12*
X26943150Y-7377875D03*
D13*
%TO.P,D65,2,A*%
%TO.N,Net-(D65-Pad2)*%
X27490650Y-7377875D03*
D12*
X27258150Y-7377875D03*
D11*
X27370650Y-7377875D03*
%TD*%
D12*
%TO.P,D37,1,K*%
%TO.N,Net-(D37-Pad1)*%
X1701870Y-5472875D03*
D10*
X1469370Y-5472875D03*
D11*
X1589370Y-5472875D03*
D13*
%TO.P,D37,2,A*%
%TO.N,Net-(D37-Pad2)*%
X2249370Y-5472875D03*
D12*
X2016870Y-5472875D03*
D11*
X2129370Y-5472875D03*
%TD*%
D12*
%TO.P,D52,1,K*%
%TO.N,Net-(D46-Pad1)*%
X34801250Y-5472875D03*
D10*
X34568750Y-5472875D03*
D11*
X34688750Y-5472875D03*
D13*
%TO.P,D52,2,A*%
%TO.N,Net-(D52-Pad2)*%
X35348750Y-5472875D03*
D11*
X35228750Y-5472875D03*
D12*
X35116250Y-5472875D03*
%TD*%
%TO.P,D61,1,K*%
%TO.N,Net-(D55-Pad1)*%
X19323150Y-7377875D03*
D10*
X19090650Y-7377875D03*
D11*
X19210650Y-7377875D03*
D12*
%TO.P,D61,2,A*%
%TO.N,Net-(D61-Pad2)*%
X19638150Y-7377875D03*
D13*
X19870650Y-7377875D03*
D11*
X19750650Y-7377875D03*
%TD*%
%TO.P,D62,1,K*%
%TO.N,Net-(D55-Pad1)*%
X21115650Y-7377875D03*
D12*
X21228150Y-7377875D03*
D10*
X20995650Y-7377875D03*
D11*
%TO.P,D62,2,A*%
%TO.N,Net-(D62-Pad2)*%
X21655650Y-7377875D03*
D12*
X21543150Y-7377875D03*
D13*
X21775650Y-7377875D03*
%TD*%
D11*
%TO.P,D36,1,K*%
%TO.N,Net-(D28-Pad1)*%
X35164950Y-3567875D03*
D10*
X35044950Y-3567875D03*
D12*
X35277450Y-3567875D03*
D11*
%TO.P,D36,2,A*%
%TO.N,Net-(D36-Pad2)*%
X35704950Y-3567875D03*
D12*
X35592450Y-3567875D03*
D13*
X35824950Y-3567875D03*
%TD*%
D12*
%TO.P,D67,1,K*%
%TO.N,Net-(D64-Pad1)*%
X30753150Y-7377875D03*
D10*
X30520650Y-7377875D03*
D11*
X30640650Y-7377875D03*
%TO.P,D67,2,A*%
%TO.N,Net-(D67-Pad2)*%
X31180650Y-7377875D03*
D12*
X31068150Y-7377875D03*
D13*
X31300650Y-7377875D03*
%TD*%
D14*
%TO.P,D15,1,K*%
%TO.N,Net-(D10-Pad1)*%
X29481850Y-2885375D03*
D10*
X29481850Y-3005375D03*
D12*
X29481850Y-2772875D03*
%TO.P,D15,2,A*%
%TO.N,Net-(D15-Pad2)*%
X29481850Y-2457875D03*
D14*
X29481850Y-2345375D03*
D13*
X29481850Y-2225375D03*
%TD*%
D10*
%TO.P,D47,1,K*%
%TO.N,Net-(D46-Pad1)*%
X23853050Y-5472875D03*
D12*
X24085550Y-5472875D03*
D11*
X23973050Y-5472875D03*
D12*
%TO.P,D47,2,A*%
%TO.N,Net-(D47-Pad2)*%
X24400550Y-5472875D03*
D11*
X24513050Y-5472875D03*
D13*
X24633050Y-5472875D03*
%TD*%
D10*
%TO.P,D57,1,K*%
%TO.N,Net-(D55-Pad1)*%
X10279950Y-7377875D03*
D12*
X10512450Y-7377875D03*
D11*
X10399950Y-7377875D03*
D13*
%TO.P,D57,2,A*%
%TO.N,Net-(D57-Pad2)*%
X11059950Y-7377875D03*
D11*
X10939950Y-7377875D03*
D12*
X10827450Y-7377875D03*
%TD*%
D11*
%TO.P,D19,1,K*%
%TO.N,Net-(D19-Pad1)*%
X1589370Y-3567875D03*
D10*
X1469370Y-3567875D03*
D12*
X1701870Y-3567875D03*
%TO.P,D19,2,A*%
%TO.N,Net-(D19-Pad2)*%
X2016870Y-3567875D03*
D13*
X2249370Y-3567875D03*
D11*
X2129370Y-3567875D03*
%TD*%
D10*
%TO.P,D54,1,K*%
%TO.N,Net-(D46-Pad1)*%
X3374370Y-7377875D03*
D12*
X3606870Y-7377875D03*
D11*
X3494370Y-7377875D03*
D13*
%TO.P,D54,2,A*%
%TO.N,Net-(D54-Pad2)*%
X4154370Y-7377875D03*
D11*
X4034370Y-7377875D03*
D12*
X3921870Y-7377875D03*
%TD*%
D14*
%TO.P,D10,1,K*%
%TO.N,Net-(D10-Pad1)*%
X19956850Y-2885375D03*
D10*
X19956850Y-3005375D03*
D12*
X19956850Y-2772875D03*
%TO.P,D10,2,A*%
%TO.N,Net-(D10-Pad2)*%
X19956850Y-2457875D03*
D14*
X19956850Y-2345375D03*
D13*
X19956850Y-2225375D03*
%TD*%
D10*
%TO.P,D22,1,K*%
%TO.N,Net-(D19-Pad1)*%
X6621870Y-5862875D03*
D14*
X6621870Y-5742875D03*
D12*
X6621870Y-5630375D03*
D14*
%TO.P,D22,2,A*%
%TO.N,Net-(D22-Pad2)*%
X6621870Y-5202875D03*
D13*
X6621870Y-5082875D03*
D12*
X6621870Y-5315375D03*
%TD*%
D11*
%TO.P,D16,1,K*%
%TO.N,Net-(D10-Pad1)*%
X30164350Y-1662875D03*
D12*
X30276850Y-1662875D03*
D10*
X30044350Y-1662875D03*
D12*
%TO.P,D16,2,A*%
%TO.N,Net-(D16-Pad2)*%
X30591850Y-1662875D03*
D13*
X30824350Y-1662875D03*
D11*
X30704350Y-1662875D03*
%TD*%
D12*
%TO.P,D45,1,K*%
%TO.N,Net-(D37-Pad1)*%
X20275550Y-5472875D03*
D10*
X20043050Y-5472875D03*
D11*
X20163050Y-5472875D03*
D12*
%TO.P,D45,2,A*%
%TO.N,Net-(D45-Pad2)*%
X20590550Y-5472875D03*
D13*
X20823050Y-5472875D03*
D11*
X20703050Y-5472875D03*
%TD*%
D10*
%TO.P,D77,1,K*%
%TO.N,Net-(D73-Pad1)*%
X34634350Y-9282875D03*
D12*
X34401850Y-9282875D03*
D11*
X34514350Y-9282875D03*
D13*
%TO.P,D77,2,A*%
%TO.N,Net-(D77-Pad2)*%
X33854350Y-9282875D03*
D12*
X34086850Y-9282875D03*
D11*
X33974350Y-9282875D03*
%TD*%
D14*
%TO.P,D78,1,K*%
%TO.N,Net-(D73-Pad1)*%
X36863750Y-10505375D03*
D10*
X36863750Y-10625375D03*
D12*
X36863750Y-10392875D03*
%TO.P,D78,2,A*%
%TO.N,Net-(D78-Pad2)*%
X36863750Y-10077875D03*
D13*
X36863750Y-9845375D03*
D14*
X36863750Y-9965375D03*
%TD*%
D10*
%TO.P,D71,1,K*%
%TO.N,Net-(D64-Pad1)*%
X10821850Y-9282875D03*
D11*
X10701850Y-9282875D03*
D12*
X10589350Y-9282875D03*
%TO.P,D71,2,A*%
%TO.N,Net-(D71-Pad2)*%
X10274350Y-9282875D03*
D13*
X10041850Y-9282875D03*
D11*
X10161850Y-9282875D03*
%TD*%
D12*
%TO.P,D25,1,K*%
%TO.N,Net-(D19-Pad1)*%
X14084350Y-3567875D03*
D11*
X13971850Y-3567875D03*
D10*
X13851850Y-3567875D03*
D12*
%TO.P,D25,2,A*%
%TO.N,Net-(D25-Pad2)*%
X14399350Y-3567875D03*
D13*
X14631850Y-3567875D03*
D11*
X14511850Y-3567875D03*
%TD*%
D10*
%TO.P,D3,1,K*%
%TO.N,Net-(D1-Pad1)*%
X5279370Y-1662875D03*
D11*
X5399370Y-1662875D03*
D12*
X5511870Y-1662875D03*
D13*
%TO.P,D3,2,A*%
%TO.N,Net-(D3-Pad2)*%
X6059370Y-1662875D03*
D12*
X5826870Y-1662875D03*
D11*
X5939370Y-1662875D03*
%TD*%
%TO.P,D4,1,K*%
%TO.N,Net-(D1-Pad1)*%
X7304370Y-1662875D03*
D12*
X7416870Y-1662875D03*
D10*
X7184370Y-1662875D03*
D13*
%TO.P,D4,2,A*%
%TO.N,Net-(D4-Pad2)*%
X7964370Y-1662875D03*
D12*
X7731870Y-1662875D03*
D11*
X7844370Y-1662875D03*
%TD*%
D10*
%TO.P,D42,1,K*%
%TO.N,Net-(D37-Pad1)*%
X14328050Y-5472875D03*
D12*
X14560550Y-5472875D03*
D11*
X14448050Y-5472875D03*
%TO.P,D42,2,A*%
%TO.N,Net-(D42-Pad2)*%
X14988050Y-5472875D03*
D13*
X15108050Y-5472875D03*
D12*
X14875550Y-5472875D03*
%TD*%
D11*
%TO.P,D60,1,K*%
%TO.N,Net-(D55-Pad1)*%
X17305650Y-7377875D03*
D10*
X17185650Y-7377875D03*
D12*
X17418150Y-7377875D03*
D11*
%TO.P,D60,2,A*%
%TO.N,Net-(D60-Pad2)*%
X17845650Y-7377875D03*
D12*
X17733150Y-7377875D03*
D13*
X17965650Y-7377875D03*
%TD*%
D11*
%TO.P,D26,1,K*%
%TO.N,Net-(D19-Pad1)*%
X15876850Y-3567875D03*
D12*
X15989350Y-3567875D03*
D10*
X15756850Y-3567875D03*
D11*
%TO.P,D26,2,A*%
%TO.N,Net-(D26-Pad2)*%
X16416850Y-3567875D03*
D12*
X16304350Y-3567875D03*
D13*
X16536850Y-3567875D03*
%TD*%
D10*
%TO.P,D53,1,K*%
%TO.N,Net-(D46-Pad1)*%
X1469370Y-7377875D03*
D11*
X1589370Y-7377875D03*
D12*
X1701870Y-7377875D03*
%TO.P,D53,2,A*%
%TO.N,Net-(D53-Pad2)*%
X2016870Y-7377875D03*
D13*
X2249370Y-7377875D03*
D11*
X2129370Y-7377875D03*
%TD*%
%TO.P,D21,1,K*%
%TO.N,Net-(D19-Pad1)*%
X5399370Y-3567875D03*
D10*
X5279370Y-3567875D03*
D12*
X5511870Y-3567875D03*
D13*
%TO.P,D21,2,A*%
%TO.N,Net-(D21-Pad2)*%
X6059370Y-3567875D03*
D12*
X5826870Y-3567875D03*
D11*
X5939370Y-3567875D03*
%TD*%
%TO.P,D50,1,K*%
%TO.N,Net-(D46-Pad1)*%
X29688050Y-5472875D03*
D12*
X29800550Y-5472875D03*
D10*
X29568050Y-5472875D03*
D12*
%TO.P,D50,2,A*%
%TO.N,Net-(D50-Pad2)*%
X30115550Y-5472875D03*
D13*
X30348050Y-5472875D03*
D11*
X30228050Y-5472875D03*
%TD*%
%TO.P,D2,1,K*%
%TO.N,Net-(D1-Pad1)*%
X3494370Y-1662875D03*
D10*
X3374370Y-1662875D03*
D12*
X3606870Y-1662875D03*
%TO.P,D2,2,A*%
%TO.N,Net-(D2-Pad2)*%
X3921870Y-1662875D03*
D11*
X4034370Y-1662875D03*
D13*
X4154370Y-1662875D03*
%TD*%
D11*
%TO.P,D39,1,K*%
%TO.N,Net-(D37-Pad1)*%
X5399370Y-5472875D03*
D12*
X5511870Y-5472875D03*
D10*
X5279370Y-5472875D03*
D12*
%TO.P,D39,2,A*%
%TO.N,Net-(D39-Pad2)*%
X5826870Y-5472875D03*
D13*
X6059370Y-5472875D03*
D11*
X5939370Y-5472875D03*
%TD*%
D10*
%TO.P,D72,1,K*%
%TO.N,Net-(D64-Pad1)*%
X13203050Y-9282875D03*
D11*
X13083050Y-9282875D03*
D12*
X12970550Y-9282875D03*
%TO.P,D72,2,A*%
%TO.N,Net-(D72-Pad2)*%
X12655550Y-9282875D03*
D13*
X12423050Y-9282875D03*
D11*
X12543050Y-9282875D03*
%TD*%
D12*
%TO.P,D48,1,K*%
%TO.N,Net-(D46-Pad1)*%
X25990550Y-5472875D03*
D10*
X25758050Y-5472875D03*
D11*
X25878050Y-5472875D03*
D13*
%TO.P,D48,2,A*%
%TO.N,Net-(D48-Pad2)*%
X26538050Y-5472875D03*
D11*
X26418050Y-5472875D03*
D12*
X26305550Y-5472875D03*
%TD*%
D10*
%TO.P,D7,1,K*%
%TO.N,Net-(D1-Pad1)*%
X12899350Y-1662875D03*
D11*
X13019350Y-1662875D03*
D12*
X13131850Y-1662875D03*
D11*
%TO.P,D7,2,A*%
%TO.N,Net-(D7-Pad2)*%
X13559350Y-1662875D03*
D13*
X13679350Y-1662875D03*
D12*
X13446850Y-1662875D03*
%TD*%
D10*
%TO.P,U1,1,TX*%
%TO.N,Net-(D1-Pad1)*%
X4553750Y-1389615D03*
D13*
%TO.P,U1,2,RX*%
%TO.N,Net-(D10-Pad1)*%
X4553750Y-1643615D03*
%TO.P,U1,3,GND*%
%TO.N,N/C*%
X4553750Y-1897615D03*
%TO.P,U1,4,GND*%
X4553750Y-2151615D03*
%TO.P,U1,5,SCL*%
%TO.N,Net-(D19-Pad1)*%
X4553750Y-2405615D03*
%TO.P,U1,6,SDA*%
%TO.N,Net-(D28-Pad1)*%
X4553750Y-2659615D03*
%TO.P,U1,7,D4*%
%TO.N,Net-(D37-Pad1)*%
X4553750Y-2913615D03*
%TO.P,U1,8,C6*%
%TO.N,Net-(D46-Pad1)*%
X4553750Y-3167615D03*
%TO.P,U1,9,D7*%
%TO.N,Net-(D55-Pad1)*%
X4553750Y-3421615D03*
%TO.P,U1,10,E6*%
%TO.N,Net-(D64-Pad1)*%
X4553750Y-3675615D03*
%TO.P,U1,11,B4*%
%TO.N,Net-(D73-Pad1)*%
X4553750Y-3929615D03*
%TO.P,U1,12,B5*%
%TO.N,Net-(K1-Pad1)*%
X4553750Y-4183615D03*
%TO.P,U1,13,B6*%
%TO.N,Net-(K18-Pad1)*%
X3029750Y-4183615D03*
%TO.P,U1,14,B2*%
%TO.N,Net-(K17-Pad1)*%
X3029750Y-3929615D03*
%TO.P,U1,15,B3*%
%TO.N,Net-(K16-Pad1)*%
X3029750Y-3675615D03*
%TO.P,U1,16,B1*%
%TO.N,Net-(K15-Pad1)*%
X3029750Y-3421615D03*
%TO.P,U1,17,F7*%
%TO.N,Net-(K14-Pad1)*%
X3029750Y-3167615D03*
%TO.P,U1,18,F6*%
%TO.N,Net-(K13-Pad1)*%
X3029750Y-2913615D03*
%TO.P,U1,19,F5*%
%TO.N,Net-(K12-Pad1)*%
X3029750Y-2659615D03*
%TO.P,U1,20,F4*%
%TO.N,Net-(K11-Pad1)*%
X3029750Y-2405615D03*
%TO.P,U1,21,VCC*%
%TO.N,N/C*%
X3029750Y-2151615D03*
%TO.P,U1,22,RST*%
%TO.N,Net-(SW1-Pad2)*%
X3029750Y-1897615D03*
%TO.P,U1,23,GND*%
%TO.N,Net-(SW1-Pad1)*%
X3029750Y-1643615D03*
%TO.P,U1,24,RAW*%
%TO.N,N/C*%
X3029750Y-1389615D03*
%TD*%
D15*
%TO.N,Net-(D28-Pad1)*%
X4804010Y-2659615D03*
%TO.N,Net-(D37-Pad1)*%
X13126250Y-4878375D03*
X5061750Y-3417875D03*
X2222500Y-5207000D03*
X2667000Y-6096000D03*
%TO.N,Net-(D46-Pad1)*%
X6585750Y-4433875D03*
X35414750Y-6910375D03*
X4807750Y-2401875D03*
X4617250Y-4560875D03*
X4363250Y-2528875D03*
X5379250Y-2401875D03*
%TO.N,Net-(D55-Pad1)*%
X11856250Y-8180375D03*
%TO.N,Net-(D64-Pad1)*%
X4986354Y-7303271D03*
%TO.N,Net-(D73-Pad1)*%
X8998750Y-5830875D03*
X9348000Y-6751625D03*
X8808250Y-4052875D03*
%TO.N,Net-(K1-Pad1)*%
X24492750Y-9005875D03*
X22206750Y-9005875D03*
X1188250Y-6719875D03*
X4363250Y-7100875D03*
%TO.N,Net-(K11-Pad1)*%
X7066060Y-10248185D03*
X7474750Y-10974375D03*
%TO.N,Net-(K12-Pad1)*%
X11284750Y-6783375D03*
X22714750Y-4370375D03*
X3410750Y-2338375D03*
%TO.N,Net-(K13-Pad1)*%
X22143250Y-8624875D03*
X7786261Y-3677864D03*
X3791750Y-3354375D03*
X30202150Y-8566975D03*
%TO.N,Net-(K14-Pad1)*%
X3664750Y-5259375D03*
X7919250Y-4433875D03*
X13853700Y-6817925D03*
X29255250Y-6465875D03*
%TO.N,Net-(K15-Pad1)*%
X15980950Y-7040175D03*
X11856250Y-8751875D03*
X16491750Y-8180375D03*
X31584899Y-6803226D03*
%TO.N,Net-(K16-Pad1)*%
X9760750Y-1766875D03*
X2712250Y-3290875D03*
X14996650Y-5103475D03*
X4934750Y-9640875D03*
X8427250Y-2084375D03*
X9062250Y-1766875D03*
X31188049Y-4977576D03*
%TO.N,Net-(K17-Pad1)*%
X19568700Y-6817925D03*
X9062250Y-9005875D03*
X15475750Y-4497375D03*
X32620750Y-4814875D03*
%TO.N,Net-(K18-Pad1)*%
X4308701Y-10901924D03*
X4045750Y-10466375D03*
X35224250Y-8751875D03*
X22587750Y-8751875D03*
%TO.N,Net-(SW1-Pad1)*%
X6712750Y-1893875D03*
%TD*%
D16*
%TO.N,Net-(D1-Pad1)*%
X14916801Y-1550424D02*
X14804350Y-1662875D01*
X14804350Y-1662875D02*
X14691899Y-1775326D01*
X13011801Y-1775326D02*
X12899350Y-1662875D01*
X16709350Y-1662875D02*
X16596899Y-1550424D01*
X12786899Y-1775326D02*
X11106801Y-1775326D01*
X14691899Y-1775326D02*
X13011801Y-1775326D01*
X12899350Y-1662875D02*
X12786899Y-1775326D01*
X11106801Y-1775326D02*
X10994350Y-1662875D01*
X16596899Y-1550424D02*
X14916801Y-1550424D01*
%TO.N,Net-(D10-Pad1)*%
X19956850Y-3005375D02*
X19956850Y-2692373D01*
X19956850Y-2692373D02*
X20519350Y-2129873D01*
X18905961Y-2403484D02*
X18431128Y-1928652D01*
X18431128Y-1928652D02*
X6785201Y-1928652D01*
X22424350Y-1662875D02*
X22536801Y-1550424D01*
X20519350Y-2129873D02*
X20519350Y-1662875D01*
X4876461Y-1966326D02*
X4553750Y-1643615D01*
X24276299Y-1550424D02*
X24329350Y-1603475D01*
X19707949Y-3005375D02*
X19956850Y-3005375D01*
X18905961Y-2403484D02*
X19106058Y-2403484D01*
X6747527Y-1966326D02*
X4876461Y-1966326D01*
X22307799Y-1550424D02*
X22420250Y-1662875D01*
X6785201Y-1928652D02*
X6747527Y-1966326D01*
X20519350Y-1662875D02*
X20631801Y-1550424D01*
X19106058Y-2403484D02*
X19707949Y-3005375D01*
X22536801Y-1550424D02*
X24276299Y-1550424D01*
X20631801Y-1550424D02*
X22307799Y-1550424D01*
%TO.N,Net-(D19-Pad1)*%
X6621870Y-5862875D02*
X6870771Y-5862875D01*
X2897131Y-3455424D02*
X2986582Y-3544875D01*
X9565650Y-3567875D02*
X9678101Y-3455424D01*
X1469370Y-3567875D02*
X1581821Y-3455424D01*
X13739399Y-3455424D02*
X13851850Y-3567875D01*
X4666201Y-2958826D02*
X4666201Y-2518066D01*
X4680750Y-2973375D02*
X4666201Y-2958826D01*
X9678101Y-3455424D02*
X11834399Y-3455424D01*
X1581821Y-3455424D02*
X2897131Y-3455424D01*
X6870771Y-5862875D02*
X8242680Y-4490966D01*
X13964301Y-3455424D02*
X15644399Y-3455424D01*
X11834399Y-3455424D02*
X11946850Y-3567875D01*
X4553750Y-2405615D02*
X4287729Y-2405615D01*
X13851850Y-3567875D02*
X13964301Y-3455424D01*
X15869301Y-3455424D02*
X17549399Y-3455424D01*
X4666201Y-2518066D02*
X4553750Y-2405615D01*
X8642559Y-4490966D02*
X9565650Y-3567875D01*
X4789870Y-2973375D02*
X4680750Y-2973375D01*
X8242680Y-4490966D02*
X8642559Y-4490966D01*
X5279370Y-3462875D02*
X4789870Y-2973375D01*
X11946850Y-3567875D02*
X12059301Y-3455424D01*
X17549399Y-3455424D02*
X17661850Y-3567875D01*
X2986582Y-3544875D02*
X3351370Y-3544875D01*
X3374370Y-3318974D02*
X3374370Y-3567875D01*
X5279370Y-3567875D02*
X5279370Y-3462875D01*
X15644399Y-3455424D02*
X15756850Y-3567875D01*
X4287729Y-2405615D02*
X3374370Y-3318974D01*
X15756850Y-3567875D02*
X15869301Y-3455424D01*
X12059301Y-3455424D02*
X13739399Y-3455424D01*
%TO.N,Net-(D28-Pad1)*%
X32551299Y-3455424D02*
X32663750Y-3567875D01*
X23264399Y-3455424D02*
X23376850Y-3567875D01*
X19409447Y-3410472D02*
X19566850Y-3567875D01*
X30996850Y-3567875D02*
X31109301Y-3455424D01*
X4971661Y-2827266D02*
X5851977Y-2827266D01*
X21471850Y-3567875D02*
X21584301Y-3455424D01*
X23376850Y-3567875D02*
X23489301Y-3455424D01*
X21359399Y-3455424D02*
X21471850Y-3567875D01*
X27186850Y-3567875D02*
X27299301Y-3455424D01*
X6824465Y-3410472D02*
X19409447Y-3410472D01*
X5851977Y-2827266D02*
X5972369Y-2706874D01*
X21584301Y-3455424D02*
X23264399Y-3455424D01*
X34706059Y-3228984D02*
X35044950Y-3567875D01*
X28975299Y-3455424D02*
X29087750Y-3567875D01*
X27074399Y-3455424D02*
X27186850Y-3567875D01*
X33002641Y-3228984D02*
X34706059Y-3228984D01*
X6120867Y-2706874D02*
X6824465Y-3410472D01*
X30884399Y-3455424D02*
X30996850Y-3567875D01*
X19566850Y-3567875D02*
X19679301Y-3455424D01*
X31109301Y-3455424D02*
X32551299Y-3455424D01*
X25169399Y-3455424D02*
X25281850Y-3567875D01*
X29204301Y-3455424D02*
X30884399Y-3455424D01*
X29091850Y-3567875D02*
X29204301Y-3455424D01*
X5972369Y-2706874D02*
X6120867Y-2706874D01*
X4804010Y-2659615D02*
X4971661Y-2827266D01*
X25394301Y-3455424D02*
X27074399Y-3455424D01*
X25281850Y-3567875D02*
X25394301Y-3455424D01*
X32663750Y-3567875D02*
X33002641Y-3228984D01*
X19679301Y-3455424D02*
X21359399Y-3455424D01*
X27299301Y-3455424D02*
X28975299Y-3455424D01*
X23489301Y-3455424D02*
X25169399Y-3455424D01*
%TO.N,Net-(D37-Pad1)*%
X7934368Y-5472875D02*
X7327367Y-6079876D01*
X5781371Y-6079876D02*
X5279370Y-5577875D01*
X4621249Y-2977446D02*
X4617581Y-2977446D01*
X7327367Y-6079876D02*
X5781371Y-6079876D01*
X18138050Y-5472875D02*
X18250501Y-5360424D01*
X4617581Y-2977446D02*
X4553750Y-2913615D01*
X5061750Y-3417875D02*
X5061678Y-3417875D01*
X18250501Y-5360424D02*
X19930599Y-5360424D01*
X12655550Y-5349075D02*
X13126250Y-4878375D01*
X14673001Y-5360424D02*
X16120599Y-5360424D01*
X1469370Y-5472875D02*
X1735245Y-5207000D01*
X16233050Y-5472875D02*
X16345501Y-5360424D01*
X5061678Y-3417875D02*
X4621249Y-2977446D01*
X9916201Y-5360424D02*
X12310599Y-5360424D01*
X12310599Y-5360424D02*
X12423050Y-5472875D01*
X3486821Y-5360424D02*
X3374370Y-5472875D01*
X2751245Y-6096000D02*
X3374370Y-5472875D01*
X14560550Y-5472875D02*
X14673001Y-5360424D01*
X16345501Y-5360424D02*
X18025599Y-5360424D01*
X9803750Y-5472875D02*
X9916201Y-5360424D01*
X12655550Y-5472875D02*
X12655550Y-5349075D01*
X5279370Y-5472875D02*
X5166919Y-5360424D01*
X19930599Y-5360424D02*
X20043050Y-5472875D01*
X16120599Y-5360424D02*
X16233050Y-5472875D01*
X1735245Y-5207000D02*
X2222500Y-5207000D01*
X18025599Y-5360424D02*
X18138050Y-5472875D01*
X2667000Y-6096000D02*
X2751245Y-6096000D01*
X5279370Y-5577875D02*
X5279370Y-5472875D01*
X9803750Y-5472875D02*
X7934368Y-5472875D01*
X5166919Y-5360424D02*
X3486821Y-5360424D01*
%TO.N,Net-(D46-Pad1)*%
X4553750Y-3167615D02*
X4330108Y-3167615D01*
X36317451Y-3893948D02*
X36317451Y-6325246D01*
X23853050Y-5472875D02*
X23740599Y-5585326D01*
X9176351Y-2523876D02*
X9298352Y-2401875D01*
X9298352Y-2401875D02*
X10197438Y-2401875D01*
X22060501Y-5585326D02*
X21948050Y-5472875D01*
X9020349Y-2523876D02*
X9176351Y-2523876D01*
X35607535Y-3184032D02*
X36317451Y-3893948D01*
X10517811Y-2550326D02*
X11151517Y-3184032D01*
X31473050Y-5472875D02*
X31360599Y-5585326D01*
X4676751Y-4620376D02*
X5255770Y-4620376D01*
X31360599Y-5585326D02*
X29680501Y-5585326D01*
X4330108Y-3167615D02*
X4109250Y-2946757D01*
X25758050Y-5472875D02*
X25645599Y-5585326D01*
X27550599Y-5585326D02*
X25834701Y-5585326D01*
X10345889Y-2550326D02*
X10517811Y-2550326D01*
X4109250Y-2946757D02*
X4109250Y-2782875D01*
X29568050Y-5472875D02*
X29455599Y-5585326D01*
X5567662Y-4308484D02*
X6460359Y-4308484D01*
X27663050Y-5472875D02*
X27550599Y-5585326D01*
X25834701Y-5585326D02*
X25758050Y-5508675D01*
X1469370Y-7377875D02*
X1581821Y-7265424D01*
X31567201Y-5360424D02*
X31473050Y-5454575D01*
X11151517Y-3184032D02*
X35607535Y-3184032D01*
X4617250Y-4560875D02*
X4676751Y-4620376D01*
X8898348Y-2401875D02*
X9020349Y-2523876D01*
X1581821Y-7265424D02*
X3261919Y-7265424D01*
X34568750Y-5472875D02*
X34456299Y-5360424D01*
X29680501Y-5585326D02*
X29568050Y-5472875D01*
X5379250Y-2401875D02*
X8898348Y-2401875D01*
X4109250Y-2782875D02*
X4363250Y-2528875D01*
X29455599Y-5585326D02*
X27775501Y-5585326D01*
X4807750Y-2401875D02*
X5379250Y-2401875D01*
X3261919Y-7265424D02*
X3374370Y-7377875D01*
X5255770Y-4620376D02*
X5567662Y-4308484D01*
X23740599Y-5585326D02*
X22060501Y-5585326D01*
X10197438Y-2401875D02*
X10345889Y-2550326D01*
X6460359Y-4308484D02*
X6585750Y-4433875D01*
X25645599Y-5585326D02*
X23965501Y-5585326D01*
X27775501Y-5585326D02*
X27663050Y-5472875D01*
X23965501Y-5585326D02*
X23853050Y-5472875D01*
X36317451Y-6325246D02*
X35732322Y-6910375D01*
X34456299Y-5360424D02*
X31567201Y-5360424D01*
X35732322Y-6910375D02*
X35414750Y-6910375D01*
%TO.N,Net-(D55-Pad1)*%
X19203101Y-7265424D02*
X19090650Y-7377875D01*
X13488101Y-7265424D02*
X13375650Y-7377875D01*
X18978199Y-7265424D02*
X17298101Y-7265424D01*
X6726870Y-9672875D02*
X6621870Y-9672875D01*
X9486096Y-7377875D02*
X7792987Y-9070984D01*
X7792987Y-9070984D02*
X7328761Y-9070984D01*
X7328761Y-9070984D02*
X6726870Y-9672875D01*
X6621870Y-9672875D02*
X5881261Y-8932266D01*
X20883199Y-7265424D02*
X19203101Y-7265424D01*
X5379250Y-7518757D02*
X5379250Y-7477755D01*
X15168199Y-7265424D02*
X13488101Y-7265424D01*
X17185650Y-7377875D02*
X17073199Y-7265424D01*
X22788199Y-7265424D02*
X22900650Y-7377875D01*
X10279950Y-7377875D02*
X9486096Y-7377875D01*
X5881261Y-8932266D02*
X5881261Y-8020768D01*
X19090650Y-7377875D02*
X18978199Y-7265424D01*
X12658750Y-7377875D02*
X11856250Y-8180375D01*
X5881261Y-8020768D02*
X5379250Y-7518757D01*
X15280650Y-7377875D02*
X15168199Y-7265424D01*
X15393101Y-7265424D02*
X15280650Y-7377875D01*
X5379250Y-7477755D02*
X5279370Y-7377875D01*
X17073199Y-7265424D02*
X15393101Y-7265424D01*
X20995650Y-7377875D02*
X21108101Y-7265424D01*
X20995650Y-7377875D02*
X20883199Y-7265424D01*
X12658750Y-7377875D02*
X13375650Y-7377875D01*
X17298101Y-7265424D02*
X17185650Y-7377875D01*
X21108101Y-7265424D02*
X22788199Y-7265424D01*
%TO.N,Net-(D64-Pad1)*%
X7496372Y-9690874D02*
X7482871Y-9704375D01*
X24738299Y-7490326D02*
X24805650Y-7422975D01*
X10821850Y-9282875D02*
X11160741Y-8943984D01*
X20926649Y-8238876D02*
X21132249Y-8238876D01*
X21386249Y-7984876D02*
X22760647Y-7984876D01*
X19268759Y-8387866D02*
X19268759Y-8228667D01*
X20806257Y-8118484D02*
X20926649Y-8238876D01*
X3368298Y-9282875D02*
X3255847Y-9395326D01*
X5279370Y-9282875D02*
X3368298Y-9282875D01*
X2534321Y-9395326D02*
X2421870Y-9282875D01*
X7482871Y-9741876D02*
X7334871Y-9889876D01*
X13943659Y-8542266D02*
X19114359Y-8542266D01*
X19268759Y-8228667D02*
X19378942Y-8118484D01*
X19378942Y-8118484D02*
X20806257Y-8118484D01*
X5845369Y-9889876D02*
X5279370Y-9323877D01*
X7482871Y-9704375D02*
X7482871Y-9741876D01*
X30520650Y-7377875D02*
X30408199Y-7265424D01*
X30408199Y-7265424D02*
X28728101Y-7265424D01*
X33991759Y-7038984D02*
X30859541Y-7038984D01*
X24805650Y-7295975D02*
X24805650Y-7377875D01*
X26710650Y-7377875D02*
X26598199Y-7265424D01*
X3255847Y-9395326D02*
X2534321Y-9395326D01*
X10821850Y-9282875D02*
X10709399Y-9170424D01*
X7334871Y-9889876D02*
X5845369Y-9889876D01*
X22760647Y-7984876D02*
X23255197Y-7490326D01*
X24836201Y-7265424D02*
X24805650Y-7295975D01*
X13203050Y-9282875D02*
X13943659Y-8542266D01*
X10709399Y-9170424D02*
X9786701Y-9170424D01*
X28503199Y-7265424D02*
X26823101Y-7265424D01*
X26823101Y-7265424D02*
X26710650Y-7377875D01*
X4986354Y-8989859D02*
X5279370Y-9282875D01*
X21132249Y-8238876D02*
X21386249Y-7984876D01*
X9786701Y-9170424D02*
X9266251Y-9690874D01*
X28615650Y-7377875D02*
X28503199Y-7265424D01*
X30859541Y-7038984D02*
X30520650Y-7377875D01*
X9266251Y-9690874D02*
X7496372Y-9690874D01*
X23255197Y-7490326D02*
X24738299Y-7490326D01*
X26598199Y-7265424D02*
X24836201Y-7265424D01*
X11160741Y-8943984D02*
X12864159Y-8943984D01*
X4986354Y-7303271D02*
X4986354Y-8989859D01*
X12864159Y-8943984D02*
X13203050Y-9282875D01*
X34330650Y-7377875D02*
X33991759Y-7038984D01*
X28728101Y-7265424D02*
X28615650Y-7377875D01*
X19114359Y-8542266D02*
X19268759Y-8387866D01*
%TO.N,Net-(D73-Pad1)*%
X34634350Y-10548275D02*
X34557250Y-10625375D01*
X22669752Y-10625375D02*
X21934253Y-9889876D01*
X14089950Y-9282875D02*
X14089950Y-9387875D01*
X4553750Y-3929615D02*
X5600108Y-3929615D01*
X5845369Y-4174876D02*
X6736015Y-4174876D01*
X21934253Y-9889876D02*
X21735751Y-9889876D01*
X9348000Y-6751625D02*
X8998750Y-6402375D01*
X8998750Y-6402375D02*
X8998750Y-5830875D01*
X21735751Y-9889876D02*
X21233750Y-9387875D01*
X30758750Y-9282875D02*
X30758750Y-9597875D01*
X34634350Y-9282875D02*
X34634350Y-10548275D01*
X27382250Y-10625375D02*
X36863750Y-10625375D01*
X28377450Y-9282875D02*
X28377450Y-9630175D01*
X14089950Y-9387875D02*
X14591951Y-9889876D01*
X6736015Y-4174876D02*
X6858016Y-4052875D01*
X20626749Y-9889876D02*
X21233750Y-9282875D01*
X14591951Y-9889876D02*
X20626749Y-9889876D01*
X27382250Y-10625375D02*
X22669752Y-10625375D01*
X5600108Y-3929615D02*
X5845369Y-4174876D01*
X30758750Y-9597875D02*
X29731250Y-10625375D01*
X6858016Y-4052875D02*
X8808250Y-4052875D01*
X21233750Y-9387875D02*
X21233750Y-9282875D01*
X28377450Y-9630175D02*
X27382250Y-10625375D01*
%TO.N,Net-(K1-Pad1)*%
X1904353Y-6719875D02*
X1188250Y-6719875D01*
X4363250Y-7100875D02*
X2285353Y-7100875D01*
X4440613Y-4183615D02*
X1904353Y-6719875D01*
X4553750Y-4183615D02*
X4440613Y-4183615D01*
X22206750Y-9005875D02*
X24492750Y-9005875D01*
X2285353Y-7100875D02*
X1904353Y-6719875D01*
%TO.N,Net-(K11-Pad1)*%
X7066060Y-10248185D02*
X7474750Y-10656875D01*
X7474750Y-10656875D02*
X7474750Y-10974375D01*
%TO.N,Net-(K12-Pad1)*%
X15616847Y-4174876D02*
X15687849Y-4103874D01*
X17839959Y-4428876D02*
X18080461Y-4188374D01*
X14273750Y-4174876D02*
X15616847Y-4174876D01*
X12878099Y-5428738D02*
X12878099Y-5386914D01*
X17470848Y-4306875D02*
X17592849Y-4428876D01*
X3410750Y-2338375D02*
X3350990Y-2338375D01*
X13828250Y-4620376D02*
X14273750Y-4174876D01*
X21966847Y-4103874D02*
X22233348Y-4370375D01*
X16046852Y-4306875D02*
X17470848Y-4306875D01*
X21402849Y-4103874D02*
X21966847Y-4103874D01*
X12878099Y-5386914D02*
X13644637Y-4620376D01*
X21326848Y-4179875D02*
X21402849Y-4103874D01*
X19413349Y-4188374D02*
X19497849Y-4103874D01*
X22233348Y-4370375D02*
X22714750Y-4370375D01*
X17592849Y-4428876D02*
X17839959Y-4428876D01*
X20061847Y-4103874D02*
X20137848Y-4179875D01*
X18080461Y-4188374D02*
X19413349Y-4188374D01*
X3350990Y-2338375D02*
X3029750Y-2659615D01*
X13644637Y-4620376D02*
X13828250Y-4620376D01*
X15687849Y-4103874D02*
X15843851Y-4103874D01*
X11284750Y-6783375D02*
X11523462Y-6783375D01*
X20137848Y-4179875D02*
X21326848Y-4179875D01*
X19497849Y-4103874D02*
X20061847Y-4103874D01*
X11523462Y-6783375D02*
X12878099Y-5428738D01*
X15843851Y-4103874D02*
X16046852Y-4306875D01*
%TO.N,Net-(K13-Pad1)*%
X5173409Y-3680326D02*
X7529799Y-3680326D01*
X3836961Y-3309164D02*
X4802247Y-3309164D01*
X30202150Y-8566975D02*
X29948150Y-8566975D01*
X7780272Y-3671875D02*
X7786261Y-3677864D01*
X22143250Y-8624875D02*
X29890250Y-8624875D01*
X29948150Y-8566975D02*
X29890250Y-8624875D01*
X3791750Y-3354375D02*
X3836961Y-3309164D01*
X7538250Y-3671875D02*
X7780272Y-3671875D01*
X4802247Y-3309164D02*
X5173409Y-3680326D01*
X7529799Y-3680326D02*
X7538250Y-3671875D01*
%TO.N,Net-(K14-Pad1)*%
X28975651Y-6745474D02*
X13926151Y-6745474D01*
X6405942Y-5132375D02*
X3982250Y-5132375D01*
X3982250Y-5132375D02*
X3855250Y-5259375D01*
X28975651Y-6745474D02*
X29255250Y-6465875D01*
X7104442Y-4433875D02*
X6405942Y-5132375D01*
X7919250Y-4433875D02*
X7104442Y-4433875D01*
X13926151Y-6745474D02*
X13853700Y-6817925D01*
X3855250Y-5259375D02*
X3664750Y-5259375D01*
%TO.N,Net-(K15-Pad1)*%
X16027093Y-6994032D02*
X31394093Y-6994032D01*
X15980950Y-7040175D02*
X16027093Y-6994032D01*
X16042148Y-8180375D02*
X16491750Y-8180375D01*
X14495750Y-7913874D02*
X15775647Y-7913874D01*
X31394093Y-6994032D02*
X31584899Y-6803226D01*
X15775647Y-7913874D02*
X16042148Y-8180375D01*
X11856250Y-8751875D02*
X13657749Y-8751875D01*
X13657749Y-8751875D02*
X14495750Y-7913874D01*
%TO.N,Net-(K16-Pad1)*%
X31188049Y-4977576D02*
X16509937Y-4977576D01*
X3142201Y-4746472D02*
X2303347Y-5585326D01*
X2494016Y-10656875D02*
X3129724Y-10656875D01*
X16355138Y-5132375D02*
X15602750Y-5132375D01*
X15573850Y-5103475D02*
X15602750Y-5132375D01*
X1640871Y-6283876D02*
X1399371Y-6525376D01*
X1115799Y-6685098D02*
X1115799Y-9278658D01*
X4145724Y-9640875D02*
X4934750Y-9640875D01*
X1399371Y-6525376D02*
X1275521Y-6525376D01*
X9760750Y-1766875D02*
X9062250Y-1766875D01*
X3029750Y-3675615D02*
X3142201Y-3788066D01*
X2303347Y-5585326D02*
X2195799Y-5585326D01*
X1275521Y-6525376D02*
X1115799Y-6685098D01*
X3283750Y-2782396D02*
X3283750Y-3036875D01*
X1640871Y-6140254D02*
X1640871Y-6283876D01*
X16509937Y-4977576D02*
X16355138Y-5132375D01*
X14996650Y-5103475D02*
X15573850Y-5103475D01*
X2195799Y-5585326D02*
X1640871Y-6140254D01*
X8382039Y-2039164D02*
X4471961Y-2039164D01*
X2966250Y-3036875D02*
X2712250Y-3290875D01*
X3283750Y-3036875D02*
X2966250Y-3036875D01*
X3142201Y-3788066D02*
X3142201Y-4746472D01*
X4107641Y-2403484D02*
X3662662Y-2403484D01*
X4471961Y-2039164D02*
X4107641Y-2403484D01*
X3662662Y-2403484D02*
X3283750Y-2782396D01*
X8427250Y-2084375D02*
X8382039Y-2039164D01*
X3129724Y-10656875D02*
X4145724Y-9640875D01*
X1115799Y-9278658D02*
X2494016Y-10656875D01*
%TO.N,Net-(K17-Pad1)*%
X35941859Y-5899556D02*
X34857178Y-4814875D01*
X14931648Y-4620376D02*
X12085050Y-7466974D01*
X35941859Y-6637266D02*
X35941859Y-5899556D01*
X31110502Y-6817925D02*
X31291161Y-6637266D01*
X12085050Y-7466974D02*
X11784597Y-7466974D01*
X15475750Y-4497375D02*
X15352749Y-4620376D01*
X11651859Y-7599712D02*
X10468413Y-7599712D01*
X11784597Y-7466974D02*
X11651859Y-7599712D01*
X10468413Y-7599712D02*
X9062250Y-9005875D01*
X15352749Y-4620376D02*
X14931648Y-4620376D01*
X34857178Y-4814875D02*
X32620750Y-4814875D01*
X19568700Y-6817925D02*
X31110502Y-6817925D01*
X31291161Y-6637266D02*
X35941859Y-6637266D01*
%TO.N,Net-(K18-Pad1)*%
X35224250Y-8751875D02*
X22587750Y-8751875D01*
X4308701Y-10901924D02*
X4308701Y-10729326D01*
X4308701Y-10729326D02*
X4045750Y-10466375D01*
%TO.N,Net-(SW1-Pad1)*%
X3029750Y-1643615D02*
X3142201Y-1531164D01*
X3142201Y-1531164D02*
X6350039Y-1531164D01*
X6350039Y-1531164D02*
X6712750Y-1893875D01*
%TD*%
M02*
