%TF.GenerationSoftware,KiCad,Pcbnew,5.99.0-unknown-4f191ce2c7~125~ubuntu18.04.1*%
%TF.CreationDate,2021-04-25T16:47:38-05:00*%
%TF.ProjectId,southpawpcb,736f7574-6870-4617-9770-63622e6b6963,rev?*%
%TF.SameCoordinates,Original*%
%TF.FileFunction,Soldermask,Top*%
%TF.FilePolarity,Negative*%
%FSLAX45Y45*%
G04 Gerber Fmt 4.5, Leading zero omitted, Abs format (unit mm)*
G04 Created by KiCad (PCBNEW 5.99.0-unknown-4f191ce2c7~125~ubuntu18.04.1) date 2021-04-25 16:47:38*
%MOMM*%
%LPD*%
G01*
G04 APERTURE LIST*
%ADD10C,3.987800*%
%ADD11C,3.000000*%
%ADD12C,1.750000*%
%ADD13C,3.048000*%
%ADD14R,1.600000X1.600000*%
%ADD15R,1.200000X1.200000*%
%ADD16C,1.600000*%
G04 APERTURE END LIST*
D10*
%TO.C,K1*%
X1859370Y-2615375D03*
D11*
X1478370Y-2361375D03*
D12*
X2367370Y-2615375D03*
D11*
X2113370Y-2107375D03*
D12*
X1351370Y-2615375D03*
%TD*%
%TO.C,K24*%
X12844850Y-4520375D03*
D11*
X11955850Y-4266375D03*
D12*
X11828850Y-4520375D03*
D10*
X12336850Y-4520375D03*
D11*
X12590850Y-4012375D03*
%TD*%
D12*
%TO.C,K19*%
X1351370Y-4520375D03*
D11*
X2113370Y-4012375D03*
X1478370Y-4266375D03*
D12*
X2367370Y-4520375D03*
D10*
X1859370Y-4520375D03*
%TD*%
D13*
%TO.C,K18*%
X34003050Y-1916875D03*
D12*
X35704850Y-2615375D03*
D13*
X36390650Y-1916875D03*
D10*
X36390650Y-3440875D03*
X35196850Y-2615375D03*
X34003050Y-3440875D03*
D11*
X34815850Y-2361375D03*
X35450850Y-2107375D03*
D12*
X34688850Y-2615375D03*
%TD*%
%TO.C,K33*%
X28973850Y-4520375D03*
D11*
X29100850Y-4266375D03*
X29735850Y-4012375D03*
D12*
X29989850Y-4520375D03*
D10*
X29481850Y-4520375D03*
%TD*%
%TO.C,K47*%
X24243050Y-6425375D03*
D11*
X24497050Y-5917375D03*
D12*
X23735050Y-6425375D03*
D11*
X23862050Y-6171375D03*
D12*
X24751050Y-6425375D03*
%TD*%
D10*
%TO.C,K17*%
X32339350Y-2615375D03*
D11*
X31958350Y-2361375D03*
D12*
X32847350Y-2615375D03*
X31831350Y-2615375D03*
D11*
X32593350Y-2107375D03*
%TD*%
D12*
%TO.C,K34*%
X30878850Y-4520375D03*
D10*
X31386850Y-4520375D03*
D12*
X31894850Y-4520375D03*
D11*
X31640850Y-4012375D03*
X31005850Y-4266375D03*
%TD*%
D10*
%TO.C,K78*%
X35911250Y-10235375D03*
D11*
X35530250Y-9981375D03*
D12*
X36419250Y-10235375D03*
D11*
X36165250Y-9727375D03*
D12*
X35403250Y-10235375D03*
%TD*%
D11*
%TO.C,K45*%
X20687050Y-5917375D03*
D10*
X20433050Y-6425375D03*
D12*
X19925050Y-6425375D03*
D11*
X20052050Y-6171375D03*
D12*
X20941050Y-6425375D03*
%TD*%
%TO.C,K32*%
X28084850Y-4520375D03*
D11*
X27195850Y-4266375D03*
X27830850Y-4012375D03*
D12*
X27068850Y-4520375D03*
D10*
X27576850Y-4520375D03*
%TD*%
D12*
%TO.C,K13*%
X25227350Y-2615375D03*
X24211350Y-2615375D03*
D11*
X24973350Y-2107375D03*
X24338350Y-2361375D03*
D10*
X24719350Y-2615375D03*
%TD*%
D11*
%TO.C,K66*%
X28624650Y-8076375D03*
D12*
X29513650Y-8330375D03*
X28497650Y-8330375D03*
D11*
X29259650Y-7822375D03*
D10*
X29005650Y-8330375D03*
%TD*%
%TO.C,K75*%
X28767450Y-10235375D03*
D11*
X28386450Y-9981375D03*
D12*
X29275450Y-10235375D03*
D11*
X29021450Y-9727375D03*
D12*
X28259450Y-10235375D03*
%TD*%
%TO.C,K23*%
X10463650Y-4520375D03*
D11*
X10209650Y-4012375D03*
D10*
X9955650Y-4520375D03*
D11*
X9574650Y-4266375D03*
D12*
X9447650Y-4520375D03*
%TD*%
D11*
%TO.C,K7*%
X12908350Y-2361375D03*
D12*
X13797350Y-2615375D03*
X12781350Y-2615375D03*
D10*
X13289350Y-2615375D03*
D11*
X13543350Y-2107375D03*
%TD*%
D12*
%TO.C,K2*%
X3764370Y-3123375D03*
D11*
X4272370Y-2869375D03*
X4018370Y-2234375D03*
D12*
X3764370Y-2107375D03*
D10*
X3764370Y-2615375D03*
%TD*%
D12*
%TO.C,K4*%
X8082370Y-2615375D03*
X7066370Y-2615375D03*
D11*
X7320370Y-3123375D03*
D10*
X7574370Y-2615375D03*
D11*
X7955370Y-2869375D03*
%TD*%
D12*
%TO.C,K3*%
X5161370Y-2615375D03*
X6177370Y-2615375D03*
D10*
X5669370Y-2615375D03*
D11*
X5415370Y-3123375D03*
X6050370Y-2869375D03*
%TD*%
D12*
%TO.C,K21*%
X5161370Y-4520375D03*
D11*
X5923370Y-4012375D03*
D12*
X6177370Y-4520375D03*
D10*
X5669370Y-4520375D03*
D11*
X5288370Y-4266375D03*
%TD*%
D12*
%TO.C,K74*%
X21115750Y-10235375D03*
D10*
X21623750Y-10235375D03*
D13*
X26623740Y-9536875D03*
X16623760Y-9536875D03*
D10*
X26623740Y-11060875D03*
D11*
X21877750Y-9727375D03*
D10*
X16623760Y-11060875D03*
D12*
X22131750Y-10235375D03*
D11*
X21242750Y-9981375D03*
%TD*%
D12*
%TO.C,K29*%
X21353850Y-4520375D03*
D11*
X22115850Y-4012375D03*
D12*
X22369850Y-4520375D03*
D11*
X21480850Y-4266375D03*
D10*
X21861850Y-4520375D03*
%TD*%
D11*
%TO.C,K44*%
X18782050Y-5917375D03*
D12*
X18020050Y-6425375D03*
D11*
X18147050Y-6171375D03*
D10*
X18528050Y-6425375D03*
D12*
X19036050Y-6425375D03*
%TD*%
%TO.C,K20*%
X3764370Y-5028375D03*
D11*
X4272370Y-4774375D03*
D10*
X3764370Y-4520375D03*
D12*
X3764370Y-4012375D03*
D11*
X4018370Y-4139375D03*
%TD*%
D10*
%TO.C,K42*%
X14718050Y-6425375D03*
D12*
X15226050Y-6425375D03*
X14210050Y-6425375D03*
D11*
X14337050Y-6171375D03*
X14972050Y-5917375D03*
%TD*%
D10*
%TO.C,K76*%
X31148750Y-10235375D03*
D11*
X30767750Y-9981375D03*
X31402750Y-9727375D03*
D12*
X30640750Y-10235375D03*
X31656750Y-10235375D03*
%TD*%
D10*
%TO.C,K53*%
X1859370Y-8330375D03*
D11*
X1478370Y-8076375D03*
D12*
X1351370Y-8330375D03*
D11*
X2113370Y-7822375D03*
D12*
X2367370Y-8330375D03*
%TD*%
D11*
%TO.C,K48*%
X26402050Y-5917375D03*
D12*
X26656050Y-6425375D03*
D11*
X25767050Y-6171375D03*
D10*
X26148050Y-6425375D03*
D12*
X25640050Y-6425375D03*
%TD*%
D11*
%TO.C,K61*%
X19099650Y-8076375D03*
D12*
X18972650Y-8330375D03*
D10*
X19480650Y-8330375D03*
D11*
X19734650Y-7822375D03*
D12*
X19988650Y-8330375D03*
%TD*%
%TO.C,K12*%
X22306350Y-2615375D03*
D11*
X23068350Y-2107375D03*
X22433350Y-2361375D03*
D12*
X23322350Y-2615375D03*
D10*
X22814350Y-2615375D03*
%TD*%
D12*
%TO.C,K39*%
X6177370Y-6425375D03*
D10*
X5669370Y-6425375D03*
D12*
X5161370Y-6425375D03*
D11*
X5288370Y-6171375D03*
X5923370Y-5917375D03*
%TD*%
D13*
%TO.C,K56*%
X6875870Y-10476675D03*
D12*
X7574370Y-9790875D03*
X7574370Y-8774875D03*
D13*
X6875870Y-8089075D03*
D10*
X7574370Y-9282875D03*
D11*
X7066370Y-9028875D03*
D10*
X8399870Y-8089075D03*
D11*
X7320370Y-9663875D03*
D10*
X8399870Y-10476675D03*
%TD*%
D12*
%TO.C,K50*%
X30466050Y-6425375D03*
D10*
X29958050Y-6425375D03*
D11*
X30212050Y-5917375D03*
X29577050Y-6171375D03*
D12*
X29450050Y-6425375D03*
%TD*%
D11*
%TO.C,K55*%
X5288370Y-8076375D03*
D12*
X5161370Y-8330375D03*
X6177370Y-8330375D03*
D11*
X5923370Y-7822375D03*
D10*
X5669370Y-8330375D03*
%TD*%
D12*
%TO.C,K52*%
X34450750Y-6425375D03*
D13*
X33764950Y-5726875D03*
D11*
X35212750Y-5917375D03*
D10*
X36152550Y-7250875D03*
D13*
X36152550Y-5726875D03*
D12*
X35466750Y-6425375D03*
D10*
X34958750Y-6425375D03*
X33764950Y-7250875D03*
D11*
X34577750Y-6171375D03*
%TD*%
%TO.C,K38*%
X3383370Y-6171375D03*
D12*
X3256370Y-6425375D03*
D11*
X4018370Y-5917375D03*
D12*
X4272370Y-6425375D03*
D10*
X3764370Y-6425375D03*
%TD*%
D12*
%TO.C,K58*%
X13257650Y-8330375D03*
D10*
X13765650Y-8330375D03*
D12*
X14273650Y-8330375D03*
D11*
X14019650Y-7822375D03*
X13384650Y-8076375D03*
%TD*%
%TO.C,K60*%
X17194650Y-8076375D03*
D12*
X17067650Y-8330375D03*
D11*
X17829650Y-7822375D03*
D12*
X18083650Y-8330375D03*
D10*
X17575650Y-8330375D03*
%TD*%
D11*
%TO.C,K62*%
X21639650Y-7822375D03*
D12*
X21893650Y-8330375D03*
X20877650Y-8330375D03*
D10*
X21385650Y-8330375D03*
D11*
X21004650Y-8076375D03*
%TD*%
%TO.C,K10*%
X18623350Y-2361375D03*
X19258350Y-2107375D03*
D10*
X19004350Y-2615375D03*
D12*
X19512350Y-2615375D03*
X18496350Y-2615375D03*
%TD*%
D11*
%TO.C,K14*%
X26878350Y-2107375D03*
D12*
X27132350Y-2615375D03*
X26116350Y-2615375D03*
D10*
X26624350Y-2615375D03*
D11*
X26243350Y-2361375D03*
%TD*%
D12*
%TO.C,K11*%
X20401350Y-2615375D03*
D11*
X21163350Y-2107375D03*
X20528350Y-2361375D03*
D10*
X20909350Y-2615375D03*
D12*
X21417350Y-2615375D03*
%TD*%
%TO.C,K51*%
X31355050Y-6425375D03*
D11*
X31482050Y-6171375D03*
D12*
X32371050Y-6425375D03*
D10*
X31863050Y-6425375D03*
D11*
X32117050Y-5917375D03*
%TD*%
D10*
%TO.C,K57*%
X11863750Y-9155875D03*
X9476150Y-9155875D03*
D11*
X10288950Y-8076375D03*
D13*
X9476150Y-7631875D03*
D10*
X10669950Y-8330375D03*
D12*
X11177950Y-8330375D03*
D13*
X11863750Y-7631875D03*
D12*
X10161950Y-8330375D03*
D11*
X10923950Y-7822375D03*
%TD*%
D12*
%TO.C,K54*%
X4272370Y-8330375D03*
D11*
X3383370Y-8076375D03*
X4018370Y-7822375D03*
D10*
X3764370Y-8330375D03*
D12*
X3256370Y-8330375D03*
%TD*%
D11*
%TO.C,K9*%
X16718350Y-2361375D03*
D12*
X17607350Y-2615375D03*
X16591350Y-2615375D03*
D10*
X17099350Y-2615375D03*
D11*
X17353350Y-2107375D03*
%TD*%
D12*
%TO.C,K36*%
X36181050Y-4520375D03*
X35165050Y-4520375D03*
D11*
X35927050Y-4012375D03*
X35292050Y-4266375D03*
D10*
X35673050Y-4520375D03*
%TD*%
D11*
%TO.C,K37*%
X2113370Y-5917375D03*
D10*
X1859370Y-6425375D03*
D11*
X1478370Y-6171375D03*
D12*
X2367370Y-6425375D03*
X1351370Y-6425375D03*
%TD*%
D11*
%TO.C,K16*%
X30053350Y-2361375D03*
D10*
X30434350Y-2615375D03*
D12*
X29926350Y-2615375D03*
D11*
X30688350Y-2107375D03*
D12*
X30942350Y-2615375D03*
%TD*%
D13*
%TO.C,K22*%
X6875870Y-4279075D03*
D12*
X7574370Y-4964875D03*
D13*
X6875870Y-6666675D03*
D12*
X7574370Y-5980875D03*
D10*
X8399870Y-6666675D03*
X8399870Y-4279075D03*
D11*
X7066370Y-5218875D03*
D10*
X7574370Y-5472875D03*
D11*
X7320370Y-5853875D03*
%TD*%
%TO.C,K15*%
X28148350Y-2361375D03*
D12*
X28021350Y-2615375D03*
D10*
X28529350Y-2615375D03*
D11*
X28783350Y-2107375D03*
D12*
X29037350Y-2615375D03*
%TD*%
D10*
%TO.C,K72*%
X12098750Y-10235375D03*
D12*
X11590750Y-10235375D03*
D11*
X11717750Y-9981375D03*
X12352750Y-9727375D03*
D12*
X12606750Y-10235375D03*
%TD*%
%TO.C,K49*%
X28561050Y-6425375D03*
X27545050Y-6425375D03*
D10*
X28053050Y-6425375D03*
D11*
X27672050Y-6171375D03*
X28307050Y-5917375D03*
%TD*%
%TO.C,K73*%
X14733950Y-9727375D03*
D12*
X14987950Y-10235375D03*
D11*
X14098950Y-9981375D03*
D12*
X13971950Y-10235375D03*
D10*
X14479950Y-10235375D03*
%TD*%
D11*
%TO.C,K43*%
X16242050Y-6171375D03*
D12*
X16115050Y-6425375D03*
D11*
X16877050Y-5917375D03*
D12*
X17131050Y-6425375D03*
D10*
X16623050Y-6425375D03*
%TD*%
D12*
%TO.C,K41*%
X13321050Y-6425375D03*
D11*
X13067050Y-5917375D03*
D10*
X12813050Y-6425375D03*
D12*
X12305050Y-6425375D03*
D11*
X12432050Y-6171375D03*
%TD*%
D12*
%TO.C,K63*%
X23798650Y-8330375D03*
D11*
X22909650Y-8076375D03*
D10*
X23290650Y-8330375D03*
D11*
X23544650Y-7822375D03*
D12*
X22782650Y-8330375D03*
%TD*%
D11*
%TO.C,K40*%
X9812750Y-6171375D03*
X10447750Y-5917375D03*
D12*
X10701750Y-6425375D03*
D10*
X10193750Y-6425375D03*
D12*
X9685750Y-6425375D03*
%TD*%
%TO.C,K31*%
X25163850Y-4520375D03*
D10*
X25671850Y-4520375D03*
D12*
X26179850Y-4520375D03*
D11*
X25290850Y-4266375D03*
X25925850Y-4012375D03*
%TD*%
D12*
%TO.C,K35*%
X32783850Y-4520375D03*
D11*
X33545850Y-4012375D03*
X32910850Y-4266375D03*
D12*
X33799850Y-4520375D03*
D10*
X33291850Y-4520375D03*
%TD*%
D12*
%TO.C,K30*%
X23258850Y-4520375D03*
D11*
X23385850Y-4266375D03*
D10*
X23766850Y-4520375D03*
D11*
X24020850Y-4012375D03*
D12*
X24274850Y-4520375D03*
%TD*%
%TO.C,K6*%
X10876350Y-2615375D03*
D11*
X11638350Y-2107375D03*
D10*
X11384350Y-2615375D03*
D11*
X11003350Y-2361375D03*
D12*
X11892350Y-2615375D03*
%TD*%
D11*
%TO.C,K26*%
X16400850Y-4012375D03*
D10*
X16146850Y-4520375D03*
D12*
X15638850Y-4520375D03*
X16654850Y-4520375D03*
D11*
X15765850Y-4266375D03*
%TD*%
%TO.C,K67*%
X31164650Y-7822375D03*
X30529650Y-8076375D03*
D12*
X30402650Y-8330375D03*
D10*
X30910650Y-8330375D03*
D12*
X31418650Y-8330375D03*
%TD*%
D13*
%TO.C,K68*%
X35676250Y-7631875D03*
D10*
X34482450Y-8330375D03*
X35676250Y-9155875D03*
D11*
X34736450Y-7822375D03*
D12*
X34990450Y-8330375D03*
D10*
X33288650Y-9155875D03*
D11*
X34101450Y-8076375D03*
D12*
X33974450Y-8330375D03*
D13*
X33288650Y-7631875D03*
%TD*%
D12*
%TO.C,K70*%
X5161370Y-10235375D03*
X6177370Y-10235375D03*
D11*
X5288370Y-9981375D03*
X5923370Y-9727375D03*
D10*
X5669370Y-10235375D03*
%TD*%
D11*
%TO.C,K71*%
X9336450Y-9981375D03*
D12*
X9209450Y-10235375D03*
D10*
X9717450Y-10235375D03*
D12*
X10225450Y-10235375D03*
D11*
X9971450Y-9727375D03*
%TD*%
D12*
%TO.C,K64*%
X24687650Y-8330375D03*
D10*
X25195650Y-8330375D03*
D11*
X25449650Y-7822375D03*
D12*
X25703650Y-8330375D03*
D11*
X24814650Y-8076375D03*
%TD*%
D12*
%TO.C,K5*%
X8971350Y-2615375D03*
D11*
X9733350Y-2107375D03*
D12*
X9987350Y-2615375D03*
D11*
X9098350Y-2361375D03*
D10*
X9479350Y-2615375D03*
%TD*%
%TO.C,K27*%
X18051850Y-4520375D03*
D11*
X17670850Y-4266375D03*
D12*
X17543850Y-4520375D03*
D11*
X18305850Y-4012375D03*
D12*
X18559850Y-4520375D03*
%TD*%
D10*
%TO.C,K28*%
X19956850Y-4520375D03*
D12*
X19448850Y-4520375D03*
D11*
X20210850Y-4012375D03*
D12*
X20464850Y-4520375D03*
D11*
X19575850Y-4266375D03*
%TD*%
D12*
%TO.C,K8*%
X15702350Y-2615375D03*
X14686350Y-2615375D03*
D11*
X15448350Y-2107375D03*
D10*
X15194350Y-2615375D03*
D11*
X14813350Y-2361375D03*
%TD*%
D12*
%TO.C,K25*%
X13733850Y-4520375D03*
X14749850Y-4520375D03*
D11*
X13860850Y-4266375D03*
X14495850Y-4012375D03*
D10*
X14241850Y-4520375D03*
%TD*%
D11*
%TO.C,K59*%
X15924650Y-7822375D03*
D10*
X15670650Y-8330375D03*
D11*
X15289650Y-8076375D03*
D12*
X15162650Y-8330375D03*
X16178650Y-8330375D03*
%TD*%
D10*
%TO.C,K77*%
X33529950Y-10235375D03*
D12*
X34037950Y-10235375D03*
D11*
X33148950Y-9981375D03*
D12*
X33021950Y-10235375D03*
D11*
X33783950Y-9727375D03*
%TD*%
%TO.C,K69*%
X2430870Y-9981375D03*
D12*
X3319870Y-10235375D03*
D10*
X4005670Y-11060875D03*
X1618070Y-11060875D03*
X2811870Y-10235375D03*
D13*
X4005670Y-9536875D03*
D11*
X3065870Y-9727375D03*
D12*
X2303870Y-10235375D03*
D13*
X1618070Y-9536875D03*
%TD*%
D11*
%TO.C,K65*%
X26719650Y-8076375D03*
D10*
X27100650Y-8330375D03*
D11*
X27354650Y-7822375D03*
D12*
X27608650Y-8330375D03*
X26592650Y-8330375D03*
%TD*%
%TO.C,K46*%
X22846050Y-6425375D03*
D10*
X22338050Y-6425375D03*
D12*
X21830050Y-6425375D03*
D11*
X22592050Y-5917375D03*
X21957050Y-6171375D03*
%TD*%
D14*
%TO.C,D27*%
X17661850Y-3567875D03*
D15*
X17894350Y-3567875D03*
D16*
X18441850Y-3567875D03*
D15*
X18209350Y-3567875D03*
%TD*%
D14*
%TO.C,D1*%
X1469370Y-1662875D03*
D15*
X1701870Y-1662875D03*
X2016870Y-1662875D03*
D16*
X2249370Y-1662875D03*
%TD*%
D14*
%TO.C,D41*%
X12423050Y-5472875D03*
D15*
X12655550Y-5472875D03*
D16*
X13203050Y-5472875D03*
D15*
X12970550Y-5472875D03*
%TD*%
%TO.C,D59*%
X15513150Y-7377875D03*
D14*
X15280650Y-7377875D03*
D15*
X15828150Y-7377875D03*
D16*
X16060650Y-7377875D03*
%TD*%
D15*
%TO.C,D24*%
X12179350Y-3567875D03*
D14*
X11946850Y-3567875D03*
D16*
X12726850Y-3567875D03*
D15*
X12494350Y-3567875D03*
%TD*%
%TO.C,D35*%
X32896250Y-3567875D03*
D14*
X32663750Y-3567875D03*
D16*
X33443750Y-3567875D03*
D15*
X33211250Y-3567875D03*
%TD*%
D14*
%TO.C,D30*%
X23376850Y-3567875D03*
D15*
X23609350Y-3567875D03*
D16*
X24156850Y-3567875D03*
D15*
X23924350Y-3567875D03*
%TD*%
D14*
%TO.C,D33*%
X29091850Y-3567875D03*
D15*
X29324350Y-3567875D03*
D16*
X29871850Y-3567875D03*
D15*
X29639350Y-3567875D03*
%TD*%
%TO.C,D73*%
X14322450Y-9282875D03*
D14*
X14089950Y-9282875D03*
D15*
X14637450Y-9282875D03*
D16*
X14869950Y-9282875D03*
%TD*%
D14*
%TO.C,D43*%
X16233050Y-5472875D03*
D15*
X16465550Y-5472875D03*
D16*
X17013050Y-5472875D03*
D15*
X16780550Y-5472875D03*
%TD*%
D14*
%TO.C,D5*%
X10431850Y-3005375D03*
D15*
X10431850Y-2772875D03*
D16*
X10431850Y-2225375D03*
D15*
X10431850Y-2457875D03*
%TD*%
%TO.C,D55*%
X5511870Y-7377875D03*
D14*
X5279370Y-7377875D03*
D16*
X6059370Y-7377875D03*
D15*
X5826870Y-7377875D03*
%TD*%
D14*
%TO.C,D29*%
X21471850Y-3567875D03*
D15*
X21704350Y-3567875D03*
D16*
X22251850Y-3567875D03*
D15*
X22019350Y-3567875D03*
%TD*%
D14*
%TO.C,D63*%
X22900650Y-7377875D03*
D15*
X23133150Y-7377875D03*
D16*
X23680650Y-7377875D03*
D15*
X23448150Y-7377875D03*
%TD*%
D14*
%TO.C,D11*%
X20519350Y-1662875D03*
D15*
X20751850Y-1662875D03*
D16*
X21299350Y-1662875D03*
D15*
X21066850Y-1662875D03*
%TD*%
D14*
%TO.C,D51*%
X31473050Y-5472875D03*
D15*
X31705550Y-5472875D03*
D16*
X32253050Y-5472875D03*
D15*
X32020550Y-5472875D03*
%TD*%
D14*
%TO.C,D46*%
X21948050Y-5472875D03*
D15*
X22180550Y-5472875D03*
X22495550Y-5472875D03*
D16*
X22728050Y-5472875D03*
%TD*%
D14*
%TO.C,D44*%
X18138050Y-5472875D03*
D15*
X18370550Y-5472875D03*
D16*
X18918050Y-5472875D03*
D15*
X18685550Y-5472875D03*
%TD*%
%TO.C,D6*%
X11226850Y-1662875D03*
D14*
X10994350Y-1662875D03*
D15*
X11541850Y-1662875D03*
D16*
X11774350Y-1662875D03*
%TD*%
D14*
%TO.C,D66*%
X28615650Y-7377875D03*
D15*
X28848150Y-7377875D03*
D16*
X29395650Y-7377875D03*
D15*
X29163150Y-7377875D03*
%TD*%
D14*
%TO.C,D13*%
X24329350Y-1662875D03*
D15*
X24561850Y-1662875D03*
X24876850Y-1662875D03*
D16*
X25109350Y-1662875D03*
%TD*%
D14*
%TO.C,D28*%
X19566850Y-3567875D03*
D15*
X19799350Y-3567875D03*
D16*
X20346850Y-3567875D03*
D15*
X20114350Y-3567875D03*
%TD*%
%TO.C,D8*%
X15036850Y-1662875D03*
D14*
X14804350Y-1662875D03*
D15*
X15351850Y-1662875D03*
D16*
X15584350Y-1662875D03*
%TD*%
D15*
%TO.C,D75*%
X28609950Y-9282875D03*
D14*
X28377450Y-9282875D03*
D16*
X29157450Y-9282875D03*
D15*
X28924950Y-9282875D03*
%TD*%
D14*
%TO.C,D70*%
X5279370Y-9282875D03*
D15*
X5511870Y-9282875D03*
X5826870Y-9282875D03*
D16*
X6059370Y-9282875D03*
%TD*%
D14*
%TO.C,D49*%
X27663050Y-5472875D03*
D15*
X27895550Y-5472875D03*
D16*
X28443050Y-5472875D03*
D15*
X28210550Y-5472875D03*
%TD*%
%TO.C,D76*%
X30991250Y-9282875D03*
D14*
X30758750Y-9282875D03*
D15*
X31306250Y-9282875D03*
D16*
X31538750Y-9282875D03*
%TD*%
D15*
%TO.C,D74*%
X21466250Y-9282875D03*
D14*
X21233750Y-9282875D03*
D16*
X22013750Y-9282875D03*
D15*
X21781250Y-9282875D03*
%TD*%
D14*
%TO.C,D64*%
X24805650Y-7377875D03*
D15*
X25038150Y-7377875D03*
D16*
X25585650Y-7377875D03*
D15*
X25353150Y-7377875D03*
%TD*%
D14*
%TO.C,D9*%
X16709350Y-1662875D03*
D15*
X16941850Y-1662875D03*
D16*
X17489350Y-1662875D03*
D15*
X17256850Y-1662875D03*
%TD*%
D14*
%TO.C,D31*%
X25281850Y-3567875D03*
D15*
X25514350Y-3567875D03*
X25829350Y-3567875D03*
D16*
X26061850Y-3567875D03*
%TD*%
D15*
%TO.C,D32*%
X27419350Y-3567875D03*
D14*
X27186850Y-3567875D03*
D15*
X27734350Y-3567875D03*
D16*
X27966850Y-3567875D03*
%TD*%
D15*
%TO.C,D17*%
X32181850Y-1662875D03*
D14*
X31949350Y-1662875D03*
D15*
X32496850Y-1662875D03*
D16*
X32729350Y-1662875D03*
%TD*%
D15*
%TO.C,D23*%
X9798150Y-3567875D03*
D14*
X9565650Y-3567875D03*
D16*
X10345650Y-3567875D03*
D15*
X10113150Y-3567875D03*
%TD*%
D14*
%TO.C,D56*%
X6621870Y-9672875D03*
D15*
X6621870Y-9440375D03*
D16*
X6621870Y-8892875D03*
D15*
X6621870Y-9125375D03*
%TD*%
D14*
%TO.C,D40*%
X9803750Y-5472875D03*
D15*
X10036250Y-5472875D03*
X10351250Y-5472875D03*
D16*
X10583750Y-5472875D03*
%TD*%
D14*
%TO.C,D69*%
X2421870Y-9282875D03*
D15*
X2654370Y-9282875D03*
D16*
X3201870Y-9282875D03*
D15*
X2969370Y-9282875D03*
%TD*%
%TO.C,D20*%
X3606870Y-3567875D03*
D14*
X3374370Y-3567875D03*
D15*
X3921870Y-3567875D03*
D16*
X4154370Y-3567875D03*
%TD*%
D15*
%TO.C,D34*%
X31229350Y-3567875D03*
D14*
X30996850Y-3567875D03*
D16*
X31776850Y-3567875D03*
D15*
X31544350Y-3567875D03*
%TD*%
%TO.C,D58*%
X13608150Y-7377875D03*
D14*
X13375650Y-7377875D03*
D15*
X13923150Y-7377875D03*
D16*
X14155650Y-7377875D03*
%TD*%
D15*
%TO.C,D12*%
X22656850Y-1662875D03*
D14*
X22424350Y-1662875D03*
D16*
X23204350Y-1662875D03*
D15*
X22971850Y-1662875D03*
%TD*%
%TO.C,D38*%
X3606870Y-5472875D03*
D14*
X3374370Y-5472875D03*
D15*
X3921870Y-5472875D03*
D16*
X4154370Y-5472875D03*
%TD*%
D15*
%TO.C,D18*%
X35039350Y-1662875D03*
D14*
X34806850Y-1662875D03*
D16*
X35586850Y-1662875D03*
D15*
X35354350Y-1662875D03*
%TD*%
D14*
%TO.C,D68*%
X34330650Y-7377875D03*
D15*
X34563150Y-7377875D03*
D16*
X35110650Y-7377875D03*
D15*
X34878150Y-7377875D03*
%TD*%
%TO.C,D14*%
X26466850Y-1662875D03*
D14*
X26234350Y-1662875D03*
D15*
X26781850Y-1662875D03*
D16*
X27014350Y-1662875D03*
%TD*%
D14*
%TO.C,D65*%
X26710650Y-7377875D03*
D15*
X26943150Y-7377875D03*
D16*
X27490650Y-7377875D03*
D15*
X27258150Y-7377875D03*
%TD*%
%TO.C,D37*%
X1701870Y-5472875D03*
D14*
X1469370Y-5472875D03*
D16*
X2249370Y-5472875D03*
D15*
X2016870Y-5472875D03*
%TD*%
%TO.C,D52*%
X34801250Y-5472875D03*
D14*
X34568750Y-5472875D03*
D16*
X35348750Y-5472875D03*
D15*
X35116250Y-5472875D03*
%TD*%
%TO.C,D61*%
X19323150Y-7377875D03*
D14*
X19090650Y-7377875D03*
D15*
X19638150Y-7377875D03*
D16*
X19870650Y-7377875D03*
%TD*%
D15*
%TO.C,D62*%
X21228150Y-7377875D03*
D14*
X20995650Y-7377875D03*
D15*
X21543150Y-7377875D03*
D16*
X21775650Y-7377875D03*
%TD*%
D14*
%TO.C,D36*%
X35044950Y-3567875D03*
D15*
X35277450Y-3567875D03*
X35592450Y-3567875D03*
D16*
X35824950Y-3567875D03*
%TD*%
D15*
%TO.C,D67*%
X30753150Y-7377875D03*
D14*
X30520650Y-7377875D03*
D15*
X31068150Y-7377875D03*
D16*
X31300650Y-7377875D03*
%TD*%
D14*
%TO.C,D15*%
X29481850Y-3005375D03*
D15*
X29481850Y-2772875D03*
X29481850Y-2457875D03*
D16*
X29481850Y-2225375D03*
%TD*%
D14*
%TO.C,D47*%
X23853050Y-5472875D03*
D15*
X24085550Y-5472875D03*
X24400550Y-5472875D03*
D16*
X24633050Y-5472875D03*
%TD*%
D14*
%TO.C,D57*%
X10279950Y-7377875D03*
D15*
X10512450Y-7377875D03*
D16*
X11059950Y-7377875D03*
D15*
X10827450Y-7377875D03*
%TD*%
D14*
%TO.C,D19*%
X1469370Y-3567875D03*
D15*
X1701870Y-3567875D03*
X2016870Y-3567875D03*
D16*
X2249370Y-3567875D03*
%TD*%
D14*
%TO.C,D54*%
X3374370Y-7377875D03*
D15*
X3606870Y-7377875D03*
D16*
X4154370Y-7377875D03*
D15*
X3921870Y-7377875D03*
%TD*%
D14*
%TO.C,D10*%
X19956850Y-3005375D03*
D15*
X19956850Y-2772875D03*
X19956850Y-2457875D03*
D16*
X19956850Y-2225375D03*
%TD*%
D14*
%TO.C,D22*%
X6621870Y-5862875D03*
D15*
X6621870Y-5630375D03*
D16*
X6621870Y-5082875D03*
D15*
X6621870Y-5315375D03*
%TD*%
%TO.C,D16*%
X30276850Y-1662875D03*
D14*
X30044350Y-1662875D03*
D15*
X30591850Y-1662875D03*
D16*
X30824350Y-1662875D03*
%TD*%
D15*
%TO.C,D45*%
X20275550Y-5472875D03*
D14*
X20043050Y-5472875D03*
D15*
X20590550Y-5472875D03*
D16*
X20823050Y-5472875D03*
%TD*%
D14*
%TO.C,D77*%
X34634350Y-9282875D03*
D15*
X34401850Y-9282875D03*
D16*
X33854350Y-9282875D03*
D15*
X34086850Y-9282875D03*
%TD*%
D14*
%TO.C,D78*%
X36863750Y-10625375D03*
D15*
X36863750Y-10392875D03*
X36863750Y-10077875D03*
D16*
X36863750Y-9845375D03*
%TD*%
D14*
%TO.C,D71*%
X10821850Y-9282875D03*
D15*
X10589350Y-9282875D03*
X10274350Y-9282875D03*
D16*
X10041850Y-9282875D03*
%TD*%
D15*
%TO.C,D25*%
X14084350Y-3567875D03*
D14*
X13851850Y-3567875D03*
D15*
X14399350Y-3567875D03*
D16*
X14631850Y-3567875D03*
%TD*%
D14*
%TO.C,D3*%
X5279370Y-1662875D03*
D15*
X5511870Y-1662875D03*
D16*
X6059370Y-1662875D03*
D15*
X5826870Y-1662875D03*
%TD*%
%TO.C,D4*%
X7416870Y-1662875D03*
D14*
X7184370Y-1662875D03*
D16*
X7964370Y-1662875D03*
D15*
X7731870Y-1662875D03*
%TD*%
D14*
%TO.C,D42*%
X14328050Y-5472875D03*
D15*
X14560550Y-5472875D03*
D16*
X15108050Y-5472875D03*
D15*
X14875550Y-5472875D03*
%TD*%
D14*
%TO.C,D60*%
X17185650Y-7377875D03*
D15*
X17418150Y-7377875D03*
X17733150Y-7377875D03*
D16*
X17965650Y-7377875D03*
%TD*%
D15*
%TO.C,D26*%
X15989350Y-3567875D03*
D14*
X15756850Y-3567875D03*
D15*
X16304350Y-3567875D03*
D16*
X16536850Y-3567875D03*
%TD*%
D14*
%TO.C,D53*%
X1469370Y-7377875D03*
D15*
X1701870Y-7377875D03*
X2016870Y-7377875D03*
D16*
X2249370Y-7377875D03*
%TD*%
D14*
%TO.C,D21*%
X5279370Y-3567875D03*
D15*
X5511870Y-3567875D03*
D16*
X6059370Y-3567875D03*
D15*
X5826870Y-3567875D03*
%TD*%
%TO.C,D50*%
X29800550Y-5472875D03*
D14*
X29568050Y-5472875D03*
D15*
X30115550Y-5472875D03*
D16*
X30348050Y-5472875D03*
%TD*%
D14*
%TO.C,D2*%
X3374370Y-1662875D03*
D15*
X3606870Y-1662875D03*
X3921870Y-1662875D03*
D16*
X4154370Y-1662875D03*
%TD*%
D15*
%TO.C,D39*%
X5511870Y-5472875D03*
D14*
X5279370Y-5472875D03*
D15*
X5826870Y-5472875D03*
D16*
X6059370Y-5472875D03*
%TD*%
D14*
%TO.C,D72*%
X13203050Y-9282875D03*
D15*
X12970550Y-9282875D03*
X12655550Y-9282875D03*
D16*
X12423050Y-9282875D03*
%TD*%
D15*
%TO.C,D48*%
X25990550Y-5472875D03*
D14*
X25758050Y-5472875D03*
D16*
X26538050Y-5472875D03*
D15*
X26305550Y-5472875D03*
%TD*%
D14*
%TO.C,D7*%
X12899350Y-1662875D03*
D15*
X13131850Y-1662875D03*
D16*
X13679350Y-1662875D03*
D15*
X13446850Y-1662875D03*
%TD*%
D14*
%TO.C,U1*%
X4553750Y-1389615D03*
D16*
X4553750Y-1643615D03*
X4553750Y-1897615D03*
X4553750Y-2151615D03*
X4553750Y-2405615D03*
X4553750Y-2659615D03*
X4553750Y-2913615D03*
X4553750Y-3167615D03*
X4553750Y-3421615D03*
X4553750Y-3675615D03*
X4553750Y-3929615D03*
X4553750Y-4183615D03*
X3029750Y-4183615D03*
X3029750Y-3929615D03*
X3029750Y-3675615D03*
X3029750Y-3421615D03*
X3029750Y-3167615D03*
X3029750Y-2913615D03*
X3029750Y-2659615D03*
X3029750Y-2405615D03*
X3029750Y-2151615D03*
X3029750Y-1897615D03*
X3029750Y-1643615D03*
X3029750Y-1389615D03*
%TD*%
M02*
