%TF.GenerationSoftware,KiCad,Pcbnew,5.99.0-unknown-4f191ce2c7~125~ubuntu18.04.1*%
%TF.CreationDate,2021-04-25T16:47:38-05:00*%
%TF.ProjectId,southpawpcb,736f7574-6870-4617-9770-63622e6b6963,rev?*%
%TF.SameCoordinates,Original*%
%TF.FileFunction,Paste,Top*%
%TF.FilePolarity,Positive*%
%FSLAX45Y45*%
G04 Gerber Fmt 4.5, Leading zero omitted, Abs format (unit mm)*
G04 Created by KiCad (PCBNEW 5.99.0-unknown-4f191ce2c7~125~ubuntu18.04.1) date 2021-04-25 16:47:38*
%MOMM*%
%LPD*%
G01*
G04 APERTURE LIST*
%ADD10R,1.200000X1.200000*%
G04 APERTURE END LIST*
D10*
%TO.C,D27*%
X17894350Y-3567875D03*
X18209350Y-3567875D03*
%TD*%
%TO.C,D1*%
X1701870Y-1662875D03*
X2016870Y-1662875D03*
%TD*%
%TO.C,D41*%
X12655550Y-5472875D03*
X12970550Y-5472875D03*
%TD*%
%TO.C,D59*%
X15513150Y-7377875D03*
X15828150Y-7377875D03*
%TD*%
%TO.C,D24*%
X12179350Y-3567875D03*
X12494350Y-3567875D03*
%TD*%
%TO.C,D35*%
X32896250Y-3567875D03*
X33211250Y-3567875D03*
%TD*%
%TO.C,D30*%
X23609350Y-3567875D03*
X23924350Y-3567875D03*
%TD*%
%TO.C,D33*%
X29324350Y-3567875D03*
X29639350Y-3567875D03*
%TD*%
%TO.C,D73*%
X14322450Y-9282875D03*
X14637450Y-9282875D03*
%TD*%
%TO.C,D43*%
X16465550Y-5472875D03*
X16780550Y-5472875D03*
%TD*%
%TO.C,D5*%
X10431850Y-2772875D03*
X10431850Y-2457875D03*
%TD*%
%TO.C,D55*%
X5511870Y-7377875D03*
X5826870Y-7377875D03*
%TD*%
%TO.C,D29*%
X21704350Y-3567875D03*
X22019350Y-3567875D03*
%TD*%
%TO.C,D63*%
X23133150Y-7377875D03*
X23448150Y-7377875D03*
%TD*%
%TO.C,D11*%
X20751850Y-1662875D03*
X21066850Y-1662875D03*
%TD*%
%TO.C,D51*%
X31705550Y-5472875D03*
X32020550Y-5472875D03*
%TD*%
%TO.C,D46*%
X22180550Y-5472875D03*
X22495550Y-5472875D03*
%TD*%
%TO.C,D44*%
X18370550Y-5472875D03*
X18685550Y-5472875D03*
%TD*%
%TO.C,D6*%
X11226850Y-1662875D03*
X11541850Y-1662875D03*
%TD*%
%TO.C,D66*%
X28848150Y-7377875D03*
X29163150Y-7377875D03*
%TD*%
%TO.C,D13*%
X24561850Y-1662875D03*
X24876850Y-1662875D03*
%TD*%
%TO.C,D28*%
X19799350Y-3567875D03*
X20114350Y-3567875D03*
%TD*%
%TO.C,D8*%
X15036850Y-1662875D03*
X15351850Y-1662875D03*
%TD*%
%TO.C,D75*%
X28609950Y-9282875D03*
X28924950Y-9282875D03*
%TD*%
%TO.C,D70*%
X5511870Y-9282875D03*
X5826870Y-9282875D03*
%TD*%
%TO.C,D49*%
X27895550Y-5472875D03*
X28210550Y-5472875D03*
%TD*%
%TO.C,D76*%
X30991250Y-9282875D03*
X31306250Y-9282875D03*
%TD*%
%TO.C,D74*%
X21466250Y-9282875D03*
X21781250Y-9282875D03*
%TD*%
%TO.C,D64*%
X25038150Y-7377875D03*
X25353150Y-7377875D03*
%TD*%
%TO.C,D9*%
X16941850Y-1662875D03*
X17256850Y-1662875D03*
%TD*%
%TO.C,D31*%
X25514350Y-3567875D03*
X25829350Y-3567875D03*
%TD*%
%TO.C,D32*%
X27419350Y-3567875D03*
X27734350Y-3567875D03*
%TD*%
%TO.C,D17*%
X32181850Y-1662875D03*
X32496850Y-1662875D03*
%TD*%
%TO.C,D23*%
X9798150Y-3567875D03*
X10113150Y-3567875D03*
%TD*%
%TO.C,D56*%
X6621870Y-9440375D03*
X6621870Y-9125375D03*
%TD*%
%TO.C,D40*%
X10036250Y-5472875D03*
X10351250Y-5472875D03*
%TD*%
%TO.C,D69*%
X2654370Y-9282875D03*
X2969370Y-9282875D03*
%TD*%
%TO.C,D20*%
X3606870Y-3567875D03*
X3921870Y-3567875D03*
%TD*%
%TO.C,D34*%
X31229350Y-3567875D03*
X31544350Y-3567875D03*
%TD*%
%TO.C,D58*%
X13608150Y-7377875D03*
X13923150Y-7377875D03*
%TD*%
%TO.C,D12*%
X22656850Y-1662875D03*
X22971850Y-1662875D03*
%TD*%
%TO.C,D38*%
X3606870Y-5472875D03*
X3921870Y-5472875D03*
%TD*%
%TO.C,D18*%
X35039350Y-1662875D03*
X35354350Y-1662875D03*
%TD*%
%TO.C,D68*%
X34563150Y-7377875D03*
X34878150Y-7377875D03*
%TD*%
%TO.C,D14*%
X26466850Y-1662875D03*
X26781850Y-1662875D03*
%TD*%
%TO.C,D65*%
X26943150Y-7377875D03*
X27258150Y-7377875D03*
%TD*%
%TO.C,D37*%
X1701870Y-5472875D03*
X2016870Y-5472875D03*
%TD*%
%TO.C,D52*%
X34801250Y-5472875D03*
X35116250Y-5472875D03*
%TD*%
%TO.C,D61*%
X19323150Y-7377875D03*
X19638150Y-7377875D03*
%TD*%
%TO.C,D62*%
X21228150Y-7377875D03*
X21543150Y-7377875D03*
%TD*%
%TO.C,D36*%
X35277450Y-3567875D03*
X35592450Y-3567875D03*
%TD*%
%TO.C,D67*%
X30753150Y-7377875D03*
X31068150Y-7377875D03*
%TD*%
%TO.C,D15*%
X29481850Y-2772875D03*
X29481850Y-2457875D03*
%TD*%
%TO.C,D47*%
X24085550Y-5472875D03*
X24400550Y-5472875D03*
%TD*%
%TO.C,D57*%
X10512450Y-7377875D03*
X10827450Y-7377875D03*
%TD*%
%TO.C,D19*%
X1701870Y-3567875D03*
X2016870Y-3567875D03*
%TD*%
%TO.C,D54*%
X3606870Y-7377875D03*
X3921870Y-7377875D03*
%TD*%
%TO.C,D10*%
X19956850Y-2772875D03*
X19956850Y-2457875D03*
%TD*%
%TO.C,D22*%
X6621870Y-5630375D03*
X6621870Y-5315375D03*
%TD*%
%TO.C,D16*%
X30276850Y-1662875D03*
X30591850Y-1662875D03*
%TD*%
%TO.C,D45*%
X20275550Y-5472875D03*
X20590550Y-5472875D03*
%TD*%
%TO.C,D77*%
X34401850Y-9282875D03*
X34086850Y-9282875D03*
%TD*%
%TO.C,D78*%
X36863750Y-10392875D03*
X36863750Y-10077875D03*
%TD*%
%TO.C,D71*%
X10589350Y-9282875D03*
X10274350Y-9282875D03*
%TD*%
%TO.C,D25*%
X14084350Y-3567875D03*
X14399350Y-3567875D03*
%TD*%
%TO.C,D3*%
X5511870Y-1662875D03*
X5826870Y-1662875D03*
%TD*%
%TO.C,D4*%
X7416870Y-1662875D03*
X7731870Y-1662875D03*
%TD*%
%TO.C,D42*%
X14560550Y-5472875D03*
X14875550Y-5472875D03*
%TD*%
%TO.C,D60*%
X17418150Y-7377875D03*
X17733150Y-7377875D03*
%TD*%
%TO.C,D26*%
X15989350Y-3567875D03*
X16304350Y-3567875D03*
%TD*%
%TO.C,D53*%
X1701870Y-7377875D03*
X2016870Y-7377875D03*
%TD*%
%TO.C,D21*%
X5511870Y-3567875D03*
X5826870Y-3567875D03*
%TD*%
%TO.C,D50*%
X29800550Y-5472875D03*
X30115550Y-5472875D03*
%TD*%
%TO.C,D2*%
X3606870Y-1662875D03*
X3921870Y-1662875D03*
%TD*%
%TO.C,D39*%
X5511870Y-5472875D03*
X5826870Y-5472875D03*
%TD*%
%TO.C,D72*%
X12970550Y-9282875D03*
X12655550Y-9282875D03*
%TD*%
%TO.C,D48*%
X25990550Y-5472875D03*
X26305550Y-5472875D03*
%TD*%
%TO.C,D7*%
X13131850Y-1662875D03*
X13446850Y-1662875D03*
%TD*%
M02*
