M48
; DRILL file {KiCad 5.99.0-unknown-4f191ce2c7~125~ubuntu18.04.1} date Sun Apr 25 16:47:47 2021
; FORMAT={-:-/ absolute / inch / decimal}
; #@! TF.CreationDate,2021-04-25T16:47:47-05:00
; #@! TF.GenerationSoftware,Kicad,Pcbnew,5.99.0-unknown-4f191ce2c7~125~ubuntu18.04.1
; #@! TF.FileFunction,NonPlated,1,2,NPTH
FMAT,2
INCH
; #@! TA.AperFunction,NonPlated,NPTH,ComponentDrill
T1C0.0689
; #@! TA.AperFunction,NonPlated,NPTH,ComponentDrill
T2C0.1181
; #@! TA.AperFunction,NonPlated,NPTH,ComponentDrill
T3C0.1200
; #@! TA.AperFunction,NonPlated,NPTH,ComponentDrill
T4C0.1570
%
G90
G05
T1
X0.532Y-1.0297
X0.532Y-1.7797
X0.532Y-2.5297
X0.532Y-3.2797
X0.907Y-4.0297
X0.932Y-1.0297
X0.932Y-1.7797
X0.932Y-2.5297
X0.932Y-3.2797
X1.282Y-2.5297
X1.282Y-3.2797
X1.307Y-4.0297
X1.482Y-0.8297
X1.482Y-1.2297
X1.482Y-1.5797
X1.482Y-1.9797
X1.682Y-2.5297
X1.682Y-3.2797
X2.032Y-1.0297
X2.032Y-1.7797
X2.032Y-2.5297
X2.032Y-3.2797
X2.032Y-4.0297
X2.432Y-1.0297
X2.432Y-1.7797
X2.432Y-2.5297
X2.432Y-3.2797
X2.432Y-4.0297
X2.782Y-1.0297
X2.982Y-1.9547
X2.982Y-2.3547
X2.982Y-3.4547
X2.982Y-3.8547
X3.182Y-1.0297
X3.532Y-1.0297
X3.6258Y-4.0297
X3.7195Y-1.7797
X3.8133Y-2.5297
X3.932Y-1.0297
X4.0008Y-3.2797
X4.0258Y-4.0297
X4.1195Y-1.7797
X4.2133Y-2.5297
X4.282Y-1.0297
X4.4008Y-3.2797
X4.5633Y-4.0297
X4.657Y-1.7797
X4.682Y-1.0297
X4.8445Y-2.5297
X4.9633Y-4.0297
X5.032Y-1.0297
X5.057Y-1.7797
X5.2195Y-3.2797
X5.2445Y-2.5297
X5.407Y-1.7797
X5.432Y-1.0297
X5.5008Y-4.0297
X5.5945Y-2.5297
X5.6195Y-3.2797
X5.782Y-1.0297
X5.807Y-1.7797
X5.9008Y-4.0297
X5.9695Y-3.2797
X5.9945Y-2.5297
X6.157Y-1.7797
X6.182Y-1.0297
X6.3445Y-2.5297
X6.3695Y-3.2797
X6.532Y-1.0297
X6.557Y-1.7797
X6.7195Y-3.2797
X6.7445Y-2.5297
X6.907Y-1.7797
X6.932Y-1.0297
X7.0945Y-2.5297
X7.1195Y-3.2797
X7.282Y-1.0297
X7.307Y-1.7797
X7.4695Y-3.2797
X7.4945Y-2.5297
X7.657Y-1.7797
X7.682Y-1.0297
X7.8445Y-2.5297
X7.8695Y-3.2797
X8.032Y-1.0297
X8.057Y-1.7797
X8.2195Y-3.2797
X8.2445Y-2.5297
X8.3133Y-4.0297
X8.407Y-1.7797
X8.432Y-1.0297
X8.5945Y-2.5297
X8.6195Y-3.2797
X8.7133Y-4.0297
X8.782Y-1.0297
X8.807Y-1.7797
X8.9695Y-3.2797
X8.9945Y-2.5297
X9.157Y-1.7797
X9.182Y-1.0297
X9.3445Y-2.5297
X9.3695Y-3.2797
X9.532Y-1.0297
X9.557Y-1.7797
X9.7195Y-3.2797
X9.7445Y-2.5297
X9.907Y-1.7797
X9.932Y-1.0297
X10.0945Y-2.5297
X10.1195Y-3.2797
X10.282Y-1.0297
X10.307Y-1.7797
X10.4695Y-3.2797
X10.4945Y-2.5297
X10.657Y-1.7797
X10.682Y-1.0297
X10.8445Y-2.5297
X10.8695Y-3.2797
X11.032Y-1.0297
X11.057Y-1.7797
X11.1258Y-4.0297
X11.2195Y-3.2797
X11.2445Y-2.5297
X11.407Y-1.7797
X11.432Y-1.0297
X11.5258Y-4.0297
X11.5945Y-2.5297
X11.6195Y-3.2797
X11.782Y-1.0297
X11.807Y-1.7797
X11.9695Y-3.2797
X11.9945Y-2.5297
X12.0633Y-4.0297
X12.157Y-1.7797
X12.182Y-1.0297
X12.3445Y-2.5297
X12.3695Y-3.2797
X12.4633Y-4.0297
X12.532Y-1.0297
X12.557Y-1.7797
X12.7445Y-2.5297
X12.907Y-1.7797
X12.932Y-1.0297
X13.0008Y-4.0297
X13.307Y-1.7797
X13.3758Y-3.2797
X13.4008Y-4.0297
X13.5633Y-2.5297
X13.657Y-1.0297
X13.7758Y-3.2797
X13.8445Y-1.7797
X13.9383Y-4.0297
X13.9633Y-2.5297
X14.057Y-1.0297
X14.2445Y-1.7797
X14.3383Y-4.0297
T2
X0.582Y-0.9297
X0.582Y-1.6797
X0.582Y-2.4297
X0.582Y-3.1797
X0.832Y-0.8297
X0.832Y-1.5797
X0.832Y-2.3297
X0.832Y-3.0797
X0.957Y-3.9297
X1.207Y-3.8297
X1.332Y-2.4297
X1.332Y-3.1797
X1.582Y-0.8797
X1.582Y-1.6297
X1.582Y-2.3297
X1.582Y-3.0797
X1.682Y-1.1297
X1.682Y-1.8797
X2.082Y-1.6797
X2.082Y-2.4297
X2.082Y-3.1797
X2.082Y-3.9297
X2.132Y-1.2297
X2.332Y-1.5797
X2.332Y-2.3297
X2.332Y-3.0797
X2.332Y-3.8297
X2.382Y-1.1297
X2.782Y-2.0547
X2.782Y-3.5547
X2.882Y-1.2297
X2.882Y-2.3047
X2.882Y-3.8047
X3.132Y-1.1297
X3.582Y-0.9297
X3.6758Y-3.9297
X3.7695Y-1.6797
X3.832Y-0.8297
X3.8633Y-2.4297
X3.9258Y-3.8297
X4.0195Y-1.5797
X4.0508Y-3.1797
X4.1133Y-2.3297
X4.3008Y-3.0797
X4.332Y-0.9297
X4.582Y-0.8297
X4.6133Y-3.9297
X4.707Y-1.6797
X4.8633Y-3.8297
X4.8945Y-2.4297
X4.957Y-1.5797
X5.082Y-0.9297
X5.1445Y-2.3297
X5.2695Y-3.1797
X5.332Y-0.8297
X5.457Y-1.6797
X5.5195Y-3.0797
X5.5508Y-3.9297
X5.6445Y-2.4297
X5.707Y-1.5797
X5.8008Y-3.8297
X5.832Y-0.9297
X5.8945Y-2.3297
X6.0195Y-3.1797
X6.082Y-0.8297
X6.207Y-1.6797
X6.2695Y-3.0797
X6.3945Y-2.4297
X6.457Y-1.5797
X6.582Y-0.9297
X6.6445Y-2.3297
X6.7695Y-3.1797
X6.832Y-0.8297
X6.957Y-1.6797
X7.0195Y-3.0797
X7.1445Y-2.4297
X7.207Y-1.5797
X7.332Y-0.9297
X7.3945Y-2.3297
X7.5195Y-3.1797
X7.582Y-0.8297
X7.707Y-1.6797
X7.7695Y-3.0797
X7.8945Y-2.4297
X7.957Y-1.5797
X8.082Y-0.9297
X8.1445Y-2.3297
X8.2695Y-3.1797
X8.332Y-0.8297
X8.3633Y-3.9297
X8.457Y-1.6797
X8.5195Y-3.0797
X8.6133Y-3.8297
X8.6445Y-2.4297
X8.707Y-1.5797
X8.832Y-0.9297
X8.8945Y-2.3297
X9.0195Y-3.1797
X9.082Y-0.8297
X9.207Y-1.6797
X9.2695Y-3.0797
X9.3945Y-2.4297
X9.457Y-1.5797
X9.582Y-0.9297
X9.6445Y-2.3297
X9.7695Y-3.1797
X9.832Y-0.8297
X9.957Y-1.6797
X10.0195Y-3.0797
X10.1445Y-2.4297
X10.207Y-1.5797
X10.332Y-0.9297
X10.3945Y-2.3297
X10.5195Y-3.1797
X10.582Y-0.8297
X10.707Y-1.6797
X10.7695Y-3.0797
X10.8945Y-2.4297
X10.957Y-1.5797
X11.082Y-0.9297
X11.1445Y-2.3297
X11.1758Y-3.9297
X11.2695Y-3.1797
X11.332Y-0.8297
X11.4258Y-3.8297
X11.457Y-1.6797
X11.5195Y-3.0797
X11.6445Y-2.4297
X11.707Y-1.5797
X11.832Y-0.9297
X11.8945Y-2.3297
X12.0195Y-3.1797
X12.082Y-0.8297
X12.1133Y-3.9297
X12.207Y-1.6797
X12.2695Y-3.0797
X12.3633Y-3.8297
X12.3945Y-2.4297
X12.457Y-1.5797
X12.582Y-0.9297
X12.6445Y-2.3297
X12.832Y-0.8297
X12.957Y-1.6797
X13.0508Y-3.9297
X13.207Y-1.5797
X13.3008Y-3.8297
X13.4258Y-3.1797
X13.6133Y-2.4297
X13.6758Y-3.0797
X13.707Y-0.9297
X13.8633Y-2.3297
X13.8945Y-1.6797
X13.957Y-0.8297
X13.9883Y-3.9297
X14.1445Y-1.5797
X14.2383Y-3.8297
T3
X0.637Y-3.7547
X1.577Y-3.7547
X2.707Y-1.6847
X2.707Y-2.6247
X2.707Y-3.1847
X2.707Y-4.1247
X3.7308Y-3.0047
X4.6708Y-3.0047
X6.5448Y-3.7547
X10.4818Y-3.7547
X13.1058Y-3.0047
X13.2933Y-2.2547
X13.387Y-0.7547
X14.0458Y-3.0047
X14.2333Y-2.2547
X14.327Y-0.7547
T4
X0.637Y-4.3547
X0.732Y-1.0297
X0.732Y-1.7797
X0.732Y-2.5297
X0.732Y-3.2797
X1.107Y-4.0297
X1.482Y-1.0297
X1.482Y-1.7797
X1.482Y-2.5297
X1.482Y-3.2797
X1.577Y-4.3547
X2.232Y-1.0297
X2.232Y-1.7797
X2.232Y-2.5297
X2.232Y-3.2797
X2.232Y-4.0297
X2.982Y-1.0297
X2.982Y-2.1547
X2.982Y-3.6547
X3.307Y-1.6847
X3.307Y-2.6247
X3.307Y-3.1847
X3.307Y-4.1247
X3.7308Y-3.6047
X3.732Y-1.0297
X3.8258Y-4.0297
X3.9195Y-1.7797
X4.0133Y-2.5297
X4.2008Y-3.2797
X4.482Y-1.0297
X4.6708Y-3.6047
X4.7633Y-4.0297
X4.857Y-1.7797
X5.0445Y-2.5297
X5.232Y-1.0297
X5.4195Y-3.2797
X5.607Y-1.7797
X5.7008Y-4.0297
X5.7945Y-2.5297
X5.982Y-1.0297
X6.1695Y-3.2797
X6.357Y-1.7797
X6.5445Y-2.5297
X6.5448Y-4.3547
X6.732Y-1.0297
X6.9195Y-3.2797
X7.107Y-1.7797
X7.2945Y-2.5297
X7.482Y-1.0297
X7.6695Y-3.2797
X7.857Y-1.7797
X8.0445Y-2.5297
X8.232Y-1.0297
X8.4195Y-3.2797
X8.5133Y-4.0297
X8.607Y-1.7797
X8.7945Y-2.5297
X8.982Y-1.0297
X9.1695Y-3.2797
X9.357Y-1.7797
X9.5445Y-2.5297
X9.732Y-1.0297
X9.9195Y-3.2797
X10.107Y-1.7797
X10.2945Y-2.5297
X10.4818Y-4.3547
X10.482Y-1.0297
X10.6695Y-3.2797
X10.857Y-1.7797
X11.0445Y-2.5297
X11.232Y-1.0297
X11.3258Y-4.0297
X11.4195Y-3.2797
X11.607Y-1.7797
X11.7945Y-2.5297
X11.982Y-1.0297
X12.1695Y-3.2797
X12.2633Y-4.0297
X12.357Y-1.7797
X12.5445Y-2.5297
X12.732Y-1.0297
X13.1058Y-3.6047
X13.107Y-1.7797
X13.2008Y-4.0297
X13.2933Y-2.8547
X13.387Y-1.3547
X13.5758Y-3.2797
X13.7633Y-2.5297
X13.857Y-1.0297
X14.0445Y-1.7797
X14.0458Y-3.6047
X14.1383Y-4.0297
X14.2333Y-2.8547
X14.327Y-1.3547
T0
M30
