M48
; DRILL file {KiCad 5.99.0-unknown-4f191ce2c7~125~ubuntu18.04.1} date Sun Apr 25 15:12:49 2021
; FORMAT={-:-/ absolute / inch / decimal}
; #@! TF.CreationDate,2021-04-25T15:12:49-05:00
; #@! TF.GenerationSoftware,Kicad,Pcbnew,5.99.0-unknown-4f191ce2c7~125~ubuntu18.04.1
; #@! TF.FileFunction,NonPlated,1,2,NPTH
FMAT,2
INCH
; #@! TA.AperFunction,NonPlated,NPTH,ComponentDrill
T1C0.0689
; #@! TA.AperFunction,NonPlated,NPTH,ComponentDrill
T2C0.1181
; #@! TA.AperFunction,NonPlated,NPTH,ComponentDrill
T3C0.1200
; #@! TA.AperFunction,NonPlated,NPTH,ComponentDrill
T4C0.1570
%
G90
G05
T1
X0.7392Y0.4409
X0.7392Y-0.3091
X0.7392Y-1.0591
X0.7392Y-1.8091
X1.1142Y-2.5591
X1.1392Y0.4409
X1.1392Y-0.3091
X1.1392Y-1.0591
X1.1392Y-1.8091
X1.4892Y-1.0591
X1.4892Y-1.8091
X1.5142Y-2.5591
X1.6892Y0.6409
X1.6892Y0.2409
X1.6892Y-0.1091
X1.6892Y-0.5091
X1.8892Y-1.0591
X1.8892Y-1.8091
X2.2392Y0.4409
X2.2392Y-0.3091
X2.2392Y-1.0591
X2.2392Y-1.8091
X2.2392Y-2.5591
X2.6392Y0.4409
X2.6392Y-0.3091
X2.6392Y-1.0591
X2.6392Y-1.8091
X2.6392Y-2.5591
X2.9892Y0.4409
X3.1892Y-0.4841
X3.1892Y-0.8841
X3.1892Y-1.9841
X3.1892Y-2.3841
X3.3892Y0.4409
X3.7392Y0.4409
X3.833Y-2.5591
X3.9267Y-0.3091
X4.0205Y-1.0591
X4.1392Y0.4409
X4.208Y-1.8091
X4.233Y-2.5591
X4.3267Y-0.3091
X4.4205Y-1.0591
X4.4892Y0.4409
X4.608Y-1.8091
X4.7705Y-2.5591
X4.8642Y-0.3091
X4.8892Y0.4409
X5.0517Y-1.0591
X5.1705Y-2.5591
X5.2392Y0.4409
X5.2642Y-0.3091
X5.4267Y-1.8091
X5.4517Y-1.0591
X5.6142Y-0.3091
X5.6392Y0.4409
X5.708Y-2.5591
X5.8017Y-1.0591
X5.8267Y-1.8091
X5.9892Y0.4409
X6.0142Y-0.3091
X6.108Y-2.5591
X6.1767Y-1.8091
X6.2017Y-1.0591
X6.3642Y-0.3091
X6.3892Y0.4409
X6.5517Y-1.0591
X6.5767Y-1.8091
X6.7392Y0.4409
X6.7642Y-0.3091
X6.9267Y-1.8091
X6.9517Y-1.0591
X7.1142Y-0.3091
X7.1392Y0.4409
X7.3017Y-1.0591
X7.3267Y-1.8091
X7.4892Y0.4409
X7.5142Y-0.3091
X7.6767Y-1.8091
X7.7017Y-1.0591
X7.8642Y-0.3091
X7.8892Y0.4409
X8.0517Y-1.0591
X8.0767Y-1.8091
X8.2392Y0.4409
X8.2642Y-0.3091
X8.4267Y-1.8091
X8.4517Y-1.0591
X8.5205Y-2.5591
X8.6142Y-0.3091
X8.6392Y0.4409
X8.8017Y-1.0591
X8.8267Y-1.8091
X8.9205Y-2.5591
X8.9892Y0.4409
X9.0142Y-0.3091
X9.1767Y-1.8091
X9.2017Y-1.0591
X9.3642Y-0.3091
X9.3892Y0.4409
X9.5517Y-1.0591
X9.5767Y-1.8091
X9.7392Y0.4409
X9.7642Y-0.3091
X9.9267Y-1.8091
X9.9517Y-1.0591
X10.1142Y-0.3091
X10.1392Y0.4409
X10.3017Y-1.0591
X10.3267Y-1.8091
X10.4892Y0.4409
X10.5142Y-0.3091
X10.6767Y-1.8091
X10.7017Y-1.0591
X10.8642Y-0.3091
X10.8892Y0.4409
X11.0517Y-1.0591
X11.0767Y-1.8091
X11.2392Y0.4409
X11.2642Y-0.3091
X11.333Y-2.5591
X11.4267Y-1.8091
X11.4517Y-1.0591
X11.6142Y-0.3091
X11.6392Y0.4409
X11.733Y-2.5591
X11.8017Y-1.0591
X11.8267Y-1.8091
X11.9892Y0.4409
X12.0142Y-0.3091
X12.1767Y-1.8091
X12.2017Y-1.0591
X12.2705Y-2.5591
X12.3642Y-0.3091
X12.3892Y0.4409
X12.5517Y-1.0591
X12.5767Y-1.8091
X12.6705Y-2.5591
X12.7392Y0.4409
X12.7642Y-0.3091
X12.9517Y-1.0591
X13.1142Y-0.3091
X13.1392Y0.4409
X13.208Y-2.5591
X13.5142Y-0.3091
X13.583Y-1.8091
X13.608Y-2.5591
X13.7705Y-1.0591
X13.8642Y0.4409
X13.983Y-1.8091
X14.0517Y-0.3091
X14.1455Y-2.5591
X14.1705Y-1.0591
X14.2642Y0.4409
X14.4517Y-0.3091
X14.5455Y-2.5591
T2
X0.7892Y0.5409
X0.7892Y-0.2091
X0.7892Y-0.9591
X0.7892Y-1.7091
X1.0392Y0.6409
X1.0392Y-0.1091
X1.0392Y-0.8591
X1.0392Y-1.6091
X1.1642Y-2.4591
X1.4142Y-2.3591
X1.5392Y-0.9591
X1.5392Y-1.7091
X1.7892Y0.5909
X1.7892Y-0.1591
X1.7892Y-0.8591
X1.7892Y-1.6091
X1.8892Y0.3409
X1.8892Y-0.4091
X2.2892Y-0.2091
X2.2892Y-0.9591
X2.2892Y-1.7091
X2.2892Y-2.4591
X2.3392Y0.2409
X2.5392Y-0.1091
X2.5392Y-0.8591
X2.5392Y-1.6091
X2.5392Y-2.3591
X2.5892Y0.3409
X2.9892Y-0.5841
X2.9892Y-2.0841
X3.0892Y0.2409
X3.0892Y-0.8341
X3.0892Y-2.3341
X3.3392Y0.3409
X3.7892Y0.5409
X3.883Y-2.4591
X3.9767Y-0.2091
X4.0392Y0.6409
X4.0705Y-0.9591
X4.133Y-2.3591
X4.2267Y-0.1091
X4.258Y-1.7091
X4.3205Y-0.8591
X4.508Y-1.6091
X4.5392Y0.5409
X4.7892Y0.6409
X4.8205Y-2.4591
X4.9142Y-0.2091
X5.0705Y-2.3591
X5.1017Y-0.9591
X5.1642Y-0.1091
X5.2892Y0.5409
X5.3517Y-0.8591
X5.4767Y-1.7091
X5.5392Y0.6409
X5.6642Y-0.2091
X5.7267Y-1.6091
X5.758Y-2.4591
X5.8517Y-0.9591
X5.9142Y-0.1091
X6.008Y-2.3591
X6.0392Y0.5409
X6.1017Y-0.8591
X6.2267Y-1.7091
X6.2892Y0.6409
X6.4142Y-0.2091
X6.4767Y-1.6091
X6.6017Y-0.9591
X6.6642Y-0.1091
X6.7892Y0.5409
X6.8517Y-0.8591
X6.9767Y-1.7091
X7.0392Y0.6409
X7.1642Y-0.2091
X7.2267Y-1.6091
X7.3517Y-0.9591
X7.4142Y-0.1091
X7.5392Y0.5409
X7.6017Y-0.8591
X7.7267Y-1.7091
X7.7892Y0.6409
X7.9142Y-0.2091
X7.9767Y-1.6091
X8.1017Y-0.9591
X8.1642Y-0.1091
X8.2892Y0.5409
X8.3517Y-0.8591
X8.4767Y-1.7091
X8.5392Y0.6409
X8.5705Y-2.4591
X8.6642Y-0.2091
X8.7267Y-1.6091
X8.8205Y-2.3591
X8.8517Y-0.9591
X8.9142Y-0.1091
X9.0392Y0.5409
X9.1017Y-0.8591
X9.2267Y-1.7091
X9.2892Y0.6409
X9.4142Y-0.2091
X9.4767Y-1.6091
X9.6017Y-0.9591
X9.6642Y-0.1091
X9.7892Y0.5409
X9.8517Y-0.8591
X9.9767Y-1.7091
X10.0392Y0.6409
X10.1642Y-0.2091
X10.2267Y-1.6091
X10.3517Y-0.9591
X10.4142Y-0.1091
X10.5392Y0.5409
X10.6017Y-0.8591
X10.7267Y-1.7091
X10.7892Y0.6409
X10.9142Y-0.2091
X10.9767Y-1.6091
X11.1017Y-0.9591
X11.1642Y-0.1091
X11.2892Y0.5409
X11.3517Y-0.8591
X11.383Y-2.4591
X11.4767Y-1.7091
X11.5392Y0.6409
X11.633Y-2.3591
X11.6642Y-0.2091
X11.7267Y-1.6091
X11.8517Y-0.9591
X11.9142Y-0.1091
X12.0392Y0.5409
X12.1017Y-0.8591
X12.2267Y-1.7091
X12.2892Y0.6409
X12.3205Y-2.4591
X12.4142Y-0.2091
X12.4767Y-1.6091
X12.5705Y-2.3591
X12.6017Y-0.9591
X12.6642Y-0.1091
X12.7892Y0.5409
X12.8517Y-0.8591
X13.0392Y0.6409
X13.1642Y-0.2091
X13.258Y-2.4591
X13.4142Y-0.1091
X13.508Y-2.3591
X13.633Y-1.7091
X13.8205Y-0.9591
X13.883Y-1.6091
X13.9142Y0.5409
X14.0705Y-0.8591
X14.1017Y-0.2091
X14.1642Y0.6409
X14.1955Y-2.4591
X14.3517Y-0.1091
X14.4455Y-2.3591
T3
X0.8442Y-2.2841
X1.7842Y-2.2841
X2.9142Y-0.2141
X2.9142Y-1.1541
X2.9142Y-1.7141
X2.9142Y-2.6541
X3.938Y-1.5341
X4.878Y-1.5341
X6.752Y-2.2841
X10.689Y-2.2841
X13.313Y-1.5341
X13.5005Y-0.7841
X13.5942Y0.7159
X14.253Y-1.5341
X14.4405Y-0.7841
X14.5342Y0.7159
T4
X0.8442Y-2.8841
X0.9392Y0.4409
X0.9392Y-0.3091
X0.9392Y-1.0591
X0.9392Y-1.8091
X1.3142Y-2.5591
X1.6892Y0.4409
X1.6892Y-0.3091
X1.6892Y-1.0591
X1.6892Y-1.8091
X1.7842Y-2.8841
X2.4392Y0.4409
X2.4392Y-0.3091
X2.4392Y-1.0591
X2.4392Y-1.8091
X2.4392Y-2.5591
X3.1892Y0.4409
X3.1892Y-0.6841
X3.1892Y-2.1841
X3.5142Y-0.2141
X3.5142Y-1.1541
X3.5142Y-1.7141
X3.5142Y-2.6541
X3.938Y-2.1341
X3.9392Y0.4409
X4.033Y-2.5591
X4.1267Y-0.3091
X4.2205Y-1.0591
X4.408Y-1.8091
X4.6892Y0.4409
X4.878Y-2.1341
X4.9705Y-2.5591
X5.0642Y-0.3091
X5.2517Y-1.0591
X5.4392Y0.4409
X5.6267Y-1.8091
X5.8142Y-0.3091
X5.908Y-2.5591
X6.0017Y-1.0591
X6.1892Y0.4409
X6.3767Y-1.8091
X6.5642Y-0.3091
X6.7517Y-1.0591
X6.752Y-2.8841
X6.9392Y0.4409
X7.1267Y-1.8091
X7.3142Y-0.3091
X7.5017Y-1.0591
X7.6892Y0.4409
X7.8767Y-1.8091
X8.0642Y-0.3091
X8.2517Y-1.0591
X8.4392Y0.4409
X8.6267Y-1.8091
X8.7205Y-2.5591
X8.8142Y-0.3091
X9.0017Y-1.0591
X9.1892Y0.4409
X9.3767Y-1.8091
X9.5642Y-0.3091
X9.7517Y-1.0591
X9.9392Y0.4409
X10.1267Y-1.8091
X10.3142Y-0.3091
X10.5017Y-1.0591
X10.689Y-2.8841
X10.6892Y0.4409
X10.8767Y-1.8091
X11.0642Y-0.3091
X11.2517Y-1.0591
X11.4392Y0.4409
X11.533Y-2.5591
X11.6267Y-1.8091
X11.8142Y-0.3091
X12.0017Y-1.0591
X12.1892Y0.4409
X12.3767Y-1.8091
X12.4705Y-2.5591
X12.5642Y-0.3091
X12.7517Y-1.0591
X12.9392Y0.4409
X13.313Y-2.1341
X13.3142Y-0.3091
X13.408Y-2.5591
X13.5005Y-1.3841
X13.5942Y0.1159
X13.783Y-1.8091
X13.9705Y-1.0591
X14.0642Y0.4409
X14.2517Y-0.3091
X14.253Y-2.1341
X14.3455Y-2.5591
X14.4405Y-1.3841
X14.5342Y0.1159
T0
M30
