M48
; DRILL file {KiCad 5.99.0-unknown-4f191ce2c7~125~ubuntu18.04.1} date Sun Apr 25 16:47:47 2021
; FORMAT={-:-/ absolute / inch / decimal}
; #@! TF.CreationDate,2021-04-25T16:47:47-05:00
; #@! TF.GenerationSoftware,Kicad,Pcbnew,5.99.0-unknown-4f191ce2c7~125~ubuntu18.04.1
; #@! TF.FileFunction,Plated,1,2,PTH
FMAT,2
INCH
; #@! TA.AperFunction,Plated,PTH,ViaDrill
T1C0.0157
; #@! TA.AperFunction,Plated,PTH,ComponentDrill
T2C0.0276
; #@! TA.AperFunction,Plated,PTH,ComponentDrill
T3C0.0433
%
G90
G05
T1
X0.4678Y-2.6456
X0.875Y-2.05
X1.05Y-2.4
X1.0678Y-1.2956
X1.3428Y-0.9206
X1.4428Y-2.0706
X1.4928Y-1.3206
X1.5928Y-4.1206
X1.6963Y-4.2921
X1.7178Y-0.9956
X1.7178Y-2.7956
X1.8178Y-1.7956
X1.8913Y-1.0471
X1.8928Y-0.9456
X1.9428Y-3.7956
X1.9631Y-2.8753
X1.9928Y-1.3456
X2.1178Y-0.9456
X2.5928Y-1.7456
X2.6428Y-0.7456
X2.7819Y-4.0347
X2.9428Y-4.3206
X3.0655Y-1.448
X3.1178Y-1.7456
X3.3178Y-0.8206
X3.4678Y-1.5956
X3.5428Y-2.2956
X3.5678Y-0.6956
X3.5678Y-3.5456
X3.6803Y-2.6581
X3.8428Y-0.6956
X4.4428Y-2.6706
X4.6678Y-3.2206
X4.6678Y-3.4456
X5.1678Y-1.9206
X5.4542Y-2.6842
X5.9042Y-2.0092
X6.0928Y-1.7706
X6.2917Y-2.7717
X6.4928Y-3.2206
X7.7042Y-2.6842
X8.7178Y-3.3956
X8.7428Y-3.5456
X8.8928Y-3.4456
X8.9428Y-1.7206
X9.6428Y-3.5456
X11.5178Y-2.5456
X11.8906Y-3.3728
X12.2788Y-1.9597
X12.435Y-2.6784
X12.8428Y-1.8956
X13.8678Y-3.4456
X13.9428Y-2.7206
T2
X0.5785Y-0.6547
X0.5785Y-1.4047
X0.5785Y-2.1547
X0.5785Y-2.9047
X0.8856Y-0.6547
X0.8856Y-1.4047
X0.8856Y-2.1547
X0.8856Y-2.9047
X0.9535Y-3.6547
X1.2606Y-3.6547
X1.3285Y-0.6547
X1.3285Y-1.4047
X1.3285Y-2.1547
X1.3285Y-2.9047
X1.6356Y-0.6547
X1.6356Y-1.4047
X1.6356Y-2.1547
X1.6356Y-2.9047
X2.0785Y-0.6547
X2.0785Y-1.4047
X2.0785Y-2.1547
X2.0785Y-2.9047
X2.0785Y-3.6547
X2.3856Y-0.6547
X2.3856Y-1.4047
X2.3856Y-2.1547
X2.3856Y-2.9047
X2.3856Y-3.6547
X2.607Y-2.0011
X2.607Y-2.3082
X2.607Y-3.5011
X2.607Y-3.8082
X2.8285Y-0.6547
X3.1356Y-0.6547
X3.766Y-1.4047
X3.8597Y-2.1547
X3.9535Y-3.6547
X4.0472Y-2.9047
X4.0731Y-1.4047
X4.107Y-0.8761
X4.107Y-1.1832
X4.1668Y-2.1547
X4.2606Y-3.6547
X4.3285Y-0.6547
X4.3543Y-2.9047
X4.6356Y-0.6547
X4.7035Y-1.4047
X4.891Y-2.1547
X4.891Y-3.6547
X5.0106Y-1.4047
X5.0785Y-0.6547
X5.1981Y-2.1547
X5.1981Y-3.6547
X5.266Y-2.9047
X5.3856Y-0.6547
X5.4535Y-1.4047
X5.5472Y-3.6547
X5.5731Y-2.9047
X5.641Y-2.1547
X5.7606Y-1.4047
X5.8285Y-0.6547
X5.8543Y-3.6547
X5.9481Y-2.1547
X6.016Y-2.9047
X6.1356Y-0.6547
X6.2035Y-1.4047
X6.3231Y-2.9047
X6.391Y-2.1547
X6.5106Y-1.4047
X6.5785Y-0.6547
X6.6981Y-2.1547
X6.766Y-2.9047
X6.8856Y-0.6547
X6.9535Y-1.4047
X7.0731Y-2.9047
X7.141Y-2.1547
X7.2606Y-1.4047
X7.4481Y-2.1547
X7.516Y-2.9047
X7.7035Y-1.4047
X7.8231Y-2.9047
X7.857Y-0.8761
X7.857Y-1.1832
X7.891Y-2.1547
X8.0106Y-1.4047
X8.0785Y-0.6547
X8.1981Y-2.1547
X8.266Y-2.9047
X8.3597Y-3.6547
X8.3856Y-0.6547
X8.4535Y-1.4047
X8.5731Y-2.9047
X8.641Y-2.1547
X8.6668Y-3.6547
X8.7606Y-1.4047
X8.8285Y-0.6547
X8.9481Y-2.1547
X9.016Y-2.9047
X9.1356Y-0.6547
X9.2035Y-1.4047
X9.3231Y-2.9047
X9.391Y-2.1547
X9.5106Y-1.4047
X9.5785Y-0.6547
X9.6981Y-2.1547
X9.766Y-2.9047
X9.8856Y-0.6547
X9.9535Y-1.4047
X10.0731Y-2.9047
X10.141Y-2.1547
X10.2606Y-1.4047
X10.3285Y-0.6547
X10.4481Y-2.1547
X10.516Y-2.9047
X10.6356Y-0.6547
X10.7035Y-1.4047
X10.8231Y-2.9047
X10.891Y-2.1547
X11.0106Y-1.4047
X11.1722Y-3.6547
X11.1981Y-2.1547
X11.266Y-2.9047
X11.4535Y-1.4047
X11.4793Y-3.6547
X11.5731Y-2.9047
X11.607Y-0.8761
X11.607Y-1.1832
X11.641Y-2.1547
X11.7606Y-1.4047
X11.8285Y-0.6547
X11.9481Y-2.1547
X12.016Y-2.9047
X12.1097Y-3.6547
X12.1356Y-0.6547
X12.2035Y-1.4047
X12.3231Y-2.9047
X12.391Y-2.1547
X12.4168Y-3.6547
X12.5106Y-1.4047
X12.5785Y-0.6547
X12.6981Y-2.1547
X12.8597Y-1.4047
X12.8856Y-0.6547
X13.1668Y-1.4047
X13.3285Y-3.6547
X13.516Y-2.9047
X13.6097Y-2.1547
X13.6356Y-3.6547
X13.7035Y-0.6547
X13.7972Y-1.4047
X13.8231Y-2.9047
X13.9168Y-2.1547
X14.0106Y-0.6547
X14.1043Y-1.4047
X14.5133Y-3.8761
X14.5133Y-4.1832
T3
X1.1928Y-0.5471
X1.1928Y-0.6471
X1.1928Y-0.7471
X1.1928Y-0.8471
X1.1928Y-0.9471
X1.1928Y-1.0471
X1.1928Y-1.1471
X1.1928Y-1.2471
X1.1928Y-1.3471
X1.1928Y-1.4471
X1.1928Y-1.5471
X1.1928Y-1.6471
X1.7928Y-0.5471
X1.7928Y-0.6471
X1.7928Y-0.7471
X1.7928Y-0.8471
X1.7928Y-0.9471
X1.7928Y-1.0471
X1.7928Y-1.1471
X1.7928Y-1.2471
X1.7928Y-1.3471
X1.7928Y-1.4471
X1.7928Y-1.5471
X1.7928Y-1.6471
T0
M30
