%TF.GenerationSoftware,KiCad,Pcbnew,5.99.0-unknown-4f191ce2c7~125~ubuntu18.04.1*%
%TF.CreationDate,2021-04-25T16:47:38-05:00*%
%TF.ProjectId,southpawpcb,736f7574-6870-4617-9770-63622e6b6963,rev?*%
%TF.SameCoordinates,Original*%
%TF.FileFunction,Profile,NP*%
%FSLAX45Y45*%
G04 Gerber Fmt 4.5, Leading zero omitted, Abs format (unit mm)*
G04 Created by KiCad (PCBNEW 5.99.0-unknown-4f191ce2c7~125~ubuntu18.04.1) date 2021-04-25 16:47:38*
%MOMM*%
%LPD*%
G01*
G04 APERTURE LIST*
%TA.AperFunction,Profile*%
%ADD10C,0.050000*%
%TD*%
G04 APERTURE END LIST*
D10*
X857500Y-11398500D02*
X857500Y-11493500D01*
X19287500Y-1328500D02*
G75*
G02*
X18717500Y-1328500I-285000J0D01*
G01*
X28502500Y-1328500D02*
G75*
G02*
X28597500Y-1233500I95000J0D01*
G01*
X37147500Y-11493500D02*
G75*
G02*
X37052500Y-11588500I-95000J0D01*
G01*
X1047500Y-1233500D02*
X952500Y-1233500D01*
X37147500Y-11493500D02*
X37147500Y-1328500D01*
X28597500Y-11588500D02*
G75*
G02*
X28502500Y-11493500I0J95000D01*
G01*
X27932500Y-11493500D02*
G75*
G02*
X28502500Y-11493500I285000J0D01*
G01*
X28597500Y-11588500D02*
X37052500Y-11588500D01*
X10072500Y-1328500D02*
G75*
G02*
X9502500Y-1328500I-285000J0D01*
G01*
X28597500Y-1233500D02*
X37052500Y-1233500D01*
X28502500Y-1328500D02*
G75*
G02*
X27932500Y-1328500I-285000J0D01*
G01*
X9502500Y-11493500D02*
G75*
G02*
X9407500Y-11588500I-95000J0D01*
G01*
X9407500Y-1233500D02*
G75*
G02*
X9502500Y-1328500I0J-95000D01*
G01*
X9407500Y-11588500D02*
X952500Y-11588500D01*
X27932500Y-11493500D02*
G75*
G02*
X27837500Y-11588500I-95000J0D01*
G01*
X9502500Y-11493500D02*
G75*
G02*
X10072500Y-11493500I285000J0D01*
G01*
X18717500Y-11493500D02*
G75*
G02*
X19287500Y-11493500I285000J0D01*
G01*
X19382500Y-1233500D02*
X27837500Y-1233500D01*
X857500Y-1328500D02*
G75*
G02*
X952500Y-1233500I95000J0D01*
G01*
X952500Y-11588500D02*
G75*
G02*
X857500Y-11493500I0J95000D01*
G01*
X19287500Y-1328500D02*
G75*
G02*
X19382500Y-1233500I95000J0D01*
G01*
X10167500Y-1233500D02*
X18622500Y-1233500D01*
X37052500Y-1233500D02*
G75*
G02*
X37147500Y-1328500I0J-95000D01*
G01*
X10072500Y-1328500D02*
G75*
G02*
X10167500Y-1233500I95000J0D01*
G01*
X10167500Y-11588500D02*
G75*
G02*
X10072500Y-11493500I0J95000D01*
G01*
X19382500Y-11588500D02*
G75*
G02*
X19287500Y-11493500I0J95000D01*
G01*
X1047500Y-1233500D02*
X9407500Y-1233500D01*
X18622500Y-1233500D02*
G75*
G02*
X18717500Y-1328500I0J-95000D01*
G01*
X27837500Y-11588500D02*
X19382500Y-11588500D01*
X18622500Y-11588500D02*
X10167500Y-11588500D01*
X857500Y-1328500D02*
X857500Y-11398500D01*
X27837500Y-1233500D02*
G75*
G02*
X27932500Y-1328500I0J-95000D01*
G01*
X18717500Y-11493500D02*
G75*
G02*
X18622500Y-11588500I-95000J0D01*
G01*
M02*
