G04 #@! TF.GenerationSoftware,KiCad,Pcbnew,5.99.0-unknown-4f191ce2c7~125~ubuntu18.04.1*
G04 #@! TF.CreationDate,2021-04-25T15:12:41-05:00*
G04 #@! TF.ProjectId,southpawpcb,736f7574-6870-4617-9770-63622e6b6963,rev?*
G04 #@! TF.SameCoordinates,Original*
G04 #@! TF.FileFunction,Soldermask,Bot*
G04 #@! TF.FilePolarity,Negative*
%FSLAX46Y46*%
G04 Gerber Fmt 4.6, Leading zero omitted, Abs format (unit mm)*
G04 Created by KiCad (PCBNEW 5.99.0-unknown-4f191ce2c7~125~ubuntu18.04.1) date 2021-04-25 15:12:41*
%MOMM*%
%LPD*%
G01*
G04 APERTURE LIST*
G04 Aperture macros list*
%AMRoundRect*
0 Rectangle with rounded corners*
0 $1 Rounding radius*
0 $2 $3 $4 $5 $6 $7 $8 $9 X,Y pos of 4 corners*
0 Add a 4 corners polygon primitive as box body*
4,1,4,$2,$3,$4,$5,$6,$7,$8,$9,$2,$3,0*
0 Add four circle primitives for the rounded corners*
1,1,$1+$1,$2,$3*
1,1,$1+$1,$4,$5*
1,1,$1+$1,$6,$7*
1,1,$1+$1,$8,$9*
0 Add four rect primitives between the rounded corners*
20,1,$1+$1,$2,$3,$4,$5,0*
20,1,$1+$1,$4,$5,$6,$7,0*
20,1,$1+$1,$6,$7,$8,$9,0*
20,1,$1+$1,$8,$9,$2,$3,0*%
G04 Aperture macros list end*
%ADD10C,4.087800*%
%ADD11C,3.100000*%
%ADD12C,1.850000*%
%ADD13RoundRect,0.050000X-1.275000X-1.250000X1.275000X-1.250000X1.275000X1.250000X-1.275000X1.250000X0*%
%ADD14C,3.148000*%
%ADD15RoundRect,0.050000X-1.250000X1.275000X-1.250000X-1.275000X1.250000X-1.275000X1.250000X1.275000X0*%
%ADD16RoundRect,0.050000X1.275000X1.250000X-1.275000X1.250000X-1.275000X-1.250000X1.275000X-1.250000X0*%
%ADD17RoundRect,0.050000X1.250000X-1.275000X1.250000X1.275000X-1.250000X1.275000X-1.250000X-1.275000X0*%
%ADD18RoundRect,0.050000X-0.800000X-0.800000X0.800000X-0.800000X0.800000X0.800000X-0.800000X0.800000X0*%
%ADD19RoundRect,0.050000X-0.600000X-0.600000X0.600000X-0.600000X0.600000X0.600000X-0.600000X0.600000X0*%
%ADD20C,1.700000*%
%ADD21RoundRect,0.050000X0.800000X-0.800000X0.800000X0.800000X-0.800000X0.800000X-0.800000X-0.800000X0*%
%ADD22RoundRect,0.050000X0.600000X-0.600000X0.600000X0.600000X-0.600000X0.600000X-0.600000X-0.600000X0*%
%ADD23RoundRect,0.050000X0.500000X-0.850000X0.500000X0.850000X-0.500000X0.850000X-0.500000X-0.850000X0*%
%ADD24RoundRect,0.050000X0.800000X0.800000X-0.800000X0.800000X-0.800000X-0.800000X0.800000X-0.800000X0*%
%ADD25RoundRect,0.050000X0.600000X0.600000X-0.600000X0.600000X-0.600000X-0.600000X0.600000X-0.600000X0*%
%ADD26RoundRect,0.050000X-0.800000X0.800000X-0.800000X-0.800000X0.800000X-0.800000X0.800000X0.800000X0*%
G04 APERTURE END LIST*
D10*
G04 #@! TO.C,K1*
X23856200Y11200000D03*
D11*
X20046200Y13740000D03*
D12*
X28936200Y11200000D03*
D11*
X26396200Y16280000D03*
D12*
X18776200Y11200000D03*
D13*
X16771200Y13740000D03*
X29698200Y16280000D03*
G04 #@! TD*
D12*
G04 #@! TO.C,K24*
X133711000Y-7850000D03*
D11*
X124821000Y-5310000D03*
D12*
X123551000Y-7850000D03*
D10*
X128631000Y-7850000D03*
D11*
X131171000Y-2770000D03*
D13*
X121546000Y-5310000D03*
X134473000Y-2770000D03*
G04 #@! TD*
D12*
G04 #@! TO.C,K19*
X18776200Y-7850000D03*
D11*
X26396200Y-2770000D03*
X20046200Y-5310000D03*
D12*
X28936200Y-7850000D03*
D10*
X23856200Y-7850000D03*
D13*
X16771200Y-5310000D03*
X29698200Y-2770000D03*
G04 #@! TD*
D14*
G04 #@! TO.C,K18*
X345293000Y18185000D03*
D12*
X362311000Y11200000D03*
D14*
X369169000Y18185000D03*
D10*
X369169000Y2945000D03*
X357231000Y11200000D03*
X345293000Y2945000D03*
D11*
X353421000Y13740000D03*
X359771000Y16280000D03*
D12*
X352151000Y11200000D03*
D13*
X350146000Y13740000D03*
X363073000Y16280000D03*
G04 #@! TD*
D12*
G04 #@! TO.C,K33*
X295001000Y-7850000D03*
D11*
X296271000Y-5310000D03*
X302621000Y-2770000D03*
D12*
X305161000Y-7850000D03*
D10*
X300081000Y-7850000D03*
D13*
X292996000Y-5310000D03*
X305923000Y-2770000D03*
G04 #@! TD*
D10*
G04 #@! TO.C,K47*
X247693000Y-26900000D03*
D11*
X250233000Y-21820000D03*
D12*
X242613000Y-26900000D03*
D11*
X243883000Y-24360000D03*
D12*
X252773000Y-26900000D03*
D13*
X240608000Y-24360000D03*
X253535000Y-21820000D03*
G04 #@! TD*
D10*
G04 #@! TO.C,K17*
X328656000Y11200000D03*
D11*
X324846000Y13740000D03*
D12*
X333736000Y11200000D03*
X323576000Y11200000D03*
D11*
X331196000Y16280000D03*
D13*
X321571000Y13740000D03*
X334498000Y16280000D03*
G04 #@! TD*
D12*
G04 #@! TO.C,K34*
X314051000Y-7850000D03*
D10*
X319131000Y-7850000D03*
D12*
X324211000Y-7850000D03*
D11*
X321671000Y-2770000D03*
X315321000Y-5310000D03*
D13*
X312046000Y-5310000D03*
X324973000Y-2770000D03*
G04 #@! TD*
D10*
G04 #@! TO.C,K78*
X364375000Y-65000000D03*
D11*
X360565000Y-62460000D03*
D12*
X369455000Y-65000000D03*
D11*
X366915000Y-59920000D03*
D12*
X359295000Y-65000000D03*
D13*
X357290000Y-62460000D03*
X370217000Y-59920000D03*
G04 #@! TD*
D11*
G04 #@! TO.C,K45*
X212133000Y-21820000D03*
D10*
X209593000Y-26900000D03*
D12*
X204513000Y-26900000D03*
D11*
X205783000Y-24360000D03*
D12*
X214673000Y-26900000D03*
D13*
X202508000Y-24360000D03*
X215435000Y-21820000D03*
G04 #@! TD*
D12*
G04 #@! TO.C,K32*
X286111000Y-7850000D03*
D11*
X277221000Y-5310000D03*
X283571000Y-2770000D03*
D12*
X275951000Y-7850000D03*
D10*
X281031000Y-7850000D03*
D13*
X273946000Y-5310000D03*
X286873000Y-2770000D03*
G04 #@! TD*
D12*
G04 #@! TO.C,K13*
X257536000Y11200000D03*
X247376000Y11200000D03*
D11*
X254996000Y16280000D03*
X248646000Y13740000D03*
D10*
X252456000Y11200000D03*
D13*
X245371000Y13740000D03*
X258298000Y16280000D03*
G04 #@! TD*
D11*
G04 #@! TO.C,K66*
X291509000Y-43410000D03*
D12*
X300399000Y-45950000D03*
X290239000Y-45950000D03*
D11*
X297859000Y-40870000D03*
D10*
X295319000Y-45950000D03*
D13*
X288234000Y-43410000D03*
X301161000Y-40870000D03*
G04 #@! TD*
D10*
G04 #@! TO.C,K75*
X292937000Y-65000000D03*
D11*
X289127000Y-62460000D03*
D12*
X298017000Y-65000000D03*
D11*
X295477000Y-59920000D03*
D12*
X287857000Y-65000000D03*
D13*
X285852000Y-62460000D03*
X298779000Y-59920000D03*
G04 #@! TD*
D12*
G04 #@! TO.C,K23*
X109899000Y-7850000D03*
D11*
X107359000Y-2770000D03*
D10*
X104819000Y-7850000D03*
D11*
X101009000Y-5310000D03*
D12*
X99739000Y-7850000D03*
D13*
X97734000Y-5310000D03*
X110661000Y-2770000D03*
G04 #@! TD*
D11*
G04 #@! TO.C,K7*
X134346000Y13740000D03*
D12*
X143236000Y11200000D03*
X133076000Y11200000D03*
D10*
X138156000Y11200000D03*
D11*
X140696000Y16280000D03*
D13*
X131071000Y13740000D03*
X143998000Y16280000D03*
G04 #@! TD*
D12*
G04 #@! TO.C,K2*
X42906200Y6120000D03*
D11*
X47986200Y8660000D03*
X45446200Y15010000D03*
D12*
X42906200Y16280000D03*
D10*
X42906200Y11200000D03*
D15*
X45446200Y18285000D03*
X47986200Y5358000D03*
G04 #@! TD*
D12*
G04 #@! TO.C,K4*
X86086200Y11200000D03*
X75926200Y11200000D03*
D11*
X78466200Y6120000D03*
D10*
X81006200Y11200000D03*
D11*
X84816200Y8660000D03*
D16*
X88091200Y8660000D03*
X75164200Y6120000D03*
G04 #@! TD*
D12*
G04 #@! TO.C,K3*
X56876200Y11200000D03*
X67036200Y11200000D03*
D10*
X61956200Y11200000D03*
D11*
X59416200Y6120000D03*
X65766200Y8660000D03*
D16*
X69041200Y8660000D03*
X56114200Y6120000D03*
G04 #@! TD*
D12*
G04 #@! TO.C,K21*
X56876200Y-7850000D03*
D11*
X64496200Y-2770000D03*
D12*
X67036200Y-7850000D03*
D10*
X61956200Y-7850000D03*
D11*
X58146200Y-5310000D03*
D13*
X54871200Y-5310000D03*
X67798200Y-2770000D03*
G04 #@! TD*
D12*
G04 #@! TO.C,K74*
X216420000Y-65000000D03*
D10*
X221500000Y-65000000D03*
D14*
X271499900Y-58015000D03*
X171500100Y-58015000D03*
D10*
X271499900Y-73255000D03*
D11*
X224040000Y-59920000D03*
D10*
X171500100Y-73255000D03*
D12*
X226580000Y-65000000D03*
D11*
X217690000Y-62460000D03*
D13*
X214415000Y-62460000D03*
X227342000Y-59920000D03*
G04 #@! TD*
D12*
G04 #@! TO.C,K29*
X218801000Y-7850000D03*
D11*
X226421000Y-2770000D03*
D12*
X228961000Y-7850000D03*
D11*
X220071000Y-5310000D03*
D10*
X223881000Y-7850000D03*
D13*
X216796000Y-5310000D03*
X229723000Y-2770000D03*
G04 #@! TD*
D11*
G04 #@! TO.C,K44*
X193083000Y-21820000D03*
D12*
X185463000Y-26900000D03*
D11*
X186733000Y-24360000D03*
D10*
X190543000Y-26900000D03*
D12*
X195623000Y-26900000D03*
D13*
X183458000Y-24360000D03*
X196385000Y-21820000D03*
G04 #@! TD*
D12*
G04 #@! TO.C,K20*
X42906200Y-12930000D03*
D11*
X47986200Y-10390000D03*
D10*
X42906200Y-7850000D03*
D12*
X42906200Y-2770000D03*
D11*
X45446200Y-4040000D03*
D15*
X45446200Y-765000D03*
X47986200Y-13692000D03*
G04 #@! TD*
D10*
G04 #@! TO.C,K42*
X152443000Y-26900000D03*
D12*
X157523000Y-26900000D03*
X147363000Y-26900000D03*
D11*
X148633000Y-24360000D03*
X154983000Y-21820000D03*
D13*
X145358000Y-24360000D03*
X158285000Y-21820000D03*
G04 #@! TD*
D10*
G04 #@! TO.C,K76*
X316750000Y-65000000D03*
D11*
X312940000Y-62460000D03*
X319290000Y-59920000D03*
D12*
X311670000Y-65000000D03*
X321830000Y-65000000D03*
D13*
X309665000Y-62460000D03*
X322592000Y-59920000D03*
G04 #@! TD*
D10*
G04 #@! TO.C,K53*
X23856200Y-45950000D03*
D11*
X20046200Y-43410000D03*
D12*
X18776200Y-45950000D03*
D11*
X26396200Y-40870000D03*
D12*
X28936200Y-45950000D03*
D13*
X16771200Y-43410000D03*
X29698200Y-40870000D03*
G04 #@! TD*
D11*
G04 #@! TO.C,K48*
X269283000Y-21820000D03*
D12*
X271823000Y-26900000D03*
D11*
X262933000Y-24360000D03*
D10*
X266743000Y-26900000D03*
D12*
X261663000Y-26900000D03*
D13*
X259658000Y-24360000D03*
X272585000Y-21820000D03*
G04 #@! TD*
D11*
G04 #@! TO.C,K61*
X196259000Y-43410000D03*
D12*
X194989000Y-45950000D03*
D10*
X200069000Y-45950000D03*
D11*
X202609000Y-40870000D03*
D12*
X205149000Y-45950000D03*
D13*
X192984000Y-43410000D03*
X205911000Y-40870000D03*
G04 #@! TD*
D12*
G04 #@! TO.C,K12*
X228326000Y11200000D03*
D11*
X235946000Y16280000D03*
X229596000Y13740000D03*
D12*
X238486000Y11200000D03*
D10*
X233406000Y11200000D03*
D13*
X226321000Y13740000D03*
X239248000Y16280000D03*
G04 #@! TD*
D12*
G04 #@! TO.C,K39*
X67036200Y-26900000D03*
D10*
X61956200Y-26900000D03*
D12*
X56876200Y-26900000D03*
D11*
X58146200Y-24360000D03*
X64496200Y-21820000D03*
D13*
X54871200Y-24360000D03*
X67798200Y-21820000D03*
G04 #@! TD*
D14*
G04 #@! TO.C,K56*
X74021200Y-67413000D03*
D12*
X81006200Y-60555000D03*
X81006200Y-50395000D03*
D14*
X74021200Y-43537000D03*
D10*
X81006200Y-55475000D03*
D11*
X75926200Y-52935000D03*
D10*
X89261200Y-43537000D03*
D11*
X78466200Y-59285000D03*
D10*
X89261200Y-67413000D03*
D17*
X78466200Y-62560000D03*
X75926200Y-49633000D03*
G04 #@! TD*
D12*
G04 #@! TO.C,K50*
X309923000Y-26900000D03*
D10*
X304843000Y-26900000D03*
D11*
X307383000Y-21820000D03*
X301033000Y-24360000D03*
D12*
X299763000Y-26900000D03*
D13*
X297758000Y-24360000D03*
X310685000Y-21820000D03*
G04 #@! TD*
D11*
G04 #@! TO.C,K55*
X58146200Y-43410000D03*
D12*
X56876200Y-45950000D03*
X67036200Y-45950000D03*
D11*
X64496200Y-40870000D03*
D10*
X61956200Y-45950000D03*
D13*
X54871200Y-43410000D03*
X67798200Y-40870000D03*
G04 #@! TD*
G04 #@! TO.C,K52*
X360692000Y-21820000D03*
X347765000Y-24360000D03*
D11*
X351040000Y-24360000D03*
D10*
X342912000Y-35155000D03*
X354850000Y-26900000D03*
D12*
X359930000Y-26900000D03*
D14*
X366788000Y-19915000D03*
D10*
X366788000Y-35155000D03*
D11*
X357390000Y-21820000D03*
D14*
X342912000Y-19915000D03*
D12*
X349770000Y-26900000D03*
G04 #@! TD*
D11*
G04 #@! TO.C,K38*
X39096200Y-24360000D03*
D12*
X37826200Y-26900000D03*
D11*
X45446200Y-21820000D03*
D12*
X47986200Y-26900000D03*
D10*
X42906200Y-26900000D03*
D13*
X35821200Y-24360000D03*
X48748200Y-21820000D03*
G04 #@! TD*
D12*
G04 #@! TO.C,K58*
X137839000Y-45950000D03*
D10*
X142919000Y-45950000D03*
D12*
X147999000Y-45950000D03*
D11*
X145459000Y-40870000D03*
X139109000Y-43410000D03*
D13*
X135834000Y-43410000D03*
X148761000Y-40870000D03*
G04 #@! TD*
D11*
G04 #@! TO.C,K60*
X177209000Y-43410000D03*
D12*
X175939000Y-45950000D03*
D11*
X183559000Y-40870000D03*
D12*
X186099000Y-45950000D03*
D10*
X181019000Y-45950000D03*
D13*
X173934000Y-43410000D03*
X186861000Y-40870000D03*
G04 #@! TD*
D11*
G04 #@! TO.C,K62*
X221659000Y-40870000D03*
D12*
X224199000Y-45950000D03*
X214039000Y-45950000D03*
D10*
X219119000Y-45950000D03*
D11*
X215309000Y-43410000D03*
D13*
X212034000Y-43410000D03*
X224961000Y-40870000D03*
G04 #@! TD*
D11*
G04 #@! TO.C,K10*
X191496000Y13740000D03*
X197846000Y16280000D03*
D10*
X195306000Y11200000D03*
D12*
X200386000Y11200000D03*
X190226000Y11200000D03*
D13*
X188221000Y13740000D03*
X201148000Y16280000D03*
G04 #@! TD*
D11*
G04 #@! TO.C,K14*
X274046000Y16280000D03*
D12*
X276586000Y11200000D03*
X266426000Y11200000D03*
D10*
X271506000Y11200000D03*
D11*
X267696000Y13740000D03*
D13*
X264421000Y13740000D03*
X277348000Y16280000D03*
G04 #@! TD*
D12*
G04 #@! TO.C,K11*
X209276000Y11200000D03*
D11*
X216896000Y16280000D03*
X210546000Y13740000D03*
D10*
X214356000Y11200000D03*
D12*
X219436000Y11200000D03*
D13*
X207271000Y13740000D03*
X220198000Y16280000D03*
G04 #@! TD*
D12*
G04 #@! TO.C,K51*
X318813000Y-26900000D03*
D11*
X320083000Y-24360000D03*
D12*
X328973000Y-26900000D03*
D10*
X323893000Y-26900000D03*
D11*
X326433000Y-21820000D03*
D13*
X316808000Y-24360000D03*
X329735000Y-21820000D03*
G04 #@! TD*
D10*
G04 #@! TO.C,K57*
X123900000Y-54205000D03*
X100024000Y-54205000D03*
D11*
X108152000Y-43410000D03*
D14*
X100024000Y-38965000D03*
D10*
X111962000Y-45950000D03*
D12*
X117042000Y-45950000D03*
D14*
X123900000Y-38965000D03*
D12*
X106882000Y-45950000D03*
D11*
X114502000Y-40870000D03*
D13*
X104877000Y-43410000D03*
X117804000Y-40870000D03*
G04 #@! TD*
D12*
G04 #@! TO.C,K54*
X47986200Y-45950000D03*
D11*
X39096200Y-43410000D03*
X45446200Y-40870000D03*
D10*
X42906200Y-45950000D03*
D12*
X37826200Y-45950000D03*
D13*
X35821200Y-43410000D03*
X48748200Y-40870000D03*
G04 #@! TD*
D11*
G04 #@! TO.C,K9*
X172446000Y13740000D03*
D12*
X181336000Y11200000D03*
X171176000Y11200000D03*
D10*
X176256000Y11200000D03*
D11*
X178796000Y16280000D03*
D13*
X169171000Y13740000D03*
X182098000Y16280000D03*
G04 #@! TD*
D12*
G04 #@! TO.C,K36*
X367073000Y-7850000D03*
X356913000Y-7850000D03*
D11*
X364533000Y-2770000D03*
X358183000Y-5310000D03*
D10*
X361993000Y-7850000D03*
D13*
X354908000Y-5310000D03*
X367835000Y-2770000D03*
G04 #@! TD*
D11*
G04 #@! TO.C,K37*
X26396200Y-21820000D03*
D10*
X23856200Y-26900000D03*
D11*
X20046200Y-24360000D03*
D12*
X28936200Y-26900000D03*
X18776200Y-26900000D03*
D13*
X16771200Y-24360000D03*
X29698200Y-21820000D03*
G04 #@! TD*
D11*
G04 #@! TO.C,K16*
X305796000Y13740000D03*
D10*
X309606000Y11200000D03*
D12*
X304526000Y11200000D03*
D11*
X312146000Y16280000D03*
D12*
X314686000Y11200000D03*
D13*
X302521000Y13740000D03*
X315448000Y16280000D03*
G04 #@! TD*
D14*
G04 #@! TO.C,K22*
X74021200Y-5437000D03*
D12*
X81006200Y-12295000D03*
D14*
X74021200Y-29313000D03*
D12*
X81006200Y-22455000D03*
D10*
X89261200Y-29313000D03*
X89261200Y-5437000D03*
D11*
X75926200Y-14835000D03*
D10*
X81006200Y-17375000D03*
D11*
X78466200Y-21185000D03*
D17*
X78466200Y-24460000D03*
X75926200Y-11533000D03*
G04 #@! TD*
D11*
G04 #@! TO.C,K15*
X286746000Y13740000D03*
D12*
X285476000Y11200000D03*
D10*
X290556000Y11200000D03*
D11*
X293096000Y16280000D03*
D12*
X295636000Y11200000D03*
D13*
X283471000Y13740000D03*
X296398000Y16280000D03*
G04 #@! TD*
D10*
G04 #@! TO.C,K72*
X126250000Y-65000000D03*
D12*
X121170000Y-65000000D03*
D11*
X122440000Y-62460000D03*
X128790000Y-59920000D03*
D12*
X131330000Y-65000000D03*
D13*
X119165000Y-62460000D03*
X132092000Y-59920000D03*
G04 #@! TD*
D12*
G04 #@! TO.C,K49*
X290873000Y-26900000D03*
X280713000Y-26900000D03*
D10*
X285793000Y-26900000D03*
D11*
X281983000Y-24360000D03*
X288333000Y-21820000D03*
D13*
X278708000Y-24360000D03*
X291635000Y-21820000D03*
G04 #@! TD*
D11*
G04 #@! TO.C,K73*
X152602000Y-59920000D03*
D12*
X155142000Y-65000000D03*
D11*
X146252000Y-62460000D03*
D12*
X144982000Y-65000000D03*
D10*
X150062000Y-65000000D03*
D13*
X142977000Y-62460000D03*
X155904000Y-59920000D03*
G04 #@! TD*
D11*
G04 #@! TO.C,K43*
X167683000Y-24360000D03*
D12*
X166413000Y-26900000D03*
D11*
X174033000Y-21820000D03*
D12*
X176573000Y-26900000D03*
D10*
X171493000Y-26900000D03*
D13*
X164408000Y-24360000D03*
X177335000Y-21820000D03*
G04 #@! TD*
D12*
G04 #@! TO.C,K41*
X138473000Y-26900000D03*
D11*
X135933000Y-21820000D03*
D10*
X133393000Y-26900000D03*
D12*
X128313000Y-26900000D03*
D11*
X129583000Y-24360000D03*
D13*
X126308000Y-24360000D03*
X139235000Y-21820000D03*
G04 #@! TD*
D12*
G04 #@! TO.C,K63*
X243249000Y-45950000D03*
D11*
X234359000Y-43410000D03*
D10*
X238169000Y-45950000D03*
D11*
X240709000Y-40870000D03*
D12*
X233089000Y-45950000D03*
D13*
X231084000Y-43410000D03*
X244011000Y-40870000D03*
G04 #@! TD*
D11*
G04 #@! TO.C,K40*
X103390000Y-24360000D03*
X109740000Y-21820000D03*
D12*
X112280000Y-26900000D03*
D10*
X107200000Y-26900000D03*
D12*
X102120000Y-26900000D03*
D13*
X100115000Y-24360000D03*
X113042000Y-21820000D03*
G04 #@! TD*
D12*
G04 #@! TO.C,K31*
X256901000Y-7850000D03*
D10*
X261981000Y-7850000D03*
D12*
X267061000Y-7850000D03*
D11*
X258171000Y-5310000D03*
X264521000Y-2770000D03*
D13*
X254896000Y-5310000D03*
X267823000Y-2770000D03*
G04 #@! TD*
D12*
G04 #@! TO.C,K35*
X333101000Y-7850000D03*
D11*
X340721000Y-2770000D03*
X334371000Y-5310000D03*
D12*
X343261000Y-7850000D03*
D10*
X338181000Y-7850000D03*
D13*
X331096000Y-5310000D03*
X344023000Y-2770000D03*
G04 #@! TD*
D12*
G04 #@! TO.C,K30*
X237851000Y-7850000D03*
D11*
X239121000Y-5310000D03*
D10*
X242931000Y-7850000D03*
D11*
X245471000Y-2770000D03*
D12*
X248011000Y-7850000D03*
D13*
X235846000Y-5310000D03*
X248773000Y-2770000D03*
G04 #@! TD*
D12*
G04 #@! TO.C,K6*
X114026000Y11200000D03*
D11*
X121646000Y16280000D03*
D10*
X119106000Y11200000D03*
D11*
X115296000Y13740000D03*
D12*
X124186000Y11200000D03*
D13*
X112021000Y13740000D03*
X124948000Y16280000D03*
G04 #@! TD*
D11*
G04 #@! TO.C,K26*
X169271000Y-2770000D03*
D10*
X166731000Y-7850000D03*
D12*
X161651000Y-7850000D03*
X171811000Y-7850000D03*
D11*
X162921000Y-5310000D03*
D13*
X159646000Y-5310000D03*
X172573000Y-2770000D03*
G04 #@! TD*
D11*
G04 #@! TO.C,K67*
X316909000Y-40870000D03*
X310559000Y-43410000D03*
D12*
X309289000Y-45950000D03*
D10*
X314369000Y-45950000D03*
D12*
X319449000Y-45950000D03*
D13*
X307284000Y-43410000D03*
X320211000Y-40870000D03*
G04 #@! TD*
D14*
G04 #@! TO.C,K68*
X362025000Y-38965000D03*
D10*
X350087000Y-45950000D03*
X362025000Y-54205000D03*
D11*
X352627000Y-40870000D03*
D12*
X355167000Y-45950000D03*
D10*
X338149000Y-54205000D03*
D11*
X346277000Y-43410000D03*
D12*
X345007000Y-45950000D03*
D14*
X338149000Y-38965000D03*
D13*
X343002000Y-43410000D03*
X355929000Y-40870000D03*
G04 #@! TD*
D12*
G04 #@! TO.C,K70*
X56876200Y-65000000D03*
X67036200Y-65000000D03*
D11*
X58146200Y-62460000D03*
X64496200Y-59920000D03*
D10*
X61956200Y-65000000D03*
D13*
X54871200Y-62460000D03*
X67798200Y-59920000D03*
G04 #@! TD*
D11*
G04 #@! TO.C,K71*
X98627000Y-62460000D03*
D12*
X97357000Y-65000000D03*
D10*
X102437000Y-65000000D03*
D12*
X107517000Y-65000000D03*
D11*
X104977000Y-59920000D03*
D13*
X95352000Y-62460000D03*
X108279000Y-59920000D03*
G04 #@! TD*
D12*
G04 #@! TO.C,K64*
X252139000Y-45950000D03*
D10*
X257219000Y-45950000D03*
D11*
X259759000Y-40870000D03*
D12*
X262299000Y-45950000D03*
D11*
X253409000Y-43410000D03*
D13*
X250134000Y-43410000D03*
X263061000Y-40870000D03*
G04 #@! TD*
D12*
G04 #@! TO.C,K5*
X94976000Y11200000D03*
D11*
X102596000Y16280000D03*
D12*
X105136000Y11200000D03*
D11*
X96246000Y13740000D03*
D10*
X100056000Y11200000D03*
D13*
X92971000Y13740000D03*
X105898000Y16280000D03*
G04 #@! TD*
D10*
G04 #@! TO.C,K27*
X185781000Y-7850000D03*
D11*
X181971000Y-5310000D03*
D12*
X180701000Y-7850000D03*
D11*
X188321000Y-2770000D03*
D12*
X190861000Y-7850000D03*
D13*
X178696000Y-5310000D03*
X191623000Y-2770000D03*
G04 #@! TD*
D10*
G04 #@! TO.C,K28*
X204831000Y-7850000D03*
D12*
X199751000Y-7850000D03*
D11*
X207371000Y-2770000D03*
D12*
X209911000Y-7850000D03*
D11*
X201021000Y-5310000D03*
D13*
X197746000Y-5310000D03*
X210673000Y-2770000D03*
G04 #@! TD*
D12*
G04 #@! TO.C,K8*
X162286000Y11200000D03*
X152126000Y11200000D03*
D11*
X159746000Y16280000D03*
D10*
X157206000Y11200000D03*
D11*
X153396000Y13740000D03*
D13*
X150121000Y13740000D03*
X163048000Y16280000D03*
G04 #@! TD*
D12*
G04 #@! TO.C,K25*
X142601000Y-7850000D03*
X152761000Y-7850000D03*
D11*
X143871000Y-5310000D03*
X150221000Y-2770000D03*
D10*
X147681000Y-7850000D03*
D13*
X140596000Y-5310000D03*
X153523000Y-2770000D03*
G04 #@! TD*
D11*
G04 #@! TO.C,K59*
X164509000Y-40870000D03*
D10*
X161969000Y-45950000D03*
D11*
X158159000Y-43410000D03*
D12*
X156889000Y-45950000D03*
X167049000Y-45950000D03*
D13*
X154884000Y-43410000D03*
X167811000Y-40870000D03*
G04 #@! TD*
D10*
G04 #@! TO.C,K77*
X340562000Y-65000000D03*
D12*
X345642000Y-65000000D03*
D11*
X336752000Y-62460000D03*
D12*
X335482000Y-65000000D03*
D11*
X343102000Y-59920000D03*
D13*
X333477000Y-62460000D03*
X346404000Y-59920000D03*
G04 #@! TD*
D11*
G04 #@! TO.C,K69*
X29571200Y-62460000D03*
D12*
X38461200Y-65000000D03*
D10*
X45319200Y-73255000D03*
X21443200Y-73255000D03*
X33381200Y-65000000D03*
D14*
X45319200Y-58015000D03*
D11*
X35921200Y-59920000D03*
D12*
X28301200Y-65000000D03*
D14*
X21443200Y-58015000D03*
D13*
X26296200Y-62460000D03*
X39223200Y-59920000D03*
G04 #@! TD*
D11*
G04 #@! TO.C,K65*
X272459000Y-43410000D03*
D10*
X276269000Y-45950000D03*
D11*
X278809000Y-40870000D03*
D12*
X281349000Y-45950000D03*
X271189000Y-45950000D03*
D13*
X269184000Y-43410000D03*
X282111000Y-40870000D03*
G04 #@! TD*
D12*
G04 #@! TO.C,K46*
X233723000Y-26900000D03*
D10*
X228643000Y-26900000D03*
D12*
X223563000Y-26900000D03*
D11*
X231183000Y-21820000D03*
X224833000Y-24360000D03*
D13*
X221558000Y-24360000D03*
X234485000Y-21820000D03*
G04 #@! TD*
D18*
G04 #@! TO.C,D27*
X181881000Y1675000D03*
D19*
X184206000Y1675000D03*
D20*
X189681000Y1675000D03*
D19*
X187356000Y1675000D03*
G04 #@! TD*
D18*
G04 #@! TO.C,D1*
X19956200Y20725000D03*
D19*
X22281200Y20725000D03*
X25431200Y20725000D03*
D20*
X27756200Y20725000D03*
G04 #@! TD*
D18*
G04 #@! TO.C,D41*
X129493000Y-17375000D03*
D19*
X131818000Y-17375000D03*
D20*
X137293000Y-17375000D03*
D19*
X134968000Y-17375000D03*
G04 #@! TD*
G04 #@! TO.C,D59*
X160394000Y-36425000D03*
D18*
X158069000Y-36425000D03*
D19*
X163544000Y-36425000D03*
D20*
X165869000Y-36425000D03*
G04 #@! TD*
D19*
G04 #@! TO.C,D24*
X127056000Y1675000D03*
D18*
X124731000Y1675000D03*
D19*
X130206000Y1675000D03*
D20*
X132531000Y1675000D03*
G04 #@! TD*
D19*
G04 #@! TO.C,D35*
X334225000Y1675000D03*
D18*
X331900000Y1675000D03*
D19*
X337375000Y1675000D03*
D20*
X339700000Y1675000D03*
G04 #@! TD*
D18*
G04 #@! TO.C,D30*
X239031000Y1675000D03*
D19*
X241356000Y1675000D03*
D20*
X246831000Y1675000D03*
D19*
X244506000Y1675000D03*
G04 #@! TD*
D18*
G04 #@! TO.C,D33*
X296181000Y1675000D03*
D19*
X298506000Y1675000D03*
D20*
X303981000Y1675000D03*
D19*
X301656000Y1675000D03*
G04 #@! TD*
D18*
G04 #@! TO.C,D73*
X146162000Y-55475000D03*
D19*
X148487000Y-55475000D03*
X151637000Y-55475000D03*
D20*
X153962000Y-55475000D03*
G04 #@! TD*
D19*
G04 #@! TO.C,D43*
X169918000Y-17375000D03*
D18*
X167593000Y-17375000D03*
D19*
X173068000Y-17375000D03*
D20*
X175393000Y-17375000D03*
G04 #@! TD*
D21*
G04 #@! TO.C,D5*
X109581000Y7300000D03*
D22*
X109581000Y9625000D03*
D20*
X109581000Y15100000D03*
D22*
X109581000Y12775000D03*
G04 #@! TD*
D19*
G04 #@! TO.C,D55*
X60381200Y-36425000D03*
D18*
X58056200Y-36425000D03*
D20*
X65856200Y-36425000D03*
D19*
X63531200Y-36425000D03*
G04 #@! TD*
D18*
G04 #@! TO.C,D29*
X219981000Y1675000D03*
D19*
X222306000Y1675000D03*
D20*
X227781000Y1675000D03*
D19*
X225456000Y1675000D03*
G04 #@! TD*
D18*
G04 #@! TO.C,D63*
X234269000Y-36425000D03*
D19*
X236594000Y-36425000D03*
X239744000Y-36425000D03*
D20*
X242069000Y-36425000D03*
G04 #@! TD*
D19*
G04 #@! TO.C,D11*
X212781000Y20725000D03*
D18*
X210456000Y20725000D03*
D20*
X218256000Y20725000D03*
D19*
X215931000Y20725000D03*
G04 #@! TD*
D18*
G04 #@! TO.C,D51*
X319993000Y-17375000D03*
D19*
X322318000Y-17375000D03*
D20*
X327793000Y-17375000D03*
D19*
X325468000Y-17375000D03*
G04 #@! TD*
D18*
G04 #@! TO.C,D46*
X224743000Y-17375000D03*
D19*
X227068000Y-17375000D03*
X230218000Y-17375000D03*
D20*
X232543000Y-17375000D03*
G04 #@! TD*
D18*
G04 #@! TO.C,D44*
X186643000Y-17375000D03*
D19*
X188968000Y-17375000D03*
X192118000Y-17375000D03*
D20*
X194443000Y-17375000D03*
G04 #@! TD*
D18*
G04 #@! TO.C,D6*
X115206000Y20725000D03*
D19*
X117531000Y20725000D03*
D20*
X123006000Y20725000D03*
D19*
X120681000Y20725000D03*
G04 #@! TD*
G04 #@! TO.C,D66*
X293744000Y-36425000D03*
D18*
X291419000Y-36425000D03*
D19*
X296894000Y-36425000D03*
D20*
X299219000Y-36425000D03*
G04 #@! TD*
D18*
G04 #@! TO.C,D13*
X248556000Y20725000D03*
D19*
X250881000Y20725000D03*
X254031000Y20725000D03*
D20*
X256356000Y20725000D03*
G04 #@! TD*
D18*
G04 #@! TO.C,D28*
X200931000Y1675000D03*
D19*
X203256000Y1675000D03*
D20*
X208731000Y1675000D03*
D19*
X206406000Y1675000D03*
G04 #@! TD*
G04 #@! TO.C,D8*
X155631000Y20725000D03*
D18*
X153306000Y20725000D03*
D19*
X158781000Y20725000D03*
D20*
X161106000Y20725000D03*
G04 #@! TD*
D19*
G04 #@! TO.C,D75*
X291362000Y-55475000D03*
D18*
X289037000Y-55475000D03*
D20*
X296837000Y-55475000D03*
D19*
X294512000Y-55475000D03*
G04 #@! TD*
D18*
G04 #@! TO.C,D70*
X58056200Y-55475000D03*
D19*
X60381200Y-55475000D03*
X63531200Y-55475000D03*
D20*
X65856200Y-55475000D03*
G04 #@! TD*
D18*
G04 #@! TO.C,D49*
X281893000Y-17375000D03*
D19*
X284218000Y-17375000D03*
X287368000Y-17375000D03*
D20*
X289693000Y-17375000D03*
G04 #@! TD*
D19*
G04 #@! TO.C,D76*
X315175000Y-55475000D03*
D18*
X312850000Y-55475000D03*
D19*
X318325000Y-55475000D03*
D20*
X320650000Y-55475000D03*
G04 #@! TD*
D19*
G04 #@! TO.C,D74*
X219925000Y-55475000D03*
D18*
X217600000Y-55475000D03*
D20*
X225400000Y-55475000D03*
D19*
X223075000Y-55475000D03*
G04 #@! TD*
G04 #@! TO.C,D64*
X255644000Y-36425000D03*
D18*
X253319000Y-36425000D03*
D20*
X261119000Y-36425000D03*
D19*
X258794000Y-36425000D03*
G04 #@! TD*
G04 #@! TO.C,D9*
X174681000Y20725000D03*
D18*
X172356000Y20725000D03*
D20*
X180156000Y20725000D03*
D19*
X177831000Y20725000D03*
G04 #@! TD*
D18*
G04 #@! TO.C,D31*
X258081000Y1675000D03*
D19*
X260406000Y1675000D03*
X263556000Y1675000D03*
D20*
X265881000Y1675000D03*
G04 #@! TD*
D19*
G04 #@! TO.C,D32*
X279456000Y1675000D03*
D18*
X277131000Y1675000D03*
D19*
X282606000Y1675000D03*
D20*
X284931000Y1675000D03*
G04 #@! TD*
D19*
G04 #@! TO.C,D17*
X327081000Y20725000D03*
D18*
X324756000Y20725000D03*
D20*
X332556000Y20725000D03*
D19*
X330231000Y20725000D03*
G04 #@! TD*
G04 #@! TO.C,D23*
X103244000Y1675000D03*
D18*
X100919000Y1675000D03*
D20*
X108719000Y1675000D03*
D19*
X106394000Y1675000D03*
G04 #@! TD*
D21*
G04 #@! TO.C,D56*
X71481200Y-59375000D03*
D22*
X71481200Y-57050000D03*
D20*
X71481200Y-51575000D03*
D22*
X71481200Y-53900000D03*
G04 #@! TD*
D19*
G04 #@! TO.C,D40*
X105625000Y-17375000D03*
D18*
X103300000Y-17375000D03*
D19*
X108775000Y-17375000D03*
D20*
X111100000Y-17375000D03*
G04 #@! TD*
D23*
G04 #@! TO.C,SW1*
X73381200Y21493800D03*
X73381200Y15193800D03*
X69581200Y15193800D03*
X69581200Y21493800D03*
G04 #@! TD*
D19*
G04 #@! TO.C,D69*
X31806200Y-55475000D03*
D18*
X29481200Y-55475000D03*
D19*
X34956200Y-55475000D03*
D20*
X37281200Y-55475000D03*
G04 #@! TD*
D18*
G04 #@! TO.C,D20*
X39006200Y1675000D03*
D19*
X41331200Y1675000D03*
X44481200Y1675000D03*
D20*
X46806200Y1675000D03*
G04 #@! TD*
D19*
G04 #@! TO.C,D34*
X317556000Y1675000D03*
D18*
X315231000Y1675000D03*
D20*
X323031000Y1675000D03*
D19*
X320706000Y1675000D03*
G04 #@! TD*
G04 #@! TO.C,D58*
X141344000Y-36425000D03*
D18*
X139019000Y-36425000D03*
D19*
X144494000Y-36425000D03*
D20*
X146819000Y-36425000D03*
G04 #@! TD*
D18*
G04 #@! TO.C,D12*
X229506000Y20725000D03*
D19*
X231831000Y20725000D03*
X234981000Y20725000D03*
D20*
X237306000Y20725000D03*
G04 #@! TD*
D18*
G04 #@! TO.C,D38*
X39006200Y-17375000D03*
D19*
X41331200Y-17375000D03*
X44481200Y-17375000D03*
D20*
X46806200Y-17375000D03*
G04 #@! TD*
D18*
G04 #@! TO.C,D18*
X353331000Y20725000D03*
D19*
X355656000Y20725000D03*
D20*
X361131000Y20725000D03*
D19*
X358806000Y20725000D03*
G04 #@! TD*
D18*
G04 #@! TO.C,D68*
X348569000Y-36425000D03*
D19*
X350894000Y-36425000D03*
D20*
X356369000Y-36425000D03*
D19*
X354044000Y-36425000D03*
G04 #@! TD*
G04 #@! TO.C,D14*
X269931000Y20725000D03*
D18*
X267606000Y20725000D03*
D20*
X275406000Y20725000D03*
D19*
X273081000Y20725000D03*
G04 #@! TD*
D18*
G04 #@! TO.C,D65*
X272369000Y-36425000D03*
D19*
X274694000Y-36425000D03*
D20*
X280169000Y-36425000D03*
D19*
X277844000Y-36425000D03*
G04 #@! TD*
G04 #@! TO.C,D37*
X22281200Y-17375000D03*
D18*
X19956200Y-17375000D03*
D19*
X25431200Y-17375000D03*
D20*
X27756200Y-17375000D03*
G04 #@! TD*
D18*
G04 #@! TO.C,D52*
X350950000Y-17375000D03*
D19*
X353275000Y-17375000D03*
X356425000Y-17375000D03*
D20*
X358750000Y-17375000D03*
G04 #@! TD*
D19*
G04 #@! TO.C,D61*
X198494000Y-36425000D03*
D18*
X196169000Y-36425000D03*
D19*
X201644000Y-36425000D03*
D20*
X203969000Y-36425000D03*
G04 #@! TD*
D19*
G04 #@! TO.C,D62*
X217544000Y-36425000D03*
D18*
X215219000Y-36425000D03*
D19*
X220694000Y-36425000D03*
D20*
X223019000Y-36425000D03*
G04 #@! TD*
D18*
G04 #@! TO.C,D36*
X355712000Y1675000D03*
D19*
X358037000Y1675000D03*
X361187000Y1675000D03*
D20*
X363512000Y1675000D03*
G04 #@! TD*
D18*
G04 #@! TO.C,D67*
X310469000Y-36425000D03*
D19*
X312794000Y-36425000D03*
X315944000Y-36425000D03*
D20*
X318269000Y-36425000D03*
G04 #@! TD*
D21*
G04 #@! TO.C,D15*
X300081000Y7300000D03*
D22*
X300081000Y9625000D03*
X300081000Y12775000D03*
D20*
X300081000Y15100000D03*
G04 #@! TD*
D18*
G04 #@! TO.C,D47*
X243793000Y-17375000D03*
D19*
X246118000Y-17375000D03*
X249268000Y-17375000D03*
D20*
X251593000Y-17375000D03*
G04 #@! TD*
D19*
G04 #@! TO.C,D57*
X110387000Y-36425000D03*
D18*
X108062000Y-36425000D03*
D20*
X115862000Y-36425000D03*
D19*
X113537000Y-36425000D03*
G04 #@! TD*
D18*
G04 #@! TO.C,D19*
X19956200Y1675000D03*
D19*
X22281200Y1675000D03*
D20*
X27756200Y1675000D03*
D19*
X25431200Y1675000D03*
G04 #@! TD*
D18*
G04 #@! TO.C,D54*
X39006200Y-36425000D03*
D19*
X41331200Y-36425000D03*
X44481200Y-36425000D03*
D20*
X46806200Y-36425000D03*
G04 #@! TD*
D22*
G04 #@! TO.C,D10*
X204831000Y9625000D03*
D21*
X204831000Y7300000D03*
D20*
X204831000Y15100000D03*
D22*
X204831000Y12775000D03*
G04 #@! TD*
D21*
G04 #@! TO.C,D22*
X71481200Y-21275000D03*
D22*
X71481200Y-18950000D03*
D20*
X71481200Y-13475000D03*
D22*
X71481200Y-15800000D03*
G04 #@! TD*
D19*
G04 #@! TO.C,D16*
X308031000Y20725000D03*
D18*
X305706000Y20725000D03*
D20*
X313506000Y20725000D03*
D19*
X311181000Y20725000D03*
G04 #@! TD*
D18*
G04 #@! TO.C,D45*
X205693000Y-17375000D03*
D19*
X208018000Y-17375000D03*
X211168000Y-17375000D03*
D20*
X213493000Y-17375000D03*
G04 #@! TD*
D24*
G04 #@! TO.C,D77*
X351606000Y-55475000D03*
D25*
X349281000Y-55475000D03*
D20*
X343806000Y-55475000D03*
D25*
X346131000Y-55475000D03*
G04 #@! TD*
D22*
G04 #@! TO.C,D78*
X373900000Y-66575000D03*
D21*
X373900000Y-68900000D03*
D22*
X373900000Y-63425000D03*
D20*
X373900000Y-61100000D03*
G04 #@! TD*
D24*
G04 #@! TO.C,D71*
X113481000Y-55475000D03*
D25*
X111156000Y-55475000D03*
D20*
X105681000Y-55475000D03*
D25*
X108006000Y-55475000D03*
G04 #@! TD*
D18*
G04 #@! TO.C,D25*
X143781000Y1675000D03*
D19*
X146106000Y1675000D03*
D20*
X151581000Y1675000D03*
D19*
X149256000Y1675000D03*
G04 #@! TD*
D18*
G04 #@! TO.C,D3*
X58056200Y20725000D03*
D19*
X60381200Y20725000D03*
X63531200Y20725000D03*
D20*
X65856200Y20725000D03*
G04 #@! TD*
D19*
G04 #@! TO.C,D4*
X79431200Y20725000D03*
D18*
X77106200Y20725000D03*
D20*
X84906200Y20725000D03*
D19*
X82581200Y20725000D03*
G04 #@! TD*
D18*
G04 #@! TO.C,D42*
X148543000Y-17375000D03*
D19*
X150868000Y-17375000D03*
X154018000Y-17375000D03*
D20*
X156343000Y-17375000D03*
G04 #@! TD*
D19*
G04 #@! TO.C,D60*
X179444000Y-36425000D03*
D18*
X177119000Y-36425000D03*
D20*
X184919000Y-36425000D03*
D19*
X182594000Y-36425000D03*
G04 #@! TD*
D18*
G04 #@! TO.C,D26*
X162831000Y1675000D03*
D19*
X165156000Y1675000D03*
X168306000Y1675000D03*
D20*
X170631000Y1675000D03*
G04 #@! TD*
D18*
G04 #@! TO.C,D53*
X19956200Y-36425000D03*
D19*
X22281200Y-36425000D03*
X25431200Y-36425000D03*
D20*
X27756200Y-36425000D03*
G04 #@! TD*
D18*
G04 #@! TO.C,D21*
X58056200Y1675000D03*
D19*
X60381200Y1675000D03*
D20*
X65856200Y1675000D03*
D19*
X63531200Y1675000D03*
G04 #@! TD*
D18*
G04 #@! TO.C,D50*
X300943000Y-17375000D03*
D19*
X303268000Y-17375000D03*
X306418000Y-17375000D03*
D20*
X308743000Y-17375000D03*
G04 #@! TD*
D18*
G04 #@! TO.C,D2*
X39006200Y20725000D03*
D19*
X41331200Y20725000D03*
X44481200Y20725000D03*
D20*
X46806200Y20725000D03*
G04 #@! TD*
D19*
G04 #@! TO.C,D39*
X60381200Y-17375000D03*
D18*
X58056200Y-17375000D03*
D19*
X63531200Y-17375000D03*
D20*
X65856200Y-17375000D03*
G04 #@! TD*
D24*
G04 #@! TO.C,D72*
X137293000Y-55475000D03*
D25*
X134968000Y-55475000D03*
D20*
X129493000Y-55475000D03*
D25*
X131818000Y-55475000D03*
G04 #@! TD*
D18*
G04 #@! TO.C,D48*
X262843000Y-17375000D03*
D19*
X265168000Y-17375000D03*
D20*
X270643000Y-17375000D03*
D19*
X268318000Y-17375000D03*
G04 #@! TD*
G04 #@! TO.C,D7*
X136581000Y20725000D03*
D18*
X134256000Y20725000D03*
D20*
X142056000Y20725000D03*
D19*
X139731000Y20725000D03*
G04 #@! TD*
D26*
G04 #@! TO.C,U1*
X50800000Y23457600D03*
D20*
X50800000Y20917600D03*
X50800000Y18377600D03*
X50800000Y15837600D03*
X50800000Y13297600D03*
X50800000Y10757600D03*
X50800000Y8217600D03*
X50800000Y5677600D03*
X50800000Y3137600D03*
X50800000Y597600D03*
X50800000Y-1942400D03*
X50800000Y-4482400D03*
X35560000Y-4482400D03*
X35560000Y-1942400D03*
X35560000Y597600D03*
X35560000Y3137600D03*
X35560000Y5677600D03*
X35560000Y8217600D03*
X35560000Y10757600D03*
X35560000Y13297600D03*
X35560000Y15837600D03*
X35560000Y18377600D03*
X35560000Y20917600D03*
X35560000Y23457600D03*
G04 #@! TD*
M02*
