M48
; DRILL file {KiCad 5.99.0-unknown-4f191ce2c7~125~ubuntu18.04.1} date Sun Apr 25 15:12:49 2021
; FORMAT={-:-/ absolute / inch / decimal}
; #@! TF.CreationDate,2021-04-25T15:12:49-05:00
; #@! TF.GenerationSoftware,Kicad,Pcbnew,5.99.0-unknown-4f191ce2c7~125~ubuntu18.04.1
; #@! TF.FileFunction,Plated,1,2,PTH
FMAT,2
INCH
; #@! TA.AperFunction,Plated,PTH,ViaDrill
T1C0.0157
; #@! TA.AperFunction,Plated,PTH,ComponentDrill
T2C0.0276
; #@! TA.AperFunction,Plated,PTH,ComponentDrill
T3C0.0433
%
G90
G05
T1
X0.675Y-1.175
X1.275Y0.175
X1.55Y0.55
X1.65Y-0.6
X1.7Y0.15
X1.8Y-2.65
X1.9035Y-2.8215
X1.925Y0.475
X1.925Y-1.325
X2.025Y-0.325
X2.0985Y0.4235
X2.1Y0.525
X2.15Y-2.325
X2.1703Y-1.4047
X2.2Y0.125
X2.325Y0.525
X2.8Y-0.275
X2.85Y0.725
X2.9891Y-2.5641
X3.15Y-2.85
X3.2726Y0.0226
X3.325Y-0.275
X3.525Y0.65
X3.675Y-0.125
X3.75Y-0.825
X3.775Y0.775
X3.775Y-2.075
X3.8875Y-1.1875
X4.05Y0.775
X4.65Y-1.2
X4.875Y-1.75
X4.875Y-1.975
X5.375Y-0.45
X5.6614Y-1.2136
X6.1114Y-0.5386
X6.3Y-0.3
X6.4989Y-1.3011
X6.7Y-1.75
X7.9114Y-1.2136
X8.925Y-1.925
X8.95Y-2.075
X9.1Y-1.975
X9.15Y-0.25
X9.85Y-2.075
X11.725Y-1.075
X12.0978Y-1.9022
X12.4859Y-0.4891
X12.6422Y-1.2078
X13.05Y-0.425
X14.075Y-1.975
X14.15Y-1.25
T2
X0.7857Y0.8159
X0.7857Y0.0659
X0.7857Y-0.6841
X0.7857Y-1.4341
X1.0928Y0.8159
X1.0928Y0.0659
X1.0928Y-0.6841
X1.0928Y-1.4341
X1.1607Y-2.1841
X1.4678Y-2.1841
X1.5357Y0.8159
X1.5357Y0.0659
X1.5357Y-0.6841
X1.5357Y-1.4341
X1.8428Y0.8159
X1.8428Y0.0659
X1.8428Y-0.6841
X1.8428Y-1.4341
X2.2857Y0.8159
X2.2857Y0.0659
X2.2857Y-0.6841
X2.2857Y-1.4341
X2.2857Y-2.1841
X2.5928Y0.8159
X2.5928Y0.0659
X2.5928Y-0.6841
X2.5928Y-1.4341
X2.5928Y-2.1841
X2.8142Y-0.5305
X2.8142Y-0.8376
X2.8142Y-2.0305
X2.8142Y-2.3376
X3.0357Y0.8159
X3.3428Y0.8159
X3.9732Y0.0659
X4.0669Y-0.6841
X4.1607Y-2.1841
X4.2544Y-1.4341
X4.2803Y0.0659
X4.3142Y0.5945
X4.3142Y0.2874
X4.374Y-0.6841
X4.4678Y-2.1841
X4.5357Y0.8159
X4.5615Y-1.4341
X4.8428Y0.8159
X4.9107Y0.0659
X5.0981Y-0.6841
X5.0981Y-2.1841
X5.2178Y0.0659
X5.2857Y0.8159
X5.4052Y-0.6841
X5.4052Y-2.1841
X5.4732Y-1.4341
X5.5928Y0.8159
X5.6607Y0.0659
X5.7544Y-2.1841
X5.7803Y-1.4341
X5.8481Y-0.6841
X5.9678Y0.0659
X6.0357Y0.8159
X6.0615Y-2.1841
X6.1552Y-0.6841
X6.2232Y-1.4341
X6.3428Y0.8159
X6.4107Y0.0659
X6.5303Y-1.4341
X6.5981Y-0.6841
X6.7178Y0.0659
X6.7857Y0.8159
X6.9052Y-0.6841
X6.9732Y-1.4341
X7.0928Y0.8159
X7.1607Y0.0659
X7.2803Y-1.4341
X7.3481Y-0.6841
X7.4678Y0.0659
X7.6552Y-0.6841
X7.7232Y-1.4341
X7.9107Y0.0659
X8.0303Y-1.4341
X8.0642Y0.5945
X8.0642Y0.2874
X8.0981Y-0.6841
X8.2178Y0.0659
X8.2857Y0.8159
X8.4052Y-0.6841
X8.4732Y-1.4341
X8.5669Y-2.1841
X8.5928Y0.8159
X8.6607Y0.0659
X8.7803Y-1.4341
X8.8481Y-0.6841
X8.874Y-2.1841
X8.9678Y0.0659
X9.0357Y0.8159
X9.1552Y-0.6841
X9.2232Y-1.4341
X9.3428Y0.8159
X9.4107Y0.0659
X9.5303Y-1.4341
X9.5981Y-0.6841
X9.7178Y0.0659
X9.7857Y0.8159
X9.9052Y-0.6841
X9.9732Y-1.4341
X10.0928Y0.8159
X10.1607Y0.0659
X10.2803Y-1.4341
X10.3481Y-0.6841
X10.4678Y0.0659
X10.5357Y0.8159
X10.6552Y-0.6841
X10.7232Y-1.4341
X10.8428Y0.8159
X10.9107Y0.0659
X11.0303Y-1.4341
X11.0981Y-0.6841
X11.2178Y0.0659
X11.3794Y-2.1841
X11.4052Y-0.6841
X11.4732Y-1.4341
X11.6607Y0.0659
X11.6865Y-2.1841
X11.7803Y-1.4341
X11.8142Y0.5945
X11.8142Y0.2874
X11.8481Y-0.6841
X11.9678Y0.0659
X12.0357Y0.8159
X12.1552Y-0.6841
X12.2232Y-1.4341
X12.3169Y-2.1841
X12.3428Y0.8159
X12.4107Y0.0659
X12.5303Y-1.4341
X12.5981Y-0.6841
X12.624Y-2.1841
X12.7178Y0.0659
X12.7857Y0.8159
X12.9052Y-0.6841
X13.0669Y0.0659
X13.0928Y0.8159
X13.374Y0.0659
X13.5357Y-2.1841
X13.7232Y-1.4341
X13.8169Y-0.6841
X13.8428Y-2.1841
X13.9107Y0.8159
X14.0044Y0.0659
X14.0303Y-1.4341
X14.124Y-0.6841
X14.2178Y0.8159
X14.3115Y0.0659
X14.7205Y-2.4055
X14.7205Y-2.7126
T3
X1.4Y0.9235
X1.4Y0.8235
X1.4Y0.7235
X1.4Y0.6235
X1.4Y0.5235
X1.4Y0.4235
X1.4Y0.3235
X1.4Y0.2235
X1.4Y0.1235
X1.4Y0.0235
X1.4Y-0.0765
X1.4Y-0.1765
X2.0Y0.9235
X2.0Y0.8235
X2.0Y0.7235
X2.0Y0.6235
X2.0Y0.5235
X2.0Y0.4235
X2.0Y0.3235
X2.0Y0.2235
X2.0Y0.1235
X2.0Y0.0235
X2.0Y-0.0765
X2.0Y-0.1765
T0
M30
