%TF.GenerationSoftware,KiCad,Pcbnew,5.99.0-unknown-4f191ce2c7~125~ubuntu18.04.1*%
%TF.CreationDate,2021-04-25T16:47:38-05:00*%
%TF.ProjectId,southpawpcb,736f7574-6870-4617-9770-63622e6b6963,rev?*%
%TF.SameCoordinates,Original*%
%TF.FileFunction,Legend,Top*%
%TF.FilePolarity,Positive*%
%FSLAX45Y45*%
G04 Gerber Fmt 4.5, Leading zero omitted, Abs format (unit mm)*
G04 Created by KiCad (PCBNEW 5.99.0-unknown-4f191ce2c7~125~ubuntu18.04.1) date 2021-04-25 16:47:38*
%MOMM*%
%LPD*%
G01*
G04 APERTURE LIST*
%ADD10C,0.200000*%
%ADD11C,0.150000*%
G04 APERTURE END LIST*
D10*
%TO.C,D27*%
X17771850Y-3687875D02*
X17771850Y-3447875D01*
X17759350Y-3687875D02*
X17759350Y-3447875D01*
X17749350Y-3447875D02*
X17749350Y-3687875D01*
X17806850Y-3687875D02*
X17806850Y-3447875D01*
X18331850Y-3687875D02*
X18331850Y-3447875D01*
X17789350Y-3687875D02*
X17789350Y-3447875D01*
X17824350Y-3687875D02*
X17824350Y-3447875D01*
X17751850Y-3687875D02*
X18331850Y-3687875D01*
X18331850Y-3447875D02*
X17751850Y-3447875D01*
%TO.C,D1*%
X1559370Y-1782875D02*
X2139370Y-1782875D01*
X1631870Y-1782875D02*
X1631870Y-1542875D01*
X1556870Y-1542875D02*
X1556870Y-1782875D01*
X2139370Y-1542875D02*
X1559370Y-1542875D01*
X1614370Y-1782875D02*
X1614370Y-1542875D01*
X1596870Y-1782875D02*
X1596870Y-1542875D01*
X1566870Y-1782875D02*
X1566870Y-1542875D01*
X2139370Y-1782875D02*
X2139370Y-1542875D01*
X1579370Y-1782875D02*
X1579370Y-1542875D01*
%TO.C,D41*%
X12510550Y-5352875D02*
X12510550Y-5592875D01*
X12585550Y-5592875D02*
X12585550Y-5352875D01*
X13093050Y-5592875D02*
X13093050Y-5352875D01*
X12568050Y-5592875D02*
X12568050Y-5352875D01*
X12513050Y-5592875D02*
X13093050Y-5592875D01*
X13093050Y-5352875D02*
X12513050Y-5352875D01*
X12520550Y-5592875D02*
X12520550Y-5352875D01*
X12550550Y-5592875D02*
X12550550Y-5352875D01*
X12533050Y-5592875D02*
X12533050Y-5352875D01*
%TO.C,D59*%
X15390650Y-7497875D02*
X15390650Y-7257875D01*
X15443150Y-7497875D02*
X15443150Y-7257875D01*
X15950650Y-7497875D02*
X15950650Y-7257875D01*
X15368150Y-7257875D02*
X15368150Y-7497875D01*
X15425650Y-7497875D02*
X15425650Y-7257875D01*
X15950650Y-7257875D02*
X15370650Y-7257875D01*
X15378150Y-7497875D02*
X15378150Y-7257875D01*
X15408150Y-7497875D02*
X15408150Y-7257875D01*
X15370650Y-7497875D02*
X15950650Y-7497875D01*
%TO.C,D24*%
X12056850Y-3687875D02*
X12056850Y-3447875D01*
X12044350Y-3687875D02*
X12044350Y-3447875D01*
X12074350Y-3687875D02*
X12074350Y-3447875D01*
X12091850Y-3687875D02*
X12091850Y-3447875D01*
X12109350Y-3687875D02*
X12109350Y-3447875D01*
X12036850Y-3687875D02*
X12616850Y-3687875D01*
X12616850Y-3687875D02*
X12616850Y-3447875D01*
X12616850Y-3447875D02*
X12036850Y-3447875D01*
X12034350Y-3447875D02*
X12034350Y-3687875D01*
%TO.C,D35*%
X32761250Y-3687875D02*
X32761250Y-3447875D01*
X32751250Y-3447875D02*
X32751250Y-3687875D01*
X32773750Y-3687875D02*
X32773750Y-3447875D01*
X32791250Y-3687875D02*
X32791250Y-3447875D01*
X32753750Y-3687875D02*
X33333750Y-3687875D01*
X33333750Y-3447875D02*
X32753750Y-3447875D01*
X32808750Y-3687875D02*
X32808750Y-3447875D01*
X33333750Y-3687875D02*
X33333750Y-3447875D01*
X32826250Y-3687875D02*
X32826250Y-3447875D01*
%TO.C,D30*%
X23474350Y-3687875D02*
X23474350Y-3447875D01*
X24046850Y-3687875D02*
X24046850Y-3447875D01*
X23504350Y-3687875D02*
X23504350Y-3447875D01*
X23539350Y-3687875D02*
X23539350Y-3447875D01*
X23486850Y-3687875D02*
X23486850Y-3447875D01*
X23464350Y-3447875D02*
X23464350Y-3687875D01*
X23466850Y-3687875D02*
X24046850Y-3687875D01*
X23521850Y-3687875D02*
X23521850Y-3447875D01*
X24046850Y-3447875D02*
X23466850Y-3447875D01*
%TO.C,D33*%
X29761850Y-3447875D02*
X29181850Y-3447875D01*
X29236850Y-3687875D02*
X29236850Y-3447875D01*
X29179350Y-3447875D02*
X29179350Y-3687875D01*
X29189350Y-3687875D02*
X29189350Y-3447875D01*
X29254350Y-3687875D02*
X29254350Y-3447875D01*
X29201850Y-3687875D02*
X29201850Y-3447875D01*
X29181850Y-3687875D02*
X29761850Y-3687875D01*
X29219350Y-3687875D02*
X29219350Y-3447875D01*
X29761850Y-3687875D02*
X29761850Y-3447875D01*
%TO.C,D73*%
X14234950Y-9402875D02*
X14234950Y-9162875D01*
X14179950Y-9402875D02*
X14759950Y-9402875D01*
X14759950Y-9402875D02*
X14759950Y-9162875D01*
X14177450Y-9162875D02*
X14177450Y-9402875D01*
X14252450Y-9402875D02*
X14252450Y-9162875D01*
X14217450Y-9402875D02*
X14217450Y-9162875D01*
X14187450Y-9402875D02*
X14187450Y-9162875D01*
X14759950Y-9162875D02*
X14179950Y-9162875D01*
X14199950Y-9402875D02*
X14199950Y-9162875D01*
%TO.C,D43*%
X16360550Y-5592875D02*
X16360550Y-5352875D01*
X16320550Y-5352875D02*
X16320550Y-5592875D01*
X16378050Y-5592875D02*
X16378050Y-5352875D01*
X16903050Y-5592875D02*
X16903050Y-5352875D01*
X16903050Y-5352875D02*
X16323050Y-5352875D01*
X16330550Y-5592875D02*
X16330550Y-5352875D01*
X16395550Y-5592875D02*
X16395550Y-5352875D01*
X16323050Y-5592875D02*
X16903050Y-5592875D01*
X16343050Y-5592875D02*
X16343050Y-5352875D01*
%TO.C,D5*%
X10551850Y-2842875D02*
X10311850Y-2842875D01*
X10551850Y-2895375D02*
X10311850Y-2895375D01*
X10311850Y-2917875D02*
X10551850Y-2917875D01*
X10311850Y-2335375D02*
X10311850Y-2915375D01*
X10551850Y-2860375D02*
X10311850Y-2860375D01*
X10551850Y-2907875D02*
X10311850Y-2907875D01*
X10551850Y-2877875D02*
X10311850Y-2877875D01*
X10551850Y-2335375D02*
X10311850Y-2335375D01*
X10551850Y-2915375D02*
X10551850Y-2335375D01*
%TO.C,D55*%
X5369370Y-7497875D02*
X5949370Y-7497875D01*
X5949370Y-7497875D02*
X5949370Y-7257875D01*
X5366870Y-7257875D02*
X5366870Y-7497875D01*
X5441870Y-7497875D02*
X5441870Y-7257875D01*
X5389370Y-7497875D02*
X5389370Y-7257875D01*
X5424370Y-7497875D02*
X5424370Y-7257875D01*
X5376870Y-7497875D02*
X5376870Y-7257875D01*
X5406870Y-7497875D02*
X5406870Y-7257875D01*
X5949370Y-7257875D02*
X5369370Y-7257875D01*
%TO.C,D29*%
X21616850Y-3687875D02*
X21616850Y-3447875D01*
X21569350Y-3687875D02*
X21569350Y-3447875D01*
X21561850Y-3687875D02*
X22141850Y-3687875D01*
X21599350Y-3687875D02*
X21599350Y-3447875D01*
X21581850Y-3687875D02*
X21581850Y-3447875D01*
X22141850Y-3687875D02*
X22141850Y-3447875D01*
X21559350Y-3447875D02*
X21559350Y-3687875D01*
X21634350Y-3687875D02*
X21634350Y-3447875D01*
X22141850Y-3447875D02*
X21561850Y-3447875D01*
%TO.C,D63*%
X22990650Y-7497875D02*
X23570650Y-7497875D01*
X22998150Y-7497875D02*
X22998150Y-7257875D01*
X23045650Y-7497875D02*
X23045650Y-7257875D01*
X22988150Y-7257875D02*
X22988150Y-7497875D01*
X23570650Y-7257875D02*
X22990650Y-7257875D01*
X23063150Y-7497875D02*
X23063150Y-7257875D01*
X23010650Y-7497875D02*
X23010650Y-7257875D01*
X23570650Y-7497875D02*
X23570650Y-7257875D01*
X23028150Y-7497875D02*
X23028150Y-7257875D01*
%TO.C,D11*%
X21189350Y-1782875D02*
X21189350Y-1542875D01*
X21189350Y-1542875D02*
X20609350Y-1542875D01*
X20609350Y-1782875D02*
X21189350Y-1782875D01*
X20646850Y-1782875D02*
X20646850Y-1542875D01*
X20616850Y-1782875D02*
X20616850Y-1542875D01*
X20606850Y-1542875D02*
X20606850Y-1782875D01*
X20681850Y-1782875D02*
X20681850Y-1542875D01*
X20664350Y-1782875D02*
X20664350Y-1542875D01*
X20629350Y-1782875D02*
X20629350Y-1542875D01*
%TO.C,D51*%
X32143050Y-5592875D02*
X32143050Y-5352875D01*
X31570550Y-5592875D02*
X31570550Y-5352875D01*
X32143050Y-5352875D02*
X31563050Y-5352875D01*
X31560550Y-5352875D02*
X31560550Y-5592875D01*
X31563050Y-5592875D02*
X32143050Y-5592875D01*
X31600550Y-5592875D02*
X31600550Y-5352875D01*
X31583050Y-5592875D02*
X31583050Y-5352875D01*
X31618050Y-5592875D02*
X31618050Y-5352875D01*
X31635550Y-5592875D02*
X31635550Y-5352875D01*
%TO.C,D46*%
X22075550Y-5592875D02*
X22075550Y-5352875D01*
X22093050Y-5592875D02*
X22093050Y-5352875D01*
X22618050Y-5592875D02*
X22618050Y-5352875D01*
X22045550Y-5592875D02*
X22045550Y-5352875D01*
X22038050Y-5592875D02*
X22618050Y-5592875D01*
X22618050Y-5352875D02*
X22038050Y-5352875D01*
X22035550Y-5352875D02*
X22035550Y-5592875D01*
X22058050Y-5592875D02*
X22058050Y-5352875D01*
X22110550Y-5592875D02*
X22110550Y-5352875D01*
%TO.C,D44*%
X18235550Y-5592875D02*
X18235550Y-5352875D01*
X18808050Y-5352875D02*
X18228050Y-5352875D01*
X18808050Y-5592875D02*
X18808050Y-5352875D01*
X18300550Y-5592875D02*
X18300550Y-5352875D01*
X18225550Y-5352875D02*
X18225550Y-5592875D01*
X18265550Y-5592875D02*
X18265550Y-5352875D01*
X18283050Y-5592875D02*
X18283050Y-5352875D01*
X18248050Y-5592875D02*
X18248050Y-5352875D01*
X18228050Y-5592875D02*
X18808050Y-5592875D01*
%TO.C,D6*%
X11121850Y-1782875D02*
X11121850Y-1542875D01*
X11091850Y-1782875D02*
X11091850Y-1542875D01*
X11084350Y-1782875D02*
X11664350Y-1782875D01*
X11664350Y-1782875D02*
X11664350Y-1542875D01*
X11104350Y-1782875D02*
X11104350Y-1542875D01*
X11664350Y-1542875D02*
X11084350Y-1542875D01*
X11156850Y-1782875D02*
X11156850Y-1542875D01*
X11139350Y-1782875D02*
X11139350Y-1542875D01*
X11081850Y-1542875D02*
X11081850Y-1782875D01*
%TO.C,D66*%
X28725650Y-7497875D02*
X28725650Y-7257875D01*
X29285650Y-7257875D02*
X28705650Y-7257875D01*
X29285650Y-7497875D02*
X29285650Y-7257875D01*
X28778150Y-7497875D02*
X28778150Y-7257875D01*
X28703150Y-7257875D02*
X28703150Y-7497875D01*
X28760650Y-7497875D02*
X28760650Y-7257875D01*
X28705650Y-7497875D02*
X29285650Y-7497875D01*
X28713150Y-7497875D02*
X28713150Y-7257875D01*
X28743150Y-7497875D02*
X28743150Y-7257875D01*
%TO.C,D13*%
X24456850Y-1782875D02*
X24456850Y-1542875D01*
X24426850Y-1782875D02*
X24426850Y-1542875D01*
X24491850Y-1782875D02*
X24491850Y-1542875D01*
X24999350Y-1542875D02*
X24419350Y-1542875D01*
X24474350Y-1782875D02*
X24474350Y-1542875D01*
X24999350Y-1782875D02*
X24999350Y-1542875D01*
X24439350Y-1782875D02*
X24439350Y-1542875D01*
X24416850Y-1542875D02*
X24416850Y-1782875D01*
X24419350Y-1782875D02*
X24999350Y-1782875D01*
%TO.C,D28*%
X19694350Y-3687875D02*
X19694350Y-3447875D01*
X19676850Y-3687875D02*
X19676850Y-3447875D01*
X19664350Y-3687875D02*
X19664350Y-3447875D01*
X19656850Y-3687875D02*
X20236850Y-3687875D01*
X19711850Y-3687875D02*
X19711850Y-3447875D01*
X19654350Y-3447875D02*
X19654350Y-3687875D01*
X20236850Y-3687875D02*
X20236850Y-3447875D01*
X20236850Y-3447875D02*
X19656850Y-3447875D01*
X19729350Y-3687875D02*
X19729350Y-3447875D01*
%TO.C,D8*%
X15474350Y-1542875D02*
X14894350Y-1542875D01*
X15474350Y-1782875D02*
X15474350Y-1542875D01*
X14891850Y-1542875D02*
X14891850Y-1782875D01*
X14914350Y-1782875D02*
X14914350Y-1542875D01*
X14931850Y-1782875D02*
X14931850Y-1542875D01*
X14966850Y-1782875D02*
X14966850Y-1542875D01*
X14894350Y-1782875D02*
X15474350Y-1782875D01*
X14901850Y-1782875D02*
X14901850Y-1542875D01*
X14949350Y-1782875D02*
X14949350Y-1542875D01*
%TO.C,D75*%
X28474950Y-9402875D02*
X28474950Y-9162875D01*
X29047450Y-9162875D02*
X28467450Y-9162875D01*
X29047450Y-9402875D02*
X29047450Y-9162875D01*
X28522450Y-9402875D02*
X28522450Y-9162875D01*
X28487450Y-9402875D02*
X28487450Y-9162875D01*
X28467450Y-9402875D02*
X29047450Y-9402875D01*
X28539950Y-9402875D02*
X28539950Y-9162875D01*
X28504950Y-9402875D02*
X28504950Y-9162875D01*
X28464950Y-9162875D02*
X28464950Y-9402875D01*
%TO.C,D70*%
X5369370Y-9402875D02*
X5949370Y-9402875D01*
X5366870Y-9162875D02*
X5366870Y-9402875D01*
X5949370Y-9162875D02*
X5369370Y-9162875D01*
X5389370Y-9402875D02*
X5389370Y-9162875D01*
X5406870Y-9402875D02*
X5406870Y-9162875D01*
X5949370Y-9402875D02*
X5949370Y-9162875D01*
X5376870Y-9402875D02*
X5376870Y-9162875D01*
X5424370Y-9402875D02*
X5424370Y-9162875D01*
X5441870Y-9402875D02*
X5441870Y-9162875D01*
%TO.C,D49*%
X27760550Y-5592875D02*
X27760550Y-5352875D01*
X27790550Y-5592875D02*
X27790550Y-5352875D01*
X27753050Y-5592875D02*
X28333050Y-5592875D01*
X27825550Y-5592875D02*
X27825550Y-5352875D01*
X27773050Y-5592875D02*
X27773050Y-5352875D01*
X28333050Y-5352875D02*
X27753050Y-5352875D01*
X27750550Y-5352875D02*
X27750550Y-5592875D01*
X28333050Y-5592875D02*
X28333050Y-5352875D01*
X27808050Y-5592875D02*
X27808050Y-5352875D01*
%TO.C,D76*%
X30868750Y-9402875D02*
X30868750Y-9162875D01*
X30903750Y-9402875D02*
X30903750Y-9162875D01*
X30856250Y-9402875D02*
X30856250Y-9162875D01*
X30846250Y-9162875D02*
X30846250Y-9402875D01*
X30886250Y-9402875D02*
X30886250Y-9162875D01*
X31428750Y-9162875D02*
X30848750Y-9162875D01*
X30921250Y-9402875D02*
X30921250Y-9162875D01*
X30848750Y-9402875D02*
X31428750Y-9402875D01*
X31428750Y-9402875D02*
X31428750Y-9162875D01*
%TO.C,D74*%
X21378750Y-9402875D02*
X21378750Y-9162875D01*
X21903750Y-9402875D02*
X21903750Y-9162875D01*
X21903750Y-9162875D02*
X21323750Y-9162875D01*
X21361250Y-9402875D02*
X21361250Y-9162875D01*
X21343750Y-9402875D02*
X21343750Y-9162875D01*
X21396250Y-9402875D02*
X21396250Y-9162875D01*
X21331250Y-9402875D02*
X21331250Y-9162875D01*
X21323750Y-9402875D02*
X21903750Y-9402875D01*
X21321250Y-9162875D02*
X21321250Y-9402875D01*
%TO.C,D64*%
X25475650Y-7257875D02*
X24895650Y-7257875D01*
X24895650Y-7497875D02*
X25475650Y-7497875D01*
X24915650Y-7497875D02*
X24915650Y-7257875D01*
X25475650Y-7497875D02*
X25475650Y-7257875D01*
X24968150Y-7497875D02*
X24968150Y-7257875D01*
X24933150Y-7497875D02*
X24933150Y-7257875D01*
X24893150Y-7257875D02*
X24893150Y-7497875D01*
X24950650Y-7497875D02*
X24950650Y-7257875D01*
X24903150Y-7497875D02*
X24903150Y-7257875D01*
%TO.C,D9*%
X16836850Y-1782875D02*
X16836850Y-1542875D01*
X16806850Y-1782875D02*
X16806850Y-1542875D01*
X16799350Y-1782875D02*
X17379350Y-1782875D01*
X17379350Y-1542875D02*
X16799350Y-1542875D01*
X17379350Y-1782875D02*
X17379350Y-1542875D01*
X16871850Y-1782875D02*
X16871850Y-1542875D01*
X16854350Y-1782875D02*
X16854350Y-1542875D01*
X16796850Y-1542875D02*
X16796850Y-1782875D01*
X16819350Y-1782875D02*
X16819350Y-1542875D01*
%TO.C,D31*%
X25426850Y-3687875D02*
X25426850Y-3447875D01*
X25391850Y-3687875D02*
X25391850Y-3447875D01*
X25409350Y-3687875D02*
X25409350Y-3447875D01*
X25371850Y-3687875D02*
X25951850Y-3687875D01*
X25951850Y-3447875D02*
X25371850Y-3447875D01*
X25951850Y-3687875D02*
X25951850Y-3447875D01*
X25369350Y-3447875D02*
X25369350Y-3687875D01*
X25379350Y-3687875D02*
X25379350Y-3447875D01*
X25444350Y-3687875D02*
X25444350Y-3447875D01*
%TO.C,D32*%
X27284350Y-3687875D02*
X27284350Y-3447875D01*
X27349350Y-3687875D02*
X27349350Y-3447875D01*
X27331850Y-3687875D02*
X27331850Y-3447875D01*
X27276850Y-3687875D02*
X27856850Y-3687875D01*
X27274350Y-3447875D02*
X27274350Y-3687875D01*
X27856850Y-3447875D02*
X27276850Y-3447875D01*
X27856850Y-3687875D02*
X27856850Y-3447875D01*
X27314350Y-3687875D02*
X27314350Y-3447875D01*
X27296850Y-3687875D02*
X27296850Y-3447875D01*
%TO.C,D17*%
X32059350Y-1782875D02*
X32059350Y-1542875D01*
X32036850Y-1542875D02*
X32036850Y-1782875D01*
X32619350Y-1542875D02*
X32039350Y-1542875D01*
X32111850Y-1782875D02*
X32111850Y-1542875D01*
X32619350Y-1782875D02*
X32619350Y-1542875D01*
X32046850Y-1782875D02*
X32046850Y-1542875D01*
X32039350Y-1782875D02*
X32619350Y-1782875D01*
X32076850Y-1782875D02*
X32076850Y-1542875D01*
X32094350Y-1782875D02*
X32094350Y-1542875D01*
%TO.C,D23*%
X10235650Y-3687875D02*
X10235650Y-3447875D01*
X9728150Y-3687875D02*
X9728150Y-3447875D01*
X9653150Y-3447875D02*
X9653150Y-3687875D01*
X10235650Y-3447875D02*
X9655650Y-3447875D01*
X9693150Y-3687875D02*
X9693150Y-3447875D01*
X9663150Y-3687875D02*
X9663150Y-3447875D01*
X9675650Y-3687875D02*
X9675650Y-3447875D01*
X9710650Y-3687875D02*
X9710650Y-3447875D01*
X9655650Y-3687875D02*
X10235650Y-3687875D01*
%TO.C,D56*%
X6501870Y-9002875D02*
X6501870Y-9582875D01*
X6741870Y-9582875D02*
X6741870Y-9002875D01*
X6741870Y-9545375D02*
X6501870Y-9545375D01*
X6741870Y-9575375D02*
X6501870Y-9575375D01*
X6741870Y-9527875D02*
X6501870Y-9527875D01*
X6741870Y-9510375D02*
X6501870Y-9510375D01*
X6741870Y-9002875D02*
X6501870Y-9002875D01*
X6501870Y-9585375D02*
X6741870Y-9585375D01*
X6741870Y-9562875D02*
X6501870Y-9562875D01*
%TO.C,D40*%
X10473750Y-5592875D02*
X10473750Y-5352875D01*
X9948750Y-5592875D02*
X9948750Y-5352875D01*
X9891250Y-5352875D02*
X9891250Y-5592875D01*
X9913750Y-5592875D02*
X9913750Y-5352875D01*
X9893750Y-5592875D02*
X10473750Y-5592875D01*
X9931250Y-5592875D02*
X9931250Y-5352875D01*
X9901250Y-5592875D02*
X9901250Y-5352875D01*
X10473750Y-5352875D02*
X9893750Y-5352875D01*
X9966250Y-5592875D02*
X9966250Y-5352875D01*
%TO.C,D69*%
X3091870Y-9162875D02*
X2511870Y-9162875D01*
X2511870Y-9402875D02*
X3091870Y-9402875D01*
X2566870Y-9402875D02*
X2566870Y-9162875D01*
X2519370Y-9402875D02*
X2519370Y-9162875D01*
X2509370Y-9162875D02*
X2509370Y-9402875D01*
X2584370Y-9402875D02*
X2584370Y-9162875D01*
X3091870Y-9402875D02*
X3091870Y-9162875D01*
X2531870Y-9402875D02*
X2531870Y-9162875D01*
X2549370Y-9402875D02*
X2549370Y-9162875D01*
%TO.C,D20*%
X3519370Y-3687875D02*
X3519370Y-3447875D01*
X4044370Y-3447875D02*
X3464370Y-3447875D01*
X3471870Y-3687875D02*
X3471870Y-3447875D01*
X3484370Y-3687875D02*
X3484370Y-3447875D01*
X3536870Y-3687875D02*
X3536870Y-3447875D01*
X3464370Y-3687875D02*
X4044370Y-3687875D01*
X3501870Y-3687875D02*
X3501870Y-3447875D01*
X4044370Y-3687875D02*
X4044370Y-3447875D01*
X3461870Y-3447875D02*
X3461870Y-3687875D01*
%TO.C,D34*%
X31094350Y-3687875D02*
X31094350Y-3447875D01*
X31141850Y-3687875D02*
X31141850Y-3447875D01*
X31124350Y-3687875D02*
X31124350Y-3447875D01*
X31106850Y-3687875D02*
X31106850Y-3447875D01*
X31159350Y-3687875D02*
X31159350Y-3447875D01*
X31666850Y-3687875D02*
X31666850Y-3447875D01*
X31666850Y-3447875D02*
X31086850Y-3447875D01*
X31084350Y-3447875D02*
X31084350Y-3687875D01*
X31086850Y-3687875D02*
X31666850Y-3687875D01*
%TO.C,D58*%
X13503150Y-7497875D02*
X13503150Y-7257875D01*
X13538150Y-7497875D02*
X13538150Y-7257875D01*
X13473150Y-7497875D02*
X13473150Y-7257875D01*
X13465650Y-7497875D02*
X14045650Y-7497875D01*
X13520650Y-7497875D02*
X13520650Y-7257875D01*
X13463150Y-7257875D02*
X13463150Y-7497875D01*
X14045650Y-7497875D02*
X14045650Y-7257875D01*
X14045650Y-7257875D02*
X13465650Y-7257875D01*
X13485650Y-7497875D02*
X13485650Y-7257875D01*
%TO.C,D12*%
X22514350Y-1782875D02*
X23094350Y-1782875D01*
X23094350Y-1782875D02*
X23094350Y-1542875D01*
X23094350Y-1542875D02*
X22514350Y-1542875D01*
X22551850Y-1782875D02*
X22551850Y-1542875D01*
X22534350Y-1782875D02*
X22534350Y-1542875D01*
X22586850Y-1782875D02*
X22586850Y-1542875D01*
X22521850Y-1782875D02*
X22521850Y-1542875D01*
X22511850Y-1542875D02*
X22511850Y-1782875D01*
X22569350Y-1782875D02*
X22569350Y-1542875D01*
%TO.C,D38*%
X3484370Y-5592875D02*
X3484370Y-5352875D01*
X4044370Y-5352875D02*
X3464370Y-5352875D01*
X3519370Y-5592875D02*
X3519370Y-5352875D01*
X3501870Y-5592875D02*
X3501870Y-5352875D01*
X3471870Y-5592875D02*
X3471870Y-5352875D01*
X4044370Y-5592875D02*
X4044370Y-5352875D01*
X3461870Y-5352875D02*
X3461870Y-5592875D01*
X3464370Y-5592875D02*
X4044370Y-5592875D01*
X3536870Y-5592875D02*
X3536870Y-5352875D01*
%TO.C,D18*%
X34896850Y-1782875D02*
X35476850Y-1782875D01*
X34904350Y-1782875D02*
X34904350Y-1542875D01*
X34934350Y-1782875D02*
X34934350Y-1542875D01*
X35476850Y-1782875D02*
X35476850Y-1542875D01*
X34894350Y-1542875D02*
X34894350Y-1782875D01*
X35476850Y-1542875D02*
X34896850Y-1542875D01*
X34916850Y-1782875D02*
X34916850Y-1542875D01*
X34951850Y-1782875D02*
X34951850Y-1542875D01*
X34969350Y-1782875D02*
X34969350Y-1542875D01*
%TO.C,D68*%
X34420650Y-7497875D02*
X35000650Y-7497875D01*
X35000650Y-7257875D02*
X34420650Y-7257875D01*
X34428150Y-7497875D02*
X34428150Y-7257875D01*
X34418150Y-7257875D02*
X34418150Y-7497875D01*
X34493150Y-7497875D02*
X34493150Y-7257875D01*
X34458150Y-7497875D02*
X34458150Y-7257875D01*
X34475650Y-7497875D02*
X34475650Y-7257875D01*
X34440650Y-7497875D02*
X34440650Y-7257875D01*
X35000650Y-7497875D02*
X35000650Y-7257875D01*
%TO.C,D14*%
X26396850Y-1782875D02*
X26396850Y-1542875D01*
X26904350Y-1782875D02*
X26904350Y-1542875D01*
X26344350Y-1782875D02*
X26344350Y-1542875D01*
X26321850Y-1542875D02*
X26321850Y-1782875D01*
X26324350Y-1782875D02*
X26904350Y-1782875D01*
X26904350Y-1542875D02*
X26324350Y-1542875D01*
X26331850Y-1782875D02*
X26331850Y-1542875D01*
X26361850Y-1782875D02*
X26361850Y-1542875D01*
X26379350Y-1782875D02*
X26379350Y-1542875D01*
%TO.C,D65*%
X27380650Y-7497875D02*
X27380650Y-7257875D01*
X26820650Y-7497875D02*
X26820650Y-7257875D01*
X27380650Y-7257875D02*
X26800650Y-7257875D01*
X26838150Y-7497875D02*
X26838150Y-7257875D01*
X26873150Y-7497875D02*
X26873150Y-7257875D01*
X26855650Y-7497875D02*
X26855650Y-7257875D01*
X26808150Y-7497875D02*
X26808150Y-7257875D01*
X26798150Y-7257875D02*
X26798150Y-7497875D01*
X26800650Y-7497875D02*
X27380650Y-7497875D01*
%TO.C,D37*%
X2139370Y-5352875D02*
X1559370Y-5352875D01*
X1556870Y-5352875D02*
X1556870Y-5592875D01*
X1596870Y-5592875D02*
X1596870Y-5352875D01*
X1566870Y-5592875D02*
X1566870Y-5352875D01*
X1614370Y-5592875D02*
X1614370Y-5352875D01*
X2139370Y-5592875D02*
X2139370Y-5352875D01*
X1579370Y-5592875D02*
X1579370Y-5352875D01*
X1631870Y-5592875D02*
X1631870Y-5352875D01*
X1559370Y-5592875D02*
X2139370Y-5592875D01*
%TO.C,D52*%
X34666250Y-5592875D02*
X34666250Y-5352875D01*
X35238750Y-5352875D02*
X34658750Y-5352875D01*
X34658750Y-5592875D02*
X35238750Y-5592875D01*
X34678750Y-5592875D02*
X34678750Y-5352875D01*
X35238750Y-5592875D02*
X35238750Y-5352875D01*
X34731250Y-5592875D02*
X34731250Y-5352875D01*
X34656250Y-5352875D02*
X34656250Y-5592875D01*
X34696250Y-5592875D02*
X34696250Y-5352875D01*
X34713750Y-5592875D02*
X34713750Y-5352875D01*
%TO.C,D61*%
X19760650Y-7497875D02*
X19760650Y-7257875D01*
X19253150Y-7497875D02*
X19253150Y-7257875D01*
X19200650Y-7497875D02*
X19200650Y-7257875D01*
X19760650Y-7257875D02*
X19180650Y-7257875D01*
X19235650Y-7497875D02*
X19235650Y-7257875D01*
X19180650Y-7497875D02*
X19760650Y-7497875D01*
X19178150Y-7257875D02*
X19178150Y-7497875D01*
X19218150Y-7497875D02*
X19218150Y-7257875D01*
X19188150Y-7497875D02*
X19188150Y-7257875D01*
%TO.C,D62*%
X21123150Y-7497875D02*
X21123150Y-7257875D01*
X21665650Y-7497875D02*
X21665650Y-7257875D01*
X21158150Y-7497875D02*
X21158150Y-7257875D01*
X21665650Y-7257875D02*
X21085650Y-7257875D01*
X21140650Y-7497875D02*
X21140650Y-7257875D01*
X21093150Y-7497875D02*
X21093150Y-7257875D01*
X21085650Y-7497875D02*
X21665650Y-7497875D01*
X21105650Y-7497875D02*
X21105650Y-7257875D01*
X21083150Y-7257875D02*
X21083150Y-7497875D01*
%TO.C,D36*%
X35172450Y-3687875D02*
X35172450Y-3447875D01*
X35154950Y-3687875D02*
X35154950Y-3447875D01*
X35189950Y-3687875D02*
X35189950Y-3447875D01*
X35714950Y-3687875D02*
X35714950Y-3447875D01*
X35207450Y-3687875D02*
X35207450Y-3447875D01*
X35714950Y-3447875D02*
X35134950Y-3447875D01*
X35142450Y-3687875D02*
X35142450Y-3447875D01*
X35132450Y-3447875D02*
X35132450Y-3687875D01*
X35134950Y-3687875D02*
X35714950Y-3687875D01*
%TO.C,D67*%
X30630650Y-7497875D02*
X30630650Y-7257875D01*
X31190650Y-7497875D02*
X31190650Y-7257875D01*
X30618150Y-7497875D02*
X30618150Y-7257875D01*
X30665650Y-7497875D02*
X30665650Y-7257875D01*
X30648150Y-7497875D02*
X30648150Y-7257875D01*
X30608150Y-7257875D02*
X30608150Y-7497875D01*
X31190650Y-7257875D02*
X30610650Y-7257875D01*
X30610650Y-7497875D02*
X31190650Y-7497875D01*
X30683150Y-7497875D02*
X30683150Y-7257875D01*
%TO.C,D15*%
X29601850Y-2907875D02*
X29361850Y-2907875D01*
X29601850Y-2895375D02*
X29361850Y-2895375D01*
X29601850Y-2860375D02*
X29361850Y-2860375D01*
X29601850Y-2877875D02*
X29361850Y-2877875D01*
X29601850Y-2915375D02*
X29601850Y-2335375D01*
X29361850Y-2335375D02*
X29361850Y-2915375D01*
X29361850Y-2917875D02*
X29601850Y-2917875D01*
X29601850Y-2842875D02*
X29361850Y-2842875D01*
X29601850Y-2335375D02*
X29361850Y-2335375D01*
%TO.C,D47*%
X23950550Y-5592875D02*
X23950550Y-5352875D01*
X24523050Y-5352875D02*
X23943050Y-5352875D01*
X23940550Y-5352875D02*
X23940550Y-5592875D01*
X24523050Y-5592875D02*
X24523050Y-5352875D01*
X23943050Y-5592875D02*
X24523050Y-5592875D01*
X23963050Y-5592875D02*
X23963050Y-5352875D01*
X23980550Y-5592875D02*
X23980550Y-5352875D01*
X24015550Y-5592875D02*
X24015550Y-5352875D01*
X23998050Y-5592875D02*
X23998050Y-5352875D01*
%TO.C,D57*%
X10407450Y-7497875D02*
X10407450Y-7257875D01*
X10442450Y-7497875D02*
X10442450Y-7257875D01*
X10424950Y-7497875D02*
X10424950Y-7257875D01*
X10369950Y-7497875D02*
X10949950Y-7497875D01*
X10367450Y-7257875D02*
X10367450Y-7497875D01*
X10949950Y-7257875D02*
X10369950Y-7257875D01*
X10949950Y-7497875D02*
X10949950Y-7257875D01*
X10377450Y-7497875D02*
X10377450Y-7257875D01*
X10389950Y-7497875D02*
X10389950Y-7257875D01*
%TO.C,D19*%
X2139370Y-3447875D02*
X1559370Y-3447875D01*
X2139370Y-3687875D02*
X2139370Y-3447875D01*
X1566870Y-3687875D02*
X1566870Y-3447875D01*
X1556870Y-3447875D02*
X1556870Y-3687875D01*
X1596870Y-3687875D02*
X1596870Y-3447875D01*
X1579370Y-3687875D02*
X1579370Y-3447875D01*
X1559370Y-3687875D02*
X2139370Y-3687875D01*
X1614370Y-3687875D02*
X1614370Y-3447875D01*
X1631870Y-3687875D02*
X1631870Y-3447875D01*
%TO.C,D54*%
X4044370Y-7497875D02*
X4044370Y-7257875D01*
X3484370Y-7497875D02*
X3484370Y-7257875D01*
X4044370Y-7257875D02*
X3464370Y-7257875D01*
X3464370Y-7497875D02*
X4044370Y-7497875D01*
X3501870Y-7497875D02*
X3501870Y-7257875D01*
X3471870Y-7497875D02*
X3471870Y-7257875D01*
X3461870Y-7257875D02*
X3461870Y-7497875D01*
X3536870Y-7497875D02*
X3536870Y-7257875D01*
X3519370Y-7497875D02*
X3519370Y-7257875D01*
%TO.C,D10*%
X19836850Y-2335375D02*
X19836850Y-2915375D01*
X20076850Y-2877875D02*
X19836850Y-2877875D01*
X20076850Y-2842875D02*
X19836850Y-2842875D01*
X20076850Y-2915375D02*
X20076850Y-2335375D01*
X20076850Y-2335375D02*
X19836850Y-2335375D01*
X19836850Y-2917875D02*
X20076850Y-2917875D01*
X20076850Y-2907875D02*
X19836850Y-2907875D01*
X20076850Y-2860375D02*
X19836850Y-2860375D01*
X20076850Y-2895375D02*
X19836850Y-2895375D01*
%TO.C,D22*%
X6741870Y-5752875D02*
X6501870Y-5752875D01*
X6501870Y-5192875D02*
X6501870Y-5772875D01*
X6741870Y-5765375D02*
X6501870Y-5765375D01*
X6741870Y-5717875D02*
X6501870Y-5717875D01*
X6741870Y-5772875D02*
X6741870Y-5192875D01*
X6741870Y-5192875D02*
X6501870Y-5192875D01*
X6501870Y-5775375D02*
X6741870Y-5775375D01*
X6741870Y-5700375D02*
X6501870Y-5700375D01*
X6741870Y-5735375D02*
X6501870Y-5735375D01*
%TO.C,D16*%
X30134350Y-1782875D02*
X30714350Y-1782875D01*
X30141850Y-1782875D02*
X30141850Y-1542875D01*
X30206850Y-1782875D02*
X30206850Y-1542875D01*
X30154350Y-1782875D02*
X30154350Y-1542875D01*
X30714350Y-1542875D02*
X30134350Y-1542875D01*
X30131850Y-1542875D02*
X30131850Y-1782875D01*
X30171850Y-1782875D02*
X30171850Y-1542875D01*
X30189350Y-1782875D02*
X30189350Y-1542875D01*
X30714350Y-1782875D02*
X30714350Y-1542875D01*
%TO.C,D45*%
X20133050Y-5592875D02*
X20713050Y-5592875D01*
X20170550Y-5592875D02*
X20170550Y-5352875D01*
X20713050Y-5352875D02*
X20133050Y-5352875D01*
X20140550Y-5592875D02*
X20140550Y-5352875D01*
X20130550Y-5352875D02*
X20130550Y-5592875D01*
X20188050Y-5592875D02*
X20188050Y-5352875D01*
X20205550Y-5592875D02*
X20205550Y-5352875D01*
X20713050Y-5592875D02*
X20713050Y-5352875D01*
X20153050Y-5592875D02*
X20153050Y-5352875D01*
%TO.C,D77*%
X34546850Y-9402875D02*
X34546850Y-9162875D01*
X33964350Y-9402875D02*
X34544350Y-9402875D01*
X34544350Y-9162875D02*
X33964350Y-9162875D01*
X34471850Y-9162875D02*
X34471850Y-9402875D01*
X33964350Y-9162875D02*
X33964350Y-9402875D01*
X34536850Y-9162875D02*
X34536850Y-9402875D01*
X34506850Y-9162875D02*
X34506850Y-9402875D01*
X34524350Y-9162875D02*
X34524350Y-9402875D01*
X34489350Y-9162875D02*
X34489350Y-9402875D01*
%TO.C,D78*%
X36743750Y-10537875D02*
X36983750Y-10537875D01*
X36983750Y-10515375D02*
X36743750Y-10515375D01*
X36983750Y-10527875D02*
X36743750Y-10527875D01*
X36983750Y-10497875D02*
X36743750Y-10497875D01*
X36983750Y-10535375D02*
X36983750Y-9955375D01*
X36983750Y-10480375D02*
X36743750Y-10480375D01*
X36983750Y-9955375D02*
X36743750Y-9955375D01*
X36743750Y-9955375D02*
X36743750Y-10535375D01*
X36983750Y-10462875D02*
X36743750Y-10462875D01*
%TO.C,D71*%
X10694350Y-9162875D02*
X10694350Y-9402875D01*
X10151850Y-9162875D02*
X10151850Y-9402875D01*
X10731850Y-9162875D02*
X10151850Y-9162875D01*
X10724350Y-9162875D02*
X10724350Y-9402875D01*
X10711850Y-9162875D02*
X10711850Y-9402875D01*
X10734350Y-9402875D02*
X10734350Y-9162875D01*
X10151850Y-9402875D02*
X10731850Y-9402875D01*
X10676850Y-9162875D02*
X10676850Y-9402875D01*
X10659350Y-9162875D02*
X10659350Y-9402875D01*
%TO.C,D25*%
X13979350Y-3687875D02*
X13979350Y-3447875D01*
X14014350Y-3687875D02*
X14014350Y-3447875D01*
X13939350Y-3447875D02*
X13939350Y-3687875D01*
X13961850Y-3687875D02*
X13961850Y-3447875D01*
X13996850Y-3687875D02*
X13996850Y-3447875D01*
X14521850Y-3447875D02*
X13941850Y-3447875D01*
X14521850Y-3687875D02*
X14521850Y-3447875D01*
X13941850Y-3687875D02*
X14521850Y-3687875D01*
X13949350Y-3687875D02*
X13949350Y-3447875D01*
%TO.C,D3*%
X5424370Y-1782875D02*
X5424370Y-1542875D01*
X5441870Y-1782875D02*
X5441870Y-1542875D01*
X5369370Y-1782875D02*
X5949370Y-1782875D01*
X5389370Y-1782875D02*
X5389370Y-1542875D01*
X5366870Y-1542875D02*
X5366870Y-1782875D01*
X5949370Y-1542875D02*
X5369370Y-1542875D01*
X5949370Y-1782875D02*
X5949370Y-1542875D01*
X5406870Y-1782875D02*
X5406870Y-1542875D01*
X5376870Y-1782875D02*
X5376870Y-1542875D01*
%TO.C,D4*%
X7281870Y-1782875D02*
X7281870Y-1542875D01*
X7294370Y-1782875D02*
X7294370Y-1542875D01*
X7311870Y-1782875D02*
X7311870Y-1542875D01*
X7346870Y-1782875D02*
X7346870Y-1542875D01*
X7329370Y-1782875D02*
X7329370Y-1542875D01*
X7271870Y-1542875D02*
X7271870Y-1782875D01*
X7854370Y-1542875D02*
X7274370Y-1542875D01*
X7854370Y-1782875D02*
X7854370Y-1542875D01*
X7274370Y-1782875D02*
X7854370Y-1782875D01*
%TO.C,D42*%
X14425550Y-5592875D02*
X14425550Y-5352875D01*
X14455550Y-5592875D02*
X14455550Y-5352875D01*
X14438050Y-5592875D02*
X14438050Y-5352875D01*
X14998050Y-5352875D02*
X14418050Y-5352875D01*
X14998050Y-5592875D02*
X14998050Y-5352875D01*
X14418050Y-5592875D02*
X14998050Y-5592875D01*
X14490550Y-5592875D02*
X14490550Y-5352875D01*
X14473050Y-5592875D02*
X14473050Y-5352875D01*
X14415550Y-5352875D02*
X14415550Y-5592875D01*
%TO.C,D60*%
X17295650Y-7497875D02*
X17295650Y-7257875D01*
X17273150Y-7257875D02*
X17273150Y-7497875D01*
X17283150Y-7497875D02*
X17283150Y-7257875D01*
X17855650Y-7497875D02*
X17855650Y-7257875D01*
X17855650Y-7257875D02*
X17275650Y-7257875D01*
X17313150Y-7497875D02*
X17313150Y-7257875D01*
X17348150Y-7497875D02*
X17348150Y-7257875D01*
X17275650Y-7497875D02*
X17855650Y-7497875D01*
X17330650Y-7497875D02*
X17330650Y-7257875D01*
%TO.C,D26*%
X16426850Y-3447875D02*
X15846850Y-3447875D01*
X15846850Y-3687875D02*
X16426850Y-3687875D01*
X15919350Y-3687875D02*
X15919350Y-3447875D01*
X15866850Y-3687875D02*
X15866850Y-3447875D01*
X15844350Y-3447875D02*
X15844350Y-3687875D01*
X15884350Y-3687875D02*
X15884350Y-3447875D01*
X15901850Y-3687875D02*
X15901850Y-3447875D01*
X16426850Y-3687875D02*
X16426850Y-3447875D01*
X15854350Y-3687875D02*
X15854350Y-3447875D01*
%TO.C,D53*%
X1596870Y-7497875D02*
X1596870Y-7257875D01*
X2139370Y-7257875D02*
X1559370Y-7257875D01*
X1631870Y-7497875D02*
X1631870Y-7257875D01*
X2139370Y-7497875D02*
X2139370Y-7257875D01*
X1566870Y-7497875D02*
X1566870Y-7257875D01*
X1614370Y-7497875D02*
X1614370Y-7257875D01*
X1579370Y-7497875D02*
X1579370Y-7257875D01*
X1556870Y-7257875D02*
X1556870Y-7497875D01*
X1559370Y-7497875D02*
X2139370Y-7497875D01*
%TO.C,D21*%
X5441870Y-3687875D02*
X5441870Y-3447875D01*
X5406870Y-3687875D02*
X5406870Y-3447875D01*
X5376870Y-3687875D02*
X5376870Y-3447875D01*
X5389370Y-3687875D02*
X5389370Y-3447875D01*
X5949370Y-3447875D02*
X5369370Y-3447875D01*
X5424370Y-3687875D02*
X5424370Y-3447875D01*
X5369370Y-3687875D02*
X5949370Y-3687875D01*
X5366870Y-3447875D02*
X5366870Y-3687875D01*
X5949370Y-3687875D02*
X5949370Y-3447875D01*
%TO.C,D50*%
X29695550Y-5592875D02*
X29695550Y-5352875D01*
X29658050Y-5592875D02*
X30238050Y-5592875D01*
X29655550Y-5352875D02*
X29655550Y-5592875D01*
X30238050Y-5352875D02*
X29658050Y-5352875D01*
X30238050Y-5592875D02*
X30238050Y-5352875D01*
X29678050Y-5592875D02*
X29678050Y-5352875D01*
X29665550Y-5592875D02*
X29665550Y-5352875D01*
X29713050Y-5592875D02*
X29713050Y-5352875D01*
X29730550Y-5592875D02*
X29730550Y-5352875D01*
%TO.C,D2*%
X3484370Y-1782875D02*
X3484370Y-1542875D01*
X3464370Y-1782875D02*
X4044370Y-1782875D01*
X3519370Y-1782875D02*
X3519370Y-1542875D01*
X3536870Y-1782875D02*
X3536870Y-1542875D01*
X4044370Y-1782875D02*
X4044370Y-1542875D01*
X3501870Y-1782875D02*
X3501870Y-1542875D01*
X3461870Y-1542875D02*
X3461870Y-1782875D01*
X3471870Y-1782875D02*
X3471870Y-1542875D01*
X4044370Y-1542875D02*
X3464370Y-1542875D01*
%TO.C,D39*%
X5376870Y-5592875D02*
X5376870Y-5352875D01*
X5424370Y-5592875D02*
X5424370Y-5352875D01*
X5369370Y-5592875D02*
X5949370Y-5592875D01*
X5389370Y-5592875D02*
X5389370Y-5352875D01*
X5441870Y-5592875D02*
X5441870Y-5352875D01*
X5366870Y-5352875D02*
X5366870Y-5592875D01*
X5406870Y-5592875D02*
X5406870Y-5352875D01*
X5949370Y-5592875D02*
X5949370Y-5352875D01*
X5949370Y-5352875D02*
X5369370Y-5352875D01*
%TO.C,D72*%
X13113050Y-9162875D02*
X12533050Y-9162875D01*
X13040550Y-9162875D02*
X13040550Y-9402875D01*
X12533050Y-9162875D02*
X12533050Y-9402875D01*
X13075550Y-9162875D02*
X13075550Y-9402875D01*
X12533050Y-9402875D02*
X13113050Y-9402875D01*
X13058050Y-9162875D02*
X13058050Y-9402875D01*
X13105550Y-9162875D02*
X13105550Y-9402875D01*
X13115550Y-9402875D02*
X13115550Y-9162875D01*
X13093050Y-9162875D02*
X13093050Y-9402875D01*
%TO.C,D48*%
X25848050Y-5592875D02*
X26428050Y-5592875D01*
X26428050Y-5352875D02*
X25848050Y-5352875D01*
X25868050Y-5592875D02*
X25868050Y-5352875D01*
X25885550Y-5592875D02*
X25885550Y-5352875D01*
X25920550Y-5592875D02*
X25920550Y-5352875D01*
X25845550Y-5352875D02*
X25845550Y-5592875D01*
X25903050Y-5592875D02*
X25903050Y-5352875D01*
X26428050Y-5592875D02*
X26428050Y-5352875D01*
X25855550Y-5592875D02*
X25855550Y-5352875D01*
%TO.C,D7*%
X12989350Y-1782875D02*
X13569350Y-1782875D01*
X13061850Y-1782875D02*
X13061850Y-1542875D01*
X12996850Y-1782875D02*
X12996850Y-1542875D01*
X13009350Y-1782875D02*
X13009350Y-1542875D01*
X13026850Y-1782875D02*
X13026850Y-1542875D01*
X13569350Y-1542875D02*
X12989350Y-1542875D01*
X13044350Y-1782875D02*
X13044350Y-1542875D01*
X13569350Y-1782875D02*
X13569350Y-1542875D01*
X12986850Y-1542875D02*
X12986850Y-1782875D01*
D11*
%TO.C,U1*%
X2902750Y-1262615D02*
X2902750Y-4310615D01*
X3410750Y-1262615D02*
X2902750Y-1262615D01*
X4680750Y-1262615D02*
X4172750Y-1262615D01*
X3410750Y-1008615D02*
X3410750Y-1262615D01*
X4172750Y-1262615D02*
X4172750Y-1008615D01*
X2902750Y-4310615D02*
X4680750Y-4310615D01*
X4172750Y-1008615D02*
X3410750Y-1008615D01*
X4680750Y-4310615D02*
X4680750Y-1262615D01*
%TD*%
M02*
